<?xml version="1.0" encoding="UTF-8" standalone="no"?>
<!-- Created with Inkscape (http://www.inkscape.org/) -->

<svg
   version="1.1"
   id="svg2"
   xml:space="preserve"
   width="1057.8933"
   height="552"
   viewBox="0 0 1057.8933 552"
   sodipodi:docname="237.eps"
   xmlns:inkscape="http://www.inkscape.org/namespaces/inkscape"
   xmlns:sodipodi="http://sodipodi.sourceforge.net/DTD/sodipodi-0.dtd"
   xmlns="http://www.w3.org/2000/svg"
   xmlns:svg="http://www.w3.org/2000/svg"><defs
     id="defs6"><clipPath
       clipPathUnits="userSpaceOnUse"
       id="clipPath118"><path
         d="m 3351.31,2744.88 h -178.08 c -50.42,0 -91.29,40.87 -91.29,91.28 v 178.08 c 0,50.42 40.87,91.29 91.29,91.29 h 178.08 c 50.41,0 91.29,-40.87 91.29,-91.29 v -178.08 c 0,-50.41 -40.88,-91.28 -91.29,-91.28 z"
         id="path116" /></clipPath><linearGradient
       x1="0"
       y1="0"
       x2="1"
       y2="0"
       gradientUnits="userSpaceOnUse"
       gradientTransform="matrix(353.795,-353.795,-353.795,-353.795,3078.01,3109.47)"
       spreadMethod="pad"
       id="linearGradient134"><stop
         style="stop-opacity:1;stop-color:#f9d76c"
         offset="0"
         id="stop120" /><stop
         style="stop-opacity:1;stop-color:#f9d76c"
         offset="0.0011048"
         id="stop122" /><stop
         style="stop-opacity:1;stop-color:#f9a837"
         offset="0.209357"
         id="stop124" /><stop
         style="stop-opacity:1;stop-color:#f03d74"
         offset="0.37646"
         id="stop126" /><stop
         style="stop-opacity:1;stop-color:#e62299"
         offset="0.523815"
         id="stop128" /><stop
         style="stop-opacity:1;stop-color:#6f3ea2"
         offset="0.739443"
         id="stop130" /><stop
         style="stop-opacity:1;stop-color:#4850ab"
         offset="1"
         id="stop132" /></linearGradient><clipPath
       clipPathUnits="userSpaceOnUse"
       id="clipPath176"><path
         d="m 2719.13,3039.72 c -11.53,0 -20.89,-9.35 -20.89,-20.88 0,-11.54 9.36,-20.89 20.89,-20.89 11.53,0 20.88,9.35 20.88,20.89 0,11.53 -9.35,20.88 -20.88,20.88 z"
         id="path174" /></clipPath><linearGradient
       x1="0"
       y1="0"
       x2="1"
       y2="0"
       gradientUnits="userSpaceOnUse"
       gradientTransform="matrix(323.099,-309.261,-309.261,-323.099,2555.93,3175.05)"
       spreadMethod="pad"
       id="linearGradient192"><stop
         style="stop-opacity:1;stop-color:#f9d76c"
         offset="0"
         id="stop178" /><stop
         style="stop-opacity:1;stop-color:#f9d76c"
         offset="0.0011048"
         id="stop180" /><stop
         style="stop-opacity:1;stop-color:#f9a837"
         offset="0.209357"
         id="stop182" /><stop
         style="stop-opacity:1;stop-color:#f03d74"
         offset="0.37646"
         id="stop184" /><stop
         style="stop-opacity:1;stop-color:#e62299"
         offset="0.523815"
         id="stop186" /><stop
         style="stop-opacity:1;stop-color:#6f3ea2"
         offset="0.739443"
         id="stop188" /><stop
         style="stop-opacity:1;stop-color:#4850ab"
         offset="1"
         id="stop190" /></linearGradient><clipPath
       clipPathUnits="userSpaceOnUse"
       id="clipPath202"><path
         d="m 2626.27,2869 c -30.99,0 -56.2,25.21 -56.2,56.21 0,30.98 25.21,56.19 56.2,56.19 31,0 56.21,-25.21 56.21,-56.19 0,-31 -25.21,-56.21 -56.21,-56.21 z m 0,143.94 c -48.37,0 -87.73,-39.36 -87.73,-87.73 0,-48.38 39.36,-87.74 87.73,-87.74 48.38,0 87.74,39.36 87.74,87.74 0,48.37 -39.36,87.73 -87.74,87.73 z"
         id="path200" /></clipPath><linearGradient
       x1="0"
       y1="0"
       x2="1"
       y2="0"
       gradientUnits="userSpaceOnUse"
       gradientTransform="matrix(323.099,-309.26,-309.26,-323.099,2464.76,3079.8)"
       spreadMethod="pad"
       id="linearGradient218"><stop
         style="stop-opacity:1;stop-color:#f9d76c"
         offset="0"
         id="stop204" /><stop
         style="stop-opacity:1;stop-color:#f9d76c"
         offset="0.0011048"
         id="stop206" /><stop
         style="stop-opacity:1;stop-color:#f9a837"
         offset="0.209357"
         id="stop208" /><stop
         style="stop-opacity:1;stop-color:#f03d74"
         offset="0.37646"
         id="stop210" /><stop
         style="stop-opacity:1;stop-color:#e62299"
         offset="0.523815"
         id="stop212" /><stop
         style="stop-opacity:1;stop-color:#6f3ea2"
         offset="0.739443"
         id="stop214" /><stop
         style="stop-opacity:1;stop-color:#4850ab"
         offset="1"
         id="stop216" /></linearGradient><clipPath
       clipPathUnits="userSpaceOnUse"
       id="clipPath228"><path
         d="m 2553.69,3069.82 c -40.53,0 -73.49,-32.97 -73.49,-73.5 v -142.24 c 0,-40.52 32.96,-73.49 73.49,-73.49 h 142.24 c 40.53,0 73.49,32.97 73.49,73.49 v 142.24 c 0,40.53 -32.96,73.5 -73.49,73.5 z m 142.24,-322.75 h -142.24 c -59,0 -107,48.01 -107,107.01 v 142.24 c 0,59.01 48,107.02 107,107.02 h 142.24 c 59,0 107.01,-48.01 107.01,-107.02 v -142.24 c 0,-59 -48.01,-107.01 -107.01,-107.01 z"
         id="path226" /></clipPath><linearGradient
       x1="0"
       y1="0"
       x2="1"
       y2="0"
       gradientUnits="userSpaceOnUse"
       gradientTransform="matrix(323.096,-309.258,-309.258,-323.096,2464.06,3079.07)"
       spreadMethod="pad"
       id="linearGradient244"><stop
         style="stop-opacity:1;stop-color:#f9d76c"
         offset="0"
         id="stop230" /><stop
         style="stop-opacity:1;stop-color:#f9d76c"
         offset="0.0011048"
         id="stop232" /><stop
         style="stop-opacity:1;stop-color:#f9a837"
         offset="0.209357"
         id="stop234" /><stop
         style="stop-opacity:1;stop-color:#f03d74"
         offset="0.37646"
         id="stop236" /><stop
         style="stop-opacity:1;stop-color:#e62299"
         offset="0.523815"
         id="stop238" /><stop
         style="stop-opacity:1;stop-color:#6f3ea2"
         offset="0.739443"
         id="stop240" /><stop
         style="stop-opacity:1;stop-color:#4850ab"
         offset="1"
         id="stop242" /></linearGradient></defs><sodipodi:namedview
     id="namedview4"
     pagecolor="#ffffff"
     bordercolor="#666666"
     borderopacity="1.0"
     inkscape:pageshadow="2"
     inkscape:pageopacity="0.0"
     inkscape:pagecheckerboard="0" /><g
     id="g8"
     inkscape:groupmode="layer"
     inkscape:label="ink_ext_XXXXXX"
     transform="matrix(1.3333333,0,0,-1.3333333,0,552)"><g
       id="g10"
       transform="scale(0.1)"><path
         d="M 3974.26,3663.84 V 22"
         style="fill:none;stroke:#8b8e8e;stroke-width:10;stroke-linecap:butt;stroke-linejoin:miter;stroke-miterlimit:10;stroke-dasharray:none;stroke-opacity:1"
         id="path12" /><path
         d="M 2059.68,3663.84 V 8.87891"
         style="fill:none;stroke:#8b8e8e;stroke-width:5;stroke-linecap:butt;stroke-linejoin:miter;stroke-miterlimit:10;stroke-dasharray:120, 120;stroke-dashoffset:0;stroke-opacity:1"
         id="path14" /><path
         d="M 6546.84,3663.84 V 8.87891"
         style="fill:none;stroke:#8b8e8e;stroke-width:5;stroke-linecap:butt;stroke-linejoin:miter;stroke-miterlimit:10;stroke-dasharray:120, 120;stroke-dashoffset:0;stroke-opacity:1"
         id="path16" /><path
         d="m 328.645,3327.88 h -225.5 v 106.5 c 0,12.93 10.523,23.45 23.457,23.45 h 178.586 c 12.933,0 23.457,-10.52 23.457,-23.45 z m -177.727,228.51 c 0,35.83 29.145,64.98 64.977,64.98 35.824,0 64.976,-29.15 64.976,-64.98 0,-35.82 -29.152,-64.97 -64.976,-64.97 -35.832,0 -64.977,29.15 -64.977,64.97 z m 154.27,-64.97 h -15.247 c 15.25,17.35 24.512,40.1 24.512,64.97 0,54.35 -44.215,98.56 -98.558,98.56 -54.348,0 -98.559,-44.21 -98.559,-98.56 0,-24.87 9.262,-47.62 24.512,-64.97 h -15.246 c -31.4536,0 -57.0395,-25.6 -57.0395,-57.04 V 3294.3 H 362.227 v 140.08 c 0,31.44 -25.586,57.04 -57.039,57.04"
         style="fill:#2e68bb;fill-opacity:1;fill-rule:nonzero;stroke:none"
         id="path18" /><path
         d="M 348.328,2214 H 83.4531 v 129.96 H 348.328 Z M 215.895,2523.71 353.891,2377.54 H 77.8906 Z M 431.789,2343.96 215.895,2572.63 0,2343.96 H 49.8672 V 2180.42 H 381.914 v 163.54 h 49.875"
         style="fill:#e62299;fill-opacity:1;fill-rule:nonzero;stroke:none"
         id="path20" /><path
         d="m 69.1523,1718.4 v 196.94 l 146.7427,-167.3 146.742,167.3 V 1718.4 Z M 336.566,1936.55 215.895,1798.97 95.2188,1936.55 Z M 35.5664,1970.13 V 1684.82 H 396.223 v 285.31 H 35.5664"
         style="fill:#f9a837;fill-opacity:1;fill-rule:nonzero;stroke:none"
         id="path22" /><path
         d="m 134.816,1403.8 177.649,-128.77 -177.102,-90.64 z m 241.7,-133.71 -275.45,199.65 0.848,-340.19 122.359,62.62 53.766,-105.06 29.895,15.29 -53.774,105.07 122.356,62.62"
         style="fill:#6f3ea2;fill-opacity:1;fill-rule:nonzero;stroke:none"
         id="path24" /><path
         d="M 215.895,596.199 C 177.676,639.762 109.27,727.07 109.27,772.109 c 0,58.782 47.832,106.621 106.625,106.621 58.793,0 106.621,-47.839 106.621,-106.621 0,-45.039 -68.411,-132.347 -106.621,-175.91 z m 0,316.11 c -77.317,0 -140.2114,-62.891 -140.2114,-140.2 0,-72.668 114.8124,-198.339 127.9064,-212.441 l 12.305,-13.238 12.3,13.238 c 13.09,14.102 127.903,139.773 127.903,212.441 0,77.309 -62.895,140.2 -140.203,140.2"
         style="fill:#ef2f36;fill-opacity:1;fill-rule:nonzero;stroke:none"
         id="path26" /><path
         d="m 215.895,745.918 c -17.707,0 -32.106,14.402 -32.106,32.102 0,17.71 14.399,32.109 32.106,32.109 17.699,0 32.101,-14.399 32.101,-32.109 0,-17.7 -14.402,-32.102 -32.101,-32.102 z m 0,97.801 c -36.223,0 -65.688,-29.481 -65.688,-65.699 0,-36.219 29.465,-65.68 65.688,-65.68 36.218,0 65.687,29.461 65.687,65.68 0,36.218 -29.469,65.699 -65.687,65.699"
         style="fill:#ef2f36;fill-opacity:1;fill-rule:nonzero;stroke:none"
         id="path28" /><path
         d="m 268.457,43.3203 c 15.043,30.9492 23.57,74.9887 25.266,120.2107 H 361.68 C 355.383,108.461 318.477,62.5586 268.457,43.3203 Z M 70.1094,163.531 H 138.066 C 139.758,118.309 148.281,74.2695 163.328,43.3203 113.313,62.5703 76.4063,108.469 70.1094,163.531 Z M 163.328,317.328 C 148.281,286.371 139.758,242.34 138.066,197.121 H 70.1094 c 6.2969,55.059 43.2036,100.957 93.2186,120.207 z m 8.324,-120.207 c 3.203,84.238 30.032,129.949 44.243,129.949 14.203,0 41.039,-45.711 44.238,-129.949 z M 215.895,33.582 c -14.211,0 -41.04,45.7071 -44.243,129.949 h 88.481 C 256.934,79.2891 230.098,33.582 215.895,33.582 Z M 361.68,197.121 h -67.957 c -1.696,45.219 -10.223,89.25 -25.266,120.219 50.02,-19.262 86.926,-65.16 93.223,-120.219 z m 33.765,0 c -8.5,91.59 -85.781,163.527 -179.55,163.527 -93.774,0 -171.0512,-71.937 -179.5473,-163.527 h -0.7813 v -33.59 h 0.7813 C 44.8438,71.9414 122.121,0 215.895,0 c 93.769,0 171.05,71.9414 179.55,163.531 h 0.778 v 33.59 h -0.778"
         style="fill:#2fbbe1;fill-opacity:1;fill-rule:nonzero;stroke:none"
         id="path30" /><path
         d="m 121.879,2833.15 c -63.3243,63.33 -67.5079,162.81 -11.309,230.9 l 67.539,-67.53 -40.714,-40.72 c -6.301,-6.3 -9.766,-14.67 -9.766,-23.57 0,-8.9 3.465,-17.28 9.766,-23.57 l 59.992,-60 c 6.297,-6.3 14.668,-9.76 23.57,-9.76 8.902,0 17.277,3.46 23.566,9.76 l 40.727,40.72 67.535,-67.54 c -68.097,-56.19 -167.59,-52.01 -230.906,11.31 z m 262.219,4.87 -98.848,98.86 -64.293,-64.29 -59.82,59.46 64.468,64.47 -98.847,98.84 c -4.5,4.51 -10.824,7.18 -17.125,6.92 -6.332,-0.12 -12.426,-2.83 -16.7111,-7.44 -75.75,-81.39 -73.4571,-206.77 5.2148,-285.43 40.2853,-40.3 92.8243,-60.56 145.4373,-60.56 50.114,0 100.289,18.39 139.996,55.34 4.61,4.29 7.321,10.38 7.438,16.7 0.113,6.39 -2.403,12.63 -6.91,17.13"
         style="fill:#19ae5b;fill-opacity:1;fill-rule:nonzero;stroke:none"
         id="path32" /><path
         d="m 933.965,3573.92 c 0,-40.53 -32.848,-73.37 -73.367,-73.37 -40.524,0 -73.375,32.84 -73.375,73.37 0,40.52 32.851,73.37 73.375,73.37 40.519,0 73.367,-32.85 73.367,-73.37"
         style="fill:#2e68bb;fill-opacity:1;fill-rule:nonzero;stroke:none"
         id="path34" /><path
         d="M 949.887,3466.96 H 771.301 c -22.227,0 -40.246,-18.02 -40.246,-40.25 v -124.75 h 259.082 v 124.75 c 0,22.23 -18.024,40.25 -40.25,40.25"
         style="fill:#2e68bb;fill-opacity:1;fill-rule:nonzero;stroke:none"
         id="path36" /><path
         d="M 860.598,2552 683.648,2364.58 H 1037.54 Z"
         style="fill:#e62299;fill-opacity:1;fill-rule:nonzero;stroke:none"
         id="path38" /><path
         d="m 711.363,2201.05 h 298.457 v 129.949 H 711.363 Z"
         style="fill:#e62299;fill-opacity:1;fill-rule:nonzero;stroke:none"
         id="path40" /><path
         d="m 996.008,1953.35 h -270.82 l 135.41,-154.38 z"
         style="fill:#f9a837;fill-opacity:1;fill-rule:nonzero;stroke:none"
         id="path42" /><path
         d="m 860.598,1748.04 -163.535,186.44 v -232.87 h 327.067 v 232.87 L 860.598,1748.04"
         style="fill:#f9a837;fill-opacity:1;fill-rule:nonzero;stroke:none"
         id="path44" /><path
         d="m 860.598,725.191 c -27.008,0 -48.899,21.887 -48.899,48.899 0,27 21.891,48.89 48.899,48.89 27,0 48.894,-21.89 48.894,-48.89 0,-27.012 -21.894,-48.899 -48.894,-48.899 z m 0,166.387 c -68.164,0 -123.418,-55.258 -123.418,-123.41 0,-68.156 123.418,-201.008 123.418,-201.008 0,0 123.41,132.852 123.41,201.008 0,68.152 -55.254,123.41 -123.41,123.41"
         style="fill:#ef2f36;fill-opacity:1;fill-rule:nonzero;stroke:none"
         id="path46" /><path
         d="m 853.965,2860.39 -60,60 c -6.461,6.45 -6.461,16.93 0,23.39 l 52.594,52.59 -86.985,86.98 c -2.664,2.67 -7.082,2.67 -9.656,-0.1 -68.93,-74.06 -67.336,-190 4.789,-262.12 72.125,-72.13 188.063,-73.72 262.133,-4.8 2.76,2.58 2.76,7 0.09,9.67 l -86.985,86.98 -52.59,-52.59 c -6.46,-6.46 -16.929,-6.46 -23.39,0"
         style="fill:#19ae5b;fill-opacity:1;fill-rule:nonzero;stroke:none"
         id="path48" /><path
         d="m 891.324,1238.96 97.871,50.09 -226.554,164.21 0.699,-279.81 97.98,50.15 7.278,-14.22 7.613,-15.16 0.117,0.06 46.41,-90.69 29.899,15.29 -54.071,105.66 -7.242,14.42"
         style="fill:#6f3ea2;fill-opacity:1;fill-rule:nonzero;stroke:none"
         id="path50" /><path
         d="m 860.598,327.07 c -14.211,0 -41.043,-45.711 -44.246,-129.949 h 88.488 c -3.203,84.238 -30.035,129.949 -44.242,129.949"
         style="fill:#2fbbe1;fill-opacity:1;fill-rule:nonzero;stroke:none"
         id="path52" /><path
         d="m 816.352,163.531 c 3.203,-84.2419 30.035,-129.949 44.246,-129.949 14.207,0 41.039,45.7071 44.242,129.949 h -88.488"
         style="fill:#2fbbe1;fill-opacity:1;fill-rule:nonzero;stroke:none"
         id="path54" /><path
         d="m 938.422,197.121 h 84.858 c -7.07,69.301 -57.425,125.809 -123.592,142.039 23.468,-29.301 36.593,-84.719 38.734,-142.039"
         style="fill:#2fbbe1;fill-opacity:1;fill-rule:nonzero;stroke:none"
         id="path56" /><path
         d="m 782.77,197.121 c 2.144,57.32 15.269,112.738 38.734,142.039 C 755.332,322.93 704.98,266.43 697.91,197.121 h 84.86"
         style="fill:#2fbbe1;fill-opacity:1;fill-rule:nonzero;stroke:none"
         id="path58" /><path
         d="M 938.422,163.531 C 936.281,106.211 923.156,50.7891 899.684,21.4883 965.855,37.7188 1016.21,94.2188 1023.28,163.531 h -84.858"
         style="fill:#2fbbe1;fill-opacity:1;fill-rule:nonzero;stroke:none"
         id="path60" /><path
         d="M 782.77,163.531 H 697.91 C 704.98,94.2188 755.336,37.7188 821.508,21.4883 798.039,50.7891 784.914,106.211 782.77,163.531"
         style="fill:#2fbbe1;fill-opacity:1;fill-rule:nonzero;stroke:none"
         id="path62" /><path
         d="m 1590.32,3294.3 h -178.08 c -50.41,0 -91.29,40.87 -91.29,91.28 v 178.09 c 0,50.41 40.88,91.28 91.29,91.28 h 178.08 c 50.42,0 91.29,-40.87 91.29,-91.28 v -178.09 c 0,-50.41 -40.87,-91.28 -91.29,-91.28"
         style="fill:#2e68bb;fill-opacity:1;fill-rule:nonzero;stroke:none"
         id="path64" /><path
         d="m 1554.48,3556.62 c 0,-29.38 -23.82,-53.2 -53.2,-53.2 -29.38,0 -53.2,23.82 -53.2,53.2 0,29.38 23.82,53.2 53.2,53.2 29.38,0 53.2,-23.82 53.2,-53.2"
         style="fill:#ffffff;fill-opacity:1;fill-rule:nonzero;stroke:none"
         id="path66" /><path
         d="m 1566.03,3479.07 h -129.5 c -16.11,0 -29.18,-13.07 -29.18,-29.19 v -90.45 h 187.86 v 90.45 c 0,16.12 -13.07,29.19 -29.18,29.19"
         style="fill:#ffffff;fill-opacity:1;fill-rule:nonzero;stroke:none"
         id="path68" /><path
         d="m 1590.32,2196.2 h -178.08 c -50.41,0 -91.29,40.87 -91.29,91.28 v 178.09 c 0,50.41 40.88,91.28 91.29,91.28 h 178.08 c 50.42,0 91.29,-40.87 91.29,-91.28 v -178.09 c 0,-50.41 -40.87,-91.28 -91.29,-91.28"
         style="fill:#e62299;fill-opacity:1;fill-rule:nonzero;stroke:none"
         id="path70" /><path
         d="m 1501.28,2517.7 -128.3,-135.9 h 256.61 z"
         style="fill:#ffffff;fill-opacity:1;fill-rule:nonzero;stroke:none"
         id="path72" /><path
         d="m 1393.08,2263.22 h 216.41 v 94.2305 h -216.41 z"
         style="fill:#ffffff;fill-opacity:1;fill-rule:nonzero;stroke:none"
         id="path74" /><path
         d="m 1590.32,1647.14 h -178.08 c -50.41,0 -91.29,40.87 -91.29,91.29 v 178.09 c 0,50.41 40.88,91.28 91.29,91.28 h 178.08 c 50.42,0 91.29,-40.87 91.29,-91.28 v -178.09 c 0,-50.42 -40.87,-91.29 -91.29,-91.29"
         style="fill:#f9a837;fill-opacity:1;fill-rule:nonzero;stroke:none"
         id="path76" /><path
         d="M 1599.47,1918.74 H 1403.1 l 98.18,-111.94 z"
         style="fill:#ffffff;fill-opacity:1;fill-rule:nonzero;stroke:none"
         id="path78" /><path
         d="m 1501.28,1769.88 -118.57,135.18 v -168.85 h 237.15 v 168.85 l -118.58,-135.18"
         style="fill:#ffffff;fill-opacity:1;fill-rule:nonzero;stroke:none"
         id="path80" /><path
         d="m 1590.32,549.051 h -178.08 c -50.41,0 -91.29,40.871 -91.29,91.277 V 818.41 c 0,50.418 40.88,91.289 91.29,91.289 h 178.08 c 50.42,0 91.29,-40.871 91.29,-91.289 V 640.328 c 0,-50.406 -40.87,-91.277 -91.29,-91.277"
         style="fill:#ef2f36;fill-opacity:1;fill-rule:nonzero;stroke:none"
         id="path82" /><path
         d="m 1501.28,726.34 c -19.58,0 -35.45,15.871 -35.45,35.449 0,19.582 15.87,35.461 35.45,35.461 19.58,0 35.45,-15.879 35.45,-35.461 0,-19.578 -15.87,-35.449 -35.45,-35.449 z m 0,120.648 c -49.42,0 -89.49,-40.058 -89.49,-89.476 0,-49.434 89.49,-145.75 89.49,-145.75 0,0 89.49,96.316 89.49,145.75 0,49.418 -40.07,89.476 -89.49,89.476"
         style="fill:#ffffff;fill-opacity:1;fill-rule:nonzero;stroke:none"
         id="path84" /><path
         d="m 1590.32,2745.25 h -178.08 c -50.41,0 -91.29,40.87 -91.29,91.28 v 178.09 c 0,50.41 40.88,91.28 91.29,91.28 h 178.08 c 50.42,0 91.29,-40.87 91.29,-91.28 v -178.09 c 0,-50.41 -40.87,-91.28 -91.29,-91.28"
         style="fill:#19ae5b;fill-opacity:1;fill-rule:nonzero;stroke:none"
         id="path86" /><path
         d="m 1497.52,2878.31 -43.51,43.5 c -4.68,4.68 -4.68,12.28 0,16.96 l 38.14,38.14 -63.07,63.07 c -1.94,1.93 -5.14,1.93 -7.01,-0.07 -49.97,-53.7 -48.82,-137.78 3.48,-190.07 52.29,-52.3 136.36,-53.45 190.07,-3.47 2,1.86 2,5.07 0.06,7 l -63.07,63.07 -38.13,-38.13 c -4.68,-4.69 -12.28,-4.69 -16.96,0"
         style="fill:#ffffff;fill-opacity:1;fill-rule:nonzero;stroke:none"
         id="path88" /><path
         d="m 1590.32,1098.1 h -178.08 c -50.41,0 -91.29,40.87 -91.29,91.28 v 178.09 c 0,50.41 40.88,91.29 91.29,91.29 h 178.08 c 50.42,0 91.29,-40.88 91.29,-91.29 v -178.09 c 0,-50.41 -40.87,-91.28 -91.29,-91.28"
         style="fill:#6f3ea2;fill-opacity:1;fill-rule:nonzero;stroke:none"
         id="path90" /><path
         d="m 1527.44,1249.81 70.97,36.32 -164.27,119.07 0.5,-202.89 71.05,36.37 5.28,-10.32 5.51,-10.99 0.09,0.04 33.65,-65.75 21.68,11.09 -39.2,76.6 -5.26,10.46"
         style="fill:#ffffff;fill-opacity:1;fill-rule:nonzero;stroke:none"
         id="path92" /><path
         d="m 1590.32,0 h -178.08 c -50.41,0 -91.29,40.8711 -91.29,91.2891 V 269.359 c 0,50.422 40.88,91.289 91.29,91.289 h 178.08 c 50.42,0 91.29,-40.867 91.29,-91.289 V 91.2891 C 1681.61,40.8711 1640.74,0 1590.32,0"
         style="fill:#2fbbe1;fill-opacity:1;fill-rule:nonzero;stroke:none"
         id="path94" /><path
         d="m 1501.28,286.73 c -10.3,0 -29.76,-33.14 -32.08,-94.218 h 64.16 c -2.32,61.078 -21.78,94.218 -32.08,94.218"
         style="fill:#ffffff;fill-opacity:1;fill-rule:nonzero;stroke:none"
         id="path96" /><path
         d="m 1469.2,168.148 c 2.32,-61.078 21.78,-94.2261 32.08,-94.2261 10.3,0 29.76,33.1481 32.08,94.2261 h -64.16"
         style="fill:#ffffff;fill-opacity:1;fill-rule:nonzero;stroke:none"
         id="path98" /><path
         d="m 1557.72,192.512 h 61.52 c -5.12,50.25 -41.64,91.218 -89.62,102.976 17.03,-21.25 26.54,-61.418 28.1,-102.976"
         style="fill:#ffffff;fill-opacity:1;fill-rule:nonzero;stroke:none"
         id="path100" /><path
         d="m 1444.85,192.512 c 1.56,41.558 11.07,81.726 28.09,102.976 -47.98,-11.758 -84.49,-52.726 -89.62,-102.976 h 61.53"
         style="fill:#ffffff;fill-opacity:1;fill-rule:nonzero;stroke:none"
         id="path102" /><path
         d="m 1557.72,168.148 c -1.56,-41.558 -11.08,-81.7496 -28.1,-102.9878 47.98,11.7695 84.5,52.7378 89.62,102.9878 h -61.52"
         style="fill:#ffffff;fill-opacity:1;fill-rule:nonzero;stroke:none"
         id="path104" /><path
         d="m 1444.85,168.148 h -61.53 c 5.13,-50.25 41.64,-91.23 89.62,-102.9996 -17.02,21.25 -26.53,61.4416 -28.09,102.9996"
         style="fill:#ffffff;fill-opacity:1;fill-rule:nonzero;stroke:none"
         id="path106" /><path
         d="m 3351.31,2195.9 h -178.08 c -50.42,0 -91.29,40.87 -91.29,91.29 v 178.08 c 0,50.41 40.87,91.28 91.29,91.28 h 178.08 c 50.41,0 91.29,-40.87 91.29,-91.28 v -178.08 c 0,-50.42 -40.88,-91.29 -91.29,-91.29"
         style="fill:#2fbbe1;fill-opacity:1;fill-rule:nonzero;stroke:none"
         id="path108" /><path
         d="m 3360.69,2436.03 c -6.17,-2.79 -12.99,-4.48 -19.65,-5.6 3.16,0.53 7.8,6.25 9.66,8.56 2.84,3.54 5.19,7.55 6.52,11.89 0.17,0.35 0.3,0.77 -0.04,1.03 -0.43,0.17 -0.71,0.08 -1.04,-0.09 -7.43,-3.98 -15.12,-6.87 -23.3,-8.91 -0.67,-0.17 -1.18,0 -1.6,0.43 -0.68,0.76 -1.32,1.48 -2.04,2.08 -3.44,2.92 -7.12,5.22 -11.28,6.91 -5.46,2.23 -11.43,3.17 -17.31,2.79 -5.72,-0.37 -11.34,-1.99 -16.42,-4.64 -5.09,-2.66 -9.63,-6.36 -13.25,-10.82 -3.74,-4.62 -6.5,-10.06 -7.91,-15.84 -1.36,-5.58 -1.25,-11.09 -0.42,-16.73 0.13,-0.94 0.05,-1.06 -0.8,-0.94 -32,4.77 -58.51,16.21 -80.04,40.75 -0.94,1.06 -1.44,1.06 -2.21,-0.08 -9.42,-14.12 -4.85,-36.81 6.92,-47.96 1.57,-1.49 3.18,-2.98 4.92,-4.33 -0.64,-0.13 -8.47,0.72 -15.45,4.33 -0.93,0.59 -1.4,0.25 -1.49,-0.81 -0.08,-1.53 0.05,-2.93 0.26,-4.59 1.81,-14.31 11.72,-27.55 25.29,-32.72 1.62,-0.68 3.4,-1.27 5.14,-1.56 -3.09,-0.68 -6.28,-1.17 -15.15,-0.47 -1.1,0.21 -1.53,-0.35 -1.1,-1.4 6.66,-18.17 21.05,-23.58 31.82,-26.66 1.45,-0.25 2.89,-0.25 4.34,-0.59 -0.09,-0.13 -0.18,-0.13 -0.26,-0.25 -3.57,-5.45 -15.97,-9.51 -21.74,-11.52 -10.49,-3.68 -21.92,-5.33 -33.01,-4.23 -1.77,0.26 -2.15,0.24 -2.63,0 -0.49,-0.3 -0.06,-0.72 0.51,-1.18 2.25,-1.49 4.54,-2.81 6.87,-4.08 7.05,-3.74 14.39,-6.71 22.08,-8.83 39.65,-10.95 84.33,-2.9 114.1,26.68 23.39,23.23 31.58,55.28 31.58,87.36 0,1.25 1.49,1.95 2.37,2.61 6.08,4.57 10.99,10.04 15.53,16.15 1.02,1.37 1.02,2.59 1.02,3.1 0,0.08 0,0.16 0,0.16 0,0.51 0,0.36 -0.79,0"
         style="fill:#ffffff;fill-opacity:1;fill-rule:nonzero;stroke:none"
         id="path110" /><g
         id="g112"><g
           id="g114"
           clip-path="url(#clipPath118)"><path
             d="m 3351.31,2744.88 h -178.08 c -50.42,0 -91.29,40.87 -91.29,91.28 v 178.08 c 0,50.42 40.87,91.29 91.29,91.29 h 178.08 c 50.41,0 91.29,-40.87 91.29,-91.29 v -178.08 c 0,-50.41 -40.88,-91.28 -91.29,-91.28"
             style="fill:url(#linearGradient134);fill-opacity:1;fill-rule:nonzero;stroke:none"
             id="path136" /></g></g><path
         d="m 3317.56,2991.98 c -6.76,0 -12.24,-5.49 -12.24,-12.25 0,-6.76 5.48,-12.24 12.24,-12.24 6.76,0 12.24,5.48 12.24,12.24 0,6.76 -5.48,12.25 -12.24,12.25"
         style="fill:#ffffff;fill-opacity:1;fill-rule:nonzero;stroke:none"
         id="path138" /><path
         d="m 3263.13,2891.89 c -18.17,0 -32.95,14.78 -32.95,32.95 0,18.17 14.78,32.94 32.95,32.94 18.16,0 32.94,-14.77 32.94,-32.94 0,-18.17 -14.78,-32.95 -32.94,-32.95 z m 0,84.39 c -28.36,0 -51.44,-23.08 -51.44,-51.44 0,-28.36 23.08,-51.44 51.44,-51.44 28.35,0 51.43,23.08 51.43,51.44 0,28.36 -23.08,51.44 -51.43,51.44"
         style="fill:#ffffff;fill-opacity:1;fill-rule:nonzero;stroke:none"
         id="path140" /><path
         d="m 3220.58,3009.62 c -23.76,0 -43.09,-19.33 -43.09,-43.09 v -83.38 c 0,-23.76 19.33,-43.09 43.09,-43.09 h 83.38 c 23.76,0 43.09,19.33 43.09,43.09 v 83.38 c 0,23.76 -19.33,43.09 -43.09,43.09 z m 83.38,-189.21 h -83.38 c -34.6,0 -62.74,28.14 -62.74,62.74 v 83.38 c 0,34.59 28.14,62.74 62.74,62.74 h 83.38 c 34.59,0 62.74,-28.15 62.74,-62.74 v -83.38 c 0,-34.6 -28.15,-62.74 -62.74,-62.74"
         style="fill:#ffffff;fill-opacity:1;fill-rule:nonzero;stroke:none"
         id="path142" /><path
         d="m 3351.31,3293.85 h -61.14 l -27.9,9.22 -27.67,-9.22 h -61.37 c -50.42,0 -91.29,40.87 -91.29,91.29 v 178.08 c 0,50.42 40.87,91.29 91.29,91.29 h 178.08 c 50.41,0 91.29,-40.87 91.29,-91.29 v -178.08 c 0,-50.42 -40.88,-91.29 -91.29,-91.29"
         style="fill:#3870c0;fill-opacity:1;fill-rule:nonzero;stroke:none"
         id="path144" /><path
         d="m 3234.43,3513.43 v -39.25 h -45.22 v -51.49 h 45.22 v -128.84 h 55.67 v 128.84 h 41.51 l 7.9,51.49 h -49.41 v 33.41 c 0,14.09 6.9,27.82 29.03,27.82 h 22.46 v 43.84 c 0,0 -20.38,3.48 -39.87,3.48 -40.69,0 -67.29,-24.66 -67.29,-69.3"
         style="fill:#ffffff;fill-opacity:1;fill-rule:nonzero;stroke:none"
         id="path146" /><path
         d="m 3351.31,1097.95 h -178.08 c -50.42,0 -91.29,40.86 -91.29,91.28 v 178.09 c 0,50.41 40.87,91.28 91.29,91.28 h 178.08 c 50.41,0 91.29,-40.87 91.29,-91.28 v -178.09 c 0,-50.42 -40.88,-91.28 -91.29,-91.28"
         style="fill:#040606;fill-opacity:1;fill-rule:nonzero;stroke:none"
         id="path148" /><path
         d="m 3216.26,1212.79 c -4.12,5.4 -6.35,12.01 -6.34,18.81 0,17.16 13.91,31.06 31.08,31.06 3.2,0 6.38,-0.49 9.43,-1.45 v 37.57 c -3.56,0.47 -7.16,0.69 -10.75,0.61 v -29.24 c -3.05,0.97 -6.24,1.46 -9.44,1.46 -17.16,0 -31.08,-13.91 -31.08,-31.07 0,-12.13 6.96,-22.63 17.1,-27.75 z m 106.07,130.75 c -7.38,8.06 -12.22,18.47 -13.27,29.98 v 4.73 h -10.2 c 2.57,-14.64 11.32,-27.14 23.47,-34.71 z m -13.27,-37.07 c 14.44,-10.31 32.12,-16.39 51.22,-16.39 v 36.74 c -3.61,0 -7.21,0.38 -10.75,1.13 v -28.92 c -19.1,0 -36.79,6.07 -51.23,16.39 v -74.98 c 0,-37.51 -30.42,-67.91 -67.95,-67.91 -14,0 -27.01,4.22 -37.83,11.48 12.34,-12.61 29.55,-20.43 48.59,-20.43 37.52,0 67.95,30.4 67.95,67.91 v 74.98 0"
         style="fill:#ee2659;fill-opacity:1;fill-rule:evenodd;stroke:none"
         id="path150" /><path
         d="m 3298.3,1315.42 c 14.44,-10.32 32.13,-16.39 51.23,-16.39 v 28.92 c -10.66,2.27 -20.11,7.84 -27.2,15.59 -12.15,7.57 -20.9,20.07 -23.47,34.71 h -26.77 v -146.76 c -0.07,-17.1 -13.96,-30.96 -31.09,-30.96 -10.1,0 -19.06,4.82 -24.74,12.26 -10.14,5.12 -17.1,15.62 -17.1,27.75 0,17.16 13.92,31.07 31.08,31.07 3.29,0 6.46,-0.51 9.43,-1.46 v 29.24 c -36.86,-0.76 -66.51,-30.87 -66.51,-67.9 0,-18.49 7.38,-35.23 19.36,-47.48 10.82,-7.26 23.83,-11.48 37.83,-11.48 37.53,0 67.95,30.4 67.95,67.91 v 74.98"
         style="fill:#ffffff;fill-opacity:1;fill-rule:evenodd;stroke:none"
         id="path152" /><path
         d="m 3239.68,1299.39 v 8.32 c -3.09,0.43 -6.21,0.64 -9.33,0.64 -37.53,0 -67.95,-30.4 -67.95,-67.91 0,-23.52 11.96,-44.24 30.12,-56.43 -11.98,12.25 -19.36,29 -19.36,47.48 0,37.03 29.65,67.14 66.52,67.9 z m 59.18,78.86 c -0.24,1.39 -0.43,2.8 -0.56,4.22 v 4.71 h -36.98 v -146.74 c -0.06,-17.11 -13.95,-30.96 -31.08,-30.96 -5.03,0 -9.78,1.19 -13.98,3.31 5.68,-7.44 14.64,-12.26 24.74,-12.26 17.13,0 31.02,13.86 31.09,30.96 v 146.76 z m 50.67,-50.3 v 7.83 c -9.62,-0.02 -19.04,2.67 -27.2,7.76 7.22,-7.9 16.73,-13.35 27.2,-15.59"
         style="fill:#47c1be;fill-opacity:1;fill-rule:evenodd;stroke:none"
         id="path154" /><path
         d="m 3351.31,1646.93 h -178.08 c -50.42,0 -91.29,40.87 -91.29,91.28 v 178.08 c 0,50.41 40.87,91.28 91.29,91.28 h 178.08 c 50.41,0 91.29,-40.87 91.29,-91.28 v -178.08 c 0,-50.41 -40.88,-91.28 -91.29,-91.28"
         style="fill:#ef2f36;fill-opacity:1;fill-rule:nonzero;stroke:none"
         id="path156" /><path
         d="m 3281.06,1946.02 c -48.71,5.52 -102.06,-12.66 -130.74,-57.66 -25.89,-40.59 -20.29,-88.55 -0.71,-112.8 5.75,-7.13 12.83,-12.55 21.33,-15.97 4.33,-1.77 7.93,-0.21 9.11,4.08 1.6,5.76 2.91,11.59 4.4,17.39 0.97,3.73 -1.29,5.98 -4.22,9.66 -23.05,28.92 -11.44,92.23 39.62,115.84 44.55,20.61 114.76,6.78 118.55,-57.26 1.92,-32.11 -8.18,-77.42 -34.25,-96.32 -28.26,-20.5 -61.31,-0.54 -54.23,27.54 8.55,34.05 19.69,57.07 15.48,74.67 -6.84,28.46 -45.93,25.81 -56.81,-8.67 -5.03,-15.97 -3.89,-31.72 1.86,-47.25 0.52,-1.38 0.91,-2.67 0.56,-4.22 -24.04,-101.09 -26.34,-117.28 -26.97,-135.92 -0.13,-4.09 -0.01,-8.15 0.14,-12.2 h 28.8 c 11.01,20.77 12.7,41.12 24.16,86.02 0.2,0.79 0.45,1.58 0.73,2.5 1.87,-2.31 3.4,-4.58 5.31,-6.51 24.82,-25.25 78.59,-22.53 111.77,18.61 28.83,35.81 31.1,86.47 27.96,107.01 -6.89,45.09 -43.67,84.85 -101.85,91.46"
         style="fill:#ffffff;fill-opacity:1;fill-rule:nonzero;stroke:none"
         id="path158" /><path
         d="m 3351.31,548.969 h -178.08 c -50.42,0 -91.29,40.871 -91.29,91.293 v 178.09 c 0,50.41 40.87,91.277 91.29,91.277 h 178.08 c 50.41,0 91.29,-40.867 91.29,-91.277 v -178.09 c 0,-50.422 -40.88,-91.293 -91.29,-91.293"
         style="fill:#19ae5b;fill-opacity:1;fill-rule:nonzero;stroke:none"
         id="path160" /><path
         d="m 3224.5,661.109 3.5,-2.089 c 12.88,-7.68 27.53,-11.739 42.36,-11.739 45.75,0 82.98,37.231 82.98,82.981 0,45.758 -37.23,82.976 -82.98,82.976 -45.75,0 -82.97,-37.218 -82.97,-82.976 0,-15.114 4.19,-29.981 12.13,-43.024 l 2.16,-3.527 -8.3,-30.941 z m -58.47,-35.679 14.85,55.41 c -8.41,15.172 -12.83,32.16 -12.83,49.422 0,56.418 45.9,102.316 102.31,102.316 56.42,0 102.32,-45.898 102.32,-102.316 0,-56.422 -45.9,-102.313 -102.32,-102.313 -16.94,0 -33.66,4.27 -48.63,12.403 l -55.7,-14.922"
         style="fill:#ffffff;fill-opacity:1;fill-rule:nonzero;stroke:none"
         id="path162" /><path
         d="m 3308.42,716.031 c -4.21,2.52 -9.69,5.328 -14.65,3.297 -3.8,-1.547 -6.24,-7.508 -8.7,-10.547 -1.27,-1.57 -2.78,-1.812 -4.72,-1.019 -14.29,5.679 -25.24,15.218 -33.12,28.367 -1.34,2.039 -1.1,3.652 0.51,5.551 2.39,2.8 5.38,5.98 6.02,9.761 0.64,3.778 -1.13,8.188 -2.69,11.559 -2,4.301 -4.23,10.43 -8.54,12.871 -3.96,2.231 -9.17,0.981 -12.7,-1.891 -6.09,-4.96 -9.03,-12.718 -8.94,-20.429 0.03,-2.192 0.3,-4.371 0.8,-6.481 1.24,-5.082 3.58,-9.82 6.23,-14.332 1.99,-3.41 4.15,-6.699 6.49,-9.867 7.64,-10.383 17.15,-19.41 28.15,-26.16 5.51,-3.359 11.43,-6.313 17.57,-8.34 6.88,-2.281 13.01,-4.641 20.44,-3.23 7.78,1.48 15.45,6.289 18.53,13.781 0.91,2.226 1.37,4.699 0.86,7.039 -1.05,4.848 -7.62,7.73 -11.54,10.07"
         style="fill:#ffffff;fill-opacity:1;fill-rule:evenodd;stroke:none"
         id="path164" /><path
         d="m 3351.31,0 h -178.08 c -50.42,0 -91.29,40.8711 -91.29,91.2891 V 269.359 c 0,50.422 40.87,91.289 91.29,91.289 h 178.08 c 50.41,0 91.29,-40.867 91.29,-91.289 V 91.2891 C 3442.6,40.8711 3401.72,0 3351.31,0"
         style="fill:#ef2f36;fill-opacity:1;fill-rule:nonzero;stroke:none"
         id="path166" /><path
         d="m 3293.31,172.82 -49.05,-24.269 c -1.92,-1.031 -8.45,0.347 -8.45,2.539 v 49.808 c 0,2.211 6.58,3.614 8.51,2.5 l 46.95,-25.527 c 1.97,-1.133 4.03,-3.98 2.04,-5.051 z m 64.33,29.27 c 0,23.621 -19.15,42.769 -42.78,42.769 h -109.38 c -23.62,0 -42.77,-19.148 -42.77,-42.769 v -50.91 c 0,-23.629 19.15,-42.782 42.77,-42.782 h 109.38 c 23.63,0 42.78,19.153 42.78,42.782 v 50.91"
         style="fill:#ffffff;fill-opacity:1;fill-rule:nonzero;stroke:none"
         id="path168" /><g
         id="g170"><g
           id="g172"
           clip-path="url(#clipPath176)"><path
             d="m 2719.13,3039.72 c -11.53,0 -20.89,-9.35 -20.89,-20.88 0,-11.54 9.36,-20.89 20.89,-20.89 11.53,0 20.88,9.35 20.88,20.89 0,11.53 -9.35,20.88 -20.88,20.88"
             style="fill:url(#linearGradient192);fill-opacity:1;fill-rule:nonzero;stroke:none"
             id="path194" /></g></g><g
         id="g196"><g
           id="g198"
           clip-path="url(#clipPath202)"><path
             d="m 2626.27,2869 c -30.99,0 -56.2,25.21 -56.2,56.21 0,30.98 25.21,56.19 56.2,56.19 31,0 56.21,-25.21 56.21,-56.19 0,-31 -25.21,-56.21 -56.21,-56.21 z m 0,143.94 c -48.37,0 -87.73,-39.36 -87.73,-87.73 0,-48.38 39.36,-87.74 87.73,-87.74 48.38,0 87.74,39.36 87.74,87.74 0,48.37 -39.36,87.73 -87.74,87.73"
             style="fill:url(#linearGradient218);fill-opacity:1;fill-rule:nonzero;stroke:none"
             id="path220" /></g></g><g
         id="g222"><g
           id="g224"
           clip-path="url(#clipPath228)"><path
             d="m 2553.69,3069.82 c -40.53,0 -73.49,-32.97 -73.49,-73.5 v -142.24 c 0,-40.52 32.96,-73.49 73.49,-73.49 h 142.24 c 40.53,0 73.49,32.97 73.49,73.49 v 142.24 c 0,40.53 -32.96,73.5 -73.49,73.5 z m 142.24,-322.75 h -142.24 c -59,0 -107,48.01 -107,107.01 v 142.24 c 0,59.01 48,107.02 107,107.02 h 142.24 c 59,0 107.01,-48.01 107.01,-107.02 v -142.24 c 0,-59 -48.01,-107.01 -107.01,-107.01"
             style="fill:url(#linearGradient244);fill-opacity:1;fill-rule:nonzero;stroke:none"
             id="path246" /></g></g><path
         d="m 2707.72,3452.65 9.88,64.48 h -61.86 v 41.84 c 0,17.64 8.65,34.83 36.36,34.83 h 28.12 v 54.89 c 0,0 -25.53,4.36 -49.93,4.36 -50.95,0 -84.25,-30.88 -84.25,-86.78 v -49.14 h -56.64 v -64.48 h 56.64 v -155.86 h 69.7 v 155.86 h 51.98"
         style="fill:#3870c0;fill-opacity:1;fill-rule:nonzero;stroke:none"
         id="path248" /><path
         d="m 2839.46,2510.91 c -13.74,-6.21 -28.95,-9.98 -43.78,-12.48 7.04,1.19 17.38,13.93 21.53,19.09 6.32,7.86 11.57,16.82 14.52,26.49 0.39,0.76 0.67,1.71 -0.09,2.28 -0.95,0.38 -1.56,0.18 -2.32,-0.2 -16.55,-8.87 -33.68,-15.3 -51.9,-19.85 -1.51,-0.38 -2.63,0 -3.59,0.94 -1.51,1.71 -2.92,3.31 -4.53,4.64 -7.66,6.52 -15.87,11.63 -25.14,15.41 -12.16,4.95 -25.46,7.05 -38.56,6.21 -12.75,-0.83 -25.27,-4.43 -36.58,-10.33 -11.34,-5.93 -21.46,-14.17 -29.51,-24.12 -8.33,-10.28 -14.48,-22.42 -17.62,-35.29 -3.04,-12.42 -2.79,-24.71 -0.94,-37.26 0.28,-2.09 0.1,-2.37 -1.79,-2.09 -71.28,10.61 -130.37,36.11 -178.33,90.77 -2.08,2.37 -3.21,2.37 -4.92,-0.18 -20.99,-31.46 -10.81,-82 15.41,-106.85 3.5,-3.31 7.09,-6.62 10.96,-9.64 -1.41,-0.29 -18.86,1.6 -34.41,9.64 -2.08,1.32 -3.13,0.57 -3.31,-1.8 -0.19,-3.4 0.09,-6.53 0.57,-10.21 4.02,-31.89 26.11,-61.39 56.35,-72.9 3.6,-1.51 7.57,-2.84 11.44,-3.5 -6.89,-1.51 -13.99,-2.59 -33.75,-1.04 -2.46,0.47 -3.4,-0.76 -2.46,-3.12 14.85,-40.48 46.9,-52.53 70.91,-59.38 3.22,-0.57 6.43,-0.57 9.66,-1.32 -0.2,-0.29 -0.39,-0.29 -0.58,-0.57 -7.96,-12.14 -35.57,-21.17 -48.43,-25.67 -23.38,-8.17 -48.84,-11.85 -73.55,-9.41 -3.95,0.58 -4.78,0.53 -5.86,0 -1.08,-0.67 -0.13,-1.62 1.14,-2.64 5.02,-3.32 10.12,-6.25 15.32,-9.09 15.69,-8.31 32.05,-14.94 49.16,-19.67 88.36,-24.4 187.89,-6.47 254.24,59.45 52.1,51.77 70.36,123.15 70.36,194.63 0,2.79 3.3,4.34 5.26,5.82 13.56,10.18 24.49,22.37 34.61,35.98 2.26,3.05 2.29,5.77 2.29,6.89 0,0.19 0,0.37 0,0.37 0,1.15 -0.03,0.8 -1.78,0"
         style="fill:#2fbbe1;fill-opacity:1;fill-rule:nonzero;stroke:none"
         id="path250" /><path
         d="m 2602.23,1771.51 c -0.3,-1.03 -0.58,-1.89 -0.8,-2.74 -13.08,-51.28 -14.54,-62.67 -27.99,-86.48 -6.41,-11.31 -13.63,-22.03 -21.62,-32.29 -0.91,-1.17 -1.75,-2.67 -3.55,-2.3 -1.98,0.42 -2.13,2.2 -2.34,3.77 -2.16,15.58 -3.34,31.2 -2.82,46.93 0.67,20.49 3.21,27.52 29.62,138.6 0.39,1.69 -0.05,3.09 -0.62,4.63 -6.31,17.05 -7.56,34.36 -2.05,51.9 11.96,37.88 54.91,40.79 62.42,9.53 4.62,-19.33 -7.61,-44.64 -17.01,-82.03 -7.78,-30.86 28.54,-52.79 59.59,-30.26 28.63,20.76 39.74,70.54 37.63,105.83 -4.17,70.34 -81.3,85.54 -130.24,62.89 -56.11,-25.94 -68.86,-95.49 -43.53,-127.27 3.21,-4.04 5.68,-6.51 4.63,-10.61 -1.64,-6.36 -3.08,-12.78 -4.83,-19.1 -1.31,-4.71 -5.26,-6.43 -10.02,-4.5 -9.33,3.78 -17.11,9.74 -23.42,17.56 -21.52,26.64 -27.67,79.33 0.77,123.94 31.51,49.42 90.13,69.4 143.64,63.34 63.92,-7.27 104.32,-50.94 111.89,-100.48 3.44,-22.58 0.96,-78.23 -30.72,-117.56 -36.45,-45.2 -95.53,-48.2 -122.79,-20.46 -2.1,2.13 -3.78,4.62 -5.84,7.16"
         style="fill:#ef2f36;fill-opacity:1;fill-rule:evenodd;stroke:none"
         id="path252" /><path
         d="m 2547.67,609.59 6.03,-3.602 c 22.15,-13.187 47.34,-20.168 72.84,-20.168 78.69,0 142.71,64.008 142.71,142.7 0,78.679 -64.02,142.699 -142.71,142.699 -78.67,0 -142.69,-64.02 -142.69,-142.699 0,-25.981 7.21,-51.559 20.87,-73.981 l 3.7,-6.09 -14.26,-53.199 z m -100.55,-61.371 25.54,95.293 c -14.46,26.097 -22.07,55.328 -22.07,85.008 0,97.019 78.94,175.96 175.95,175.96 97.03,0 175.97,-78.941 175.97,-175.96 0,-97.032 -78.94,-175.969 -175.97,-175.969 -29.12,0 -57.89,7.359 -83.63,21.32 l -95.79,-25.652"
         style="fill:#19ae5b;fill-opacity:1;fill-rule:nonzero;stroke:none"
         id="path254" /><path
         d="m 2692,704.051 c -7.24,4.328 -16.66,9.168 -25.19,5.668 -6.55,-2.668 -10.73,-12.918 -14.97,-18.149 -2.18,-2.691 -4.77,-3.109 -8.12,-1.761 -24.57,9.793 -43.4,26.191 -56.96,48.793 -2.29,3.519 -1.88,6.277 0.89,9.539 4.09,4.82 9.24,10.289 10.34,16.8 1.11,6.489 -1.94,14.098 -4.63,19.879 -3.43,7.399 -7.27,17.942 -14.67,22.129 -6.81,3.852 -15.78,1.692 -21.85,-3.25 -10.47,-8.527 -15.52,-21.89 -15.37,-35.129 0.04,-3.769 0.51,-7.519 1.38,-11.148 2.12,-8.742 6.15,-16.902 10.7,-24.652 3.42,-5.852 7.15,-11.52 11.16,-16.969 13.15,-17.86 29.5,-33.371 48.43,-44.973 9.46,-5.789 19.65,-10.867 30.2,-14.359 11.83,-3.918 22.37,-7.981 35.15,-5.559 13.38,2.539 26.57,10.82 31.88,23.719 1.57,3.812 2.35,8.062 1.48,12.09 -1.82,8.34 -13.1,13.301 -19.85,17.332"
         style="fill:#19ae5b;fill-opacity:1;fill-rule:evenodd;stroke:none"
         id="path256" /><path
         d="m 2686.35,169.551 -91.08,-45.071 c -3.58,-1.929 -15.71,0.649 -15.71,4.719 v 92.512 c 0,4.109 12.24,6.68 15.81,4.648 l 87.19,-47.437 c 3.66,-2.082 7.49,-7.371 3.79,-9.371 z m 119.47,54.34 c 0,43.879 -35.57,79.449 -79.44,79.449 h -203.13 c -43.87,0 -79.44,-35.57 -79.44,-79.449 v -94.52 c 0,-43.8827 35.57,-79.4413 79.44,-79.4413 h 203.13 c 43.87,0 79.44,35.5586 79.44,79.4413 v 94.52"
         style="fill:#ef2f36;fill-opacity:1;fill-rule:nonzero;stroke:none"
         id="path258" /><path
         d="m 2549.9,1172.07 c -6.84,8.97 -10.54,19.95 -10.53,31.25 0,28.49 23.12,51.61 51.65,51.61 5.31,0 10.59,-0.81 15.66,-2.42 v 62.41 c -5.92,0.81 -11.89,1.15 -17.87,1.02 v -48.57 c -5.07,1.61 -10.35,2.42 -15.67,2.42 -28.53,0 -51.65,-23.11 -51.65,-51.62 0,-20.16 11.56,-37.61 28.41,-46.1 z m 176.24,217.23 c -12.26,13.38 -20.31,30.69 -22.05,49.82 v 7.85 h -16.94 c 4.27,-24.31 18.81,-45.08 38.99,-57.67 z m -22.05,-61.59 c 23.99,-17.14 53.38,-27.23 85.12,-27.23 v 61.06 c -6.01,-0.01 -12,0.62 -17.88,1.86 v -48.05 c -31.73,0 -61.12,10.09 -85.11,27.22 v -124.58 c 0,-62.31 -50.55,-112.83 -112.9,-112.83 -23.26,0 -44.89,7.02 -62.85,19.08 20.5,-20.94 49.09,-33.94 80.72,-33.94 62.36,0 112.9,50.52 112.9,112.83 v 124.58 0"
         style="fill:#ee2659;fill-opacity:1;fill-rule:evenodd;stroke:none"
         id="path260" /><path
         d="m 2686.22,1342.57 c 23.99,-17.13 53.38,-27.22 85.11,-27.22 v 48.05 c -17.72,3.77 -33.4,13.03 -45.19,25.9 -20.18,12.59 -34.72,33.36 -38.99,57.67 h -44.49 v -243.83 c -0.11,-28.43 -23.19,-51.44 -51.65,-51.44 -16.77,0 -31.67,7.98 -41.11,20.37 -16.85,8.49 -28.41,25.94 -28.41,46.1 0,28.51 23.12,51.62 51.65,51.62 5.46,0 10.73,-0.85 15.67,-2.42 v 48.57 c -61.26,-1.26 -110.52,-51.29 -110.52,-112.81 0,-30.7 12.27,-58.54 32.18,-78.89 17.96,-12.06 39.59,-19.09 62.85,-19.09 62.35,0 112.9,50.53 112.9,112.84 v 124.58"
         style="fill:#040606;fill-opacity:1;fill-rule:evenodd;stroke:none"
         id="path262" /><path
         d="m 2588.81,1315.94 v 13.84 c -5.13,0.7 -10.31,1.06 -15.49,1.05 -62.35,0 -112.9,-50.52 -112.9,-112.84 0,-39.06 19.86,-73.49 50.05,-93.75 -19.91,20.35 -32.17,48.19 -32.17,78.9 0,61.51 49.25,111.54 110.51,112.8 z m 98.34,131.03 c -0.41,2.32 -0.72,4.66 -0.93,7 v 7.86 h -61.44 v -243.84 c -0.1,-28.41 -23.18,-51.43 -51.64,-51.43 -8.36,0 -16.25,1.98 -23.24,5.51 9.44,-12.39 24.34,-20.37 41.11,-20.37 28.46,0 51.54,23.01 51.65,51.44 v 243.83 z m 84.18,-83.57 v 13 c -15.97,-0.03 -31.64,4.45 -45.19,12.9 12,-13.12 27.8,-22.19 45.19,-25.9"
         style="fill:#47c1be;fill-opacity:1;fill-rule:evenodd;stroke:none"
         id="path264" /><path
         d="m 4820.21,3327.88 h -225.5 v 106.5 c 0,12.93 10.52,23.45 23.45,23.45 h 178.59 c 12.94,0 23.46,-10.52 23.46,-23.45 z m -177.73,228.51 c 0,35.83 29.15,64.98 64.98,64.98 35.82,0 64.97,-29.15 64.97,-64.98 0,-35.82 -29.15,-64.97 -64.97,-64.97 -35.83,0 -64.98,29.15 -64.98,64.97 z m 154.27,-64.97 h -15.25 c 15.26,17.35 24.52,40.1 24.52,64.97 0,54.35 -44.21,98.56 -98.56,98.56 -54.34,0 -98.56,-44.21 -98.56,-98.56 0,-24.87 9.26,-47.62 24.51,-64.97 h -15.25 c -31.45,0 -57.04,-25.6 -57.04,-57.04 V 3294.3 h 292.67 v 140.08 c 0,31.44 -25.59,57.04 -57.04,57.04"
         style="fill:#040606;fill-opacity:1;fill-rule:nonzero;stroke:none"
         id="path266" /><path
         d="m 4839.89,2214 h -264.87 v 129.96 h 264.87 z m -132.43,309.71 138,-146.17 h -276.01 z m 215.89,-179.75 -215.89,228.67 -215.9,-228.67 h 49.88 v -163.54 h 332.04 v 163.54 h 49.87"
         style="fill:#040606;fill-opacity:1;fill-rule:nonzero;stroke:none"
         id="path268" /><path
         d="m 4560.71,1718.4 v 196.94 l 146.75,-167.3 146.74,167.3 V 1718.4 Z m 267.43,218.15 -120.68,-137.58 -120.67,137.58 z m -301.01,33.58 v -285.31 h 360.65 v 285.31 h -360.65"
         style="fill:#040606;fill-opacity:1;fill-rule:nonzero;stroke:none"
         id="path270" /><path
         d="m 4626.38,1403.8 177.65,-128.77 -177.11,-90.64 z m 241.7,-133.71 -275.45,199.65 0.85,-340.19 122.36,62.62 53.76,-105.06 29.9,15.29 -53.77,105.07 122.35,62.62"
         style="fill:#040606;fill-opacity:1;fill-rule:nonzero;stroke:none"
         id="path272" /><path
         d="m 4707.46,596.199 c -38.22,43.563 -106.63,130.871 -106.63,175.91 0,58.782 47.83,106.621 106.63,106.621 58.79,0 106.62,-47.839 106.62,-106.621 0,-45.039 -68.41,-132.347 -106.62,-175.91 z m 0,316.11 c -77.31,0 -140.21,-62.891 -140.21,-140.2 0,-72.668 114.81,-198.339 127.91,-212.441 l 12.3,-13.238 12.3,13.238 c 13.09,14.102 127.91,139.773 127.91,212.441 0,77.309 -62.9,140.2 -140.21,140.2"
         style="fill:#040606;fill-opacity:1;fill-rule:nonzero;stroke:none"
         id="path274" /><path
         d="m 4707.46,745.918 c -17.7,0 -32.11,14.402 -32.11,32.102 0,17.71 14.41,32.109 32.11,32.109 17.7,0 32.1,-14.399 32.1,-32.109 0,-17.7 -14.4,-32.102 -32.1,-32.102 z m 0,97.801 c -36.22,0 -65.69,-29.481 -65.69,-65.699 0,-36.219 29.47,-65.68 65.69,-65.68 36.22,0 65.68,29.461 65.68,65.68 0,36.218 -29.46,65.699 -65.68,65.699"
         style="fill:#040606;fill-opacity:1;fill-rule:nonzero;stroke:none"
         id="path276" /><path
         d="m 4760.02,43.3203 c 15.05,30.9492 23.57,74.9887 25.26,120.2107 h 67.96 c -6.3,-55.07 -43.2,-100.9724 -93.22,-120.2107 z M 4561.67,163.531 h 67.96 c 1.69,-45.222 10.21,-89.2615 25.26,-120.2107 -50.02,19.25 -86.92,65.1487 -93.22,120.2107 z m 93.22,153.797 c -15.05,-30.957 -23.57,-74.988 -25.26,-120.207 h -67.96 c 6.3,55.059 43.2,100.957 93.22,120.207 z m 8.32,-120.207 c 3.21,84.238 30.04,129.949 44.25,129.949 14.2,0 41.04,-45.711 44.24,-129.949 z m 44.25,-163.539 c -14.21,0 -41.04,45.7071 -44.25,129.949 h 88.49 C 4748.5,79.2891 4721.66,33.582 4707.46,33.582 Z m 145.78,163.539 h -67.96 c -1.69,45.219 -10.21,89.25 -25.26,120.219 50.02,-19.262 86.92,-65.16 93.22,-120.219 z m 33.77,0 c -8.5,91.59 -85.78,163.527 -179.55,163.527 -93.78,0 -171.05,-71.937 -179.55,-163.527 h -0.78 v -33.59 h 0.78 C 4536.41,71.9414 4613.68,0 4707.46,0 c 93.77,0 171.05,71.9414 179.55,163.531 h 0.77 v 33.59 h -0.77"
         style="fill:#040606;fill-opacity:1;fill-rule:nonzero;stroke:none"
         id="path278" /><path
         d="m 4613.45,2833.15 c -63.33,63.33 -67.51,162.81 -11.31,230.9 l 67.54,-67.53 -40.72,-40.72 c -6.3,-6.3 -9.77,-14.67 -9.77,-23.57 0,-8.9 3.47,-17.28 9.77,-23.57 l 60,-60 c 6.28,-6.3 14.66,-9.76 23.56,-9.76 8.91,0 17.28,3.46 23.56,9.76 l 40.74,40.72 67.53,-67.54 c -68.1,-56.19 -167.59,-52.01 -230.9,11.31 z m 262.21,4.87 -98.84,98.86 -64.3,-64.29 -59.81,59.46 64.46,64.47 -98.85,98.84 c -4.5,4.51 -10.82,7.18 -17.12,6.92 -6.34,-0.12 -12.43,-2.83 -16.72,-7.44 -75.74,-81.39 -73.45,-206.77 5.22,-285.43 40.29,-40.3 92.83,-60.56 145.44,-60.56 50.11,0 100.29,18.39 140,55.34 4.61,4.29 7.32,10.38 7.43,16.7 0.12,6.39 -2.4,12.63 -6.91,17.13"
         style="fill:#040606;fill-opacity:1;fill-rule:nonzero;stroke:none"
         id="path280" /><path
         d="m 5425.53,3573.92 c 0,-40.53 -32.84,-73.37 -73.37,-73.37 -40.52,0 -73.37,32.84 -73.37,73.37 0,40.52 32.85,73.37 73.37,73.37 40.53,0 73.37,-32.85 73.37,-73.37"
         style="fill:#040606;fill-opacity:1;fill-rule:nonzero;stroke:none"
         id="path282" /><path
         d="m 5441.46,3466.96 h -178.6 c -22.22,0 -40.24,-18.02 -40.24,-40.25 v -124.75 h 259.08 v 124.75 c 0,22.23 -18.02,40.25 -40.24,40.25"
         style="fill:#040606;fill-opacity:1;fill-rule:nonzero;stroke:none"
         id="path284" /><path
         d="M 5352.16,2552 5175.22,2364.58 H 5529.1 Z"
         style="fill:#040606;fill-opacity:1;fill-rule:nonzero;stroke:none"
         id="path286" /><path
         d="m 5202.93,2201.05 h 298.461 v 129.949 H 5202.93 Z"
         style="fill:#040606;fill-opacity:1;fill-rule:nonzero;stroke:none"
         id="path288" /><path
         d="m 5487.57,1953.35 h -270.82 l 135.41,-154.38 z"
         style="fill:#040606;fill-opacity:1;fill-rule:nonzero;stroke:none"
         id="path290" /><path
         d="m 5352.16,1748.04 -163.54,186.44 v -232.87 h 327.07 v 232.87 l -163.53,-186.44"
         style="fill:#040606;fill-opacity:1;fill-rule:nonzero;stroke:none"
         id="path292" /><path
         d="m 5352.16,725.191 c -27,0 -48.9,21.887 -48.9,48.899 0,27 21.9,48.89 48.9,48.89 27,0 48.9,-21.89 48.9,-48.89 0,-27.012 -21.9,-48.899 -48.9,-48.899 z m 0,166.387 c -68.17,0 -123.42,-55.258 -123.42,-123.41 0,-68.156 123.42,-201.008 123.42,-201.008 0,0 123.42,132.852 123.42,201.008 0,68.152 -55.26,123.41 -123.42,123.41"
         style="fill:#040606;fill-opacity:1;fill-rule:nonzero;stroke:none"
         id="path294" /><path
         d="m 5345.53,2860.39 -60,60 c -6.46,6.45 -6.46,16.93 0,23.39 l 52.6,52.59 -86.99,86.98 c -2.66,2.67 -7.09,2.67 -9.66,-0.1 -68.93,-74.06 -67.33,-190 4.79,-262.12 72.13,-72.13 188.07,-73.72 262.13,-4.8 2.76,2.58 2.76,7 0.1,9.67 l -86.99,86.98 -52.59,-52.59 c -6.46,-6.46 -16.93,-6.46 -23.39,0"
         style="fill:#040606;fill-opacity:1;fill-rule:nonzero;stroke:none"
         id="path296" /><path
         d="m 5382.89,1238.96 97.87,50.09 -226.55,164.21 0.69,-279.81 97.98,50.15 7.29,-14.22 7.6,-15.16 0.12,0.06 46.42,-90.69 29.89,15.29 -54.07,105.66 -7.24,14.42"
         style="fill:#040606;fill-opacity:1;fill-rule:nonzero;stroke:none"
         id="path298" /><path
         d="m 5352.16,327.07 c -14.21,0 -41.04,-45.711 -44.24,-129.949 h 88.49 c -3.21,84.238 -30.04,129.949 -44.25,129.949"
         style="fill:#040606;fill-opacity:1;fill-rule:nonzero;stroke:none"
         id="path300" /><path
         d="m 5307.92,163.531 c 3.2,-84.2419 30.03,-129.949 44.24,-129.949 14.21,0 41.04,45.7071 44.25,129.949 h -88.49"
         style="fill:#040606;fill-opacity:1;fill-rule:nonzero;stroke:none"
         id="path302" /><path
         d="m 5429.99,197.121 h 84.85 c -7.07,69.301 -57.42,125.809 -123.59,142.039 23.47,-29.301 36.59,-84.719 38.74,-142.039"
         style="fill:#040606;fill-opacity:1;fill-rule:nonzero;stroke:none"
         id="path304" /><path
         d="m 5274.34,197.121 c 2.14,57.32 15.26,112.738 38.73,142.039 -66.17,-16.23 -116.53,-72.73 -123.6,-142.039 h 84.87"
         style="fill:#040606;fill-opacity:1;fill-rule:nonzero;stroke:none"
         id="path306" /><path
         d="m 5429.99,163.531 c -2.15,-57.32 -15.27,-112.7419 -38.74,-142.0427 66.17,16.2305 116.52,72.7305 123.59,142.0427 h -84.85"
         style="fill:#040606;fill-opacity:1;fill-rule:nonzero;stroke:none"
         id="path308" /><path
         d="m 5274.34,163.531 h -84.87 c 7.07,-69.3122 57.43,-125.8122 123.61,-142.0427 -23.48,29.3008 -36.6,84.7227 -38.74,142.0427"
         style="fill:#040606;fill-opacity:1;fill-rule:nonzero;stroke:none"
         id="path310" /><path
         d="m 6081.89,3294.3 h -178.08 c -50.42,0 -91.29,40.87 -91.29,91.28 v 178.09 c 0,50.41 40.87,91.28 91.29,91.28 h 178.08 c 50.42,0 91.28,-40.87 91.28,-91.28 v -178.09 c 0,-50.41 -40.86,-91.28 -91.28,-91.28"
         style="fill:#040606;fill-opacity:1;fill-rule:nonzero;stroke:none"
         id="path312" /><path
         d="m 6046.05,3556.62 c 0,-29.38 -23.82,-53.2 -53.21,-53.2 -29.37,0 -53.19,23.82 -53.19,53.2 0,29.38 23.82,53.2 53.19,53.2 29.39,0 53.21,-23.82 53.21,-53.2"
         style="fill:#ffffff;fill-opacity:1;fill-rule:nonzero;stroke:none"
         id="path314" /><path
         d="M 6057.59,3479.07 H 5928.1 c -16.12,0 -29.18,-13.07 -29.18,-29.19 v -90.45 h 187.86 v 90.45 c 0,16.12 -13.07,29.19 -29.19,29.19"
         style="fill:#ffffff;fill-opacity:1;fill-rule:nonzero;stroke:none"
         id="path316" /><path
         d="m 6081.89,2196.2 h -178.08 c -50.42,0 -91.29,40.87 -91.29,91.28 v 178.09 c 0,50.41 40.87,91.28 91.29,91.28 h 178.08 c 50.42,0 91.28,-40.87 91.28,-91.28 v -178.09 c 0,-50.41 -40.86,-91.28 -91.28,-91.28"
         style="fill:#040606;fill-opacity:1;fill-rule:nonzero;stroke:none"
         id="path318" /><path
         d="m 5992.84,2517.7 -128.3,-135.9 h 256.61 z"
         style="fill:#ffffff;fill-opacity:1;fill-rule:nonzero;stroke:none"
         id="path320" /><path
         d="m 5884.64,2263.22 h 216.418 v 94.2305 H 5884.64 Z"
         style="fill:#ffffff;fill-opacity:1;fill-rule:nonzero;stroke:none"
         id="path322" /><path
         d="m 6081.89,1647.14 h -178.08 c -50.42,0 -91.29,40.87 -91.29,91.29 v 178.09 c 0,50.41 40.87,91.28 91.29,91.28 h 178.08 c 50.42,0 91.28,-40.87 91.28,-91.28 v -178.09 c 0,-50.42 -40.86,-91.29 -91.28,-91.29"
         style="fill:#040606;fill-opacity:1;fill-rule:nonzero;stroke:none"
         id="path324" /><path
         d="m 6091.04,1918.74 h -196.38 l 98.19,-111.94 z"
         style="fill:#ffffff;fill-opacity:1;fill-rule:nonzero;stroke:none"
         id="path326" /><path
         d="m 5992.85,1769.88 -118.58,135.18 v -168.85 h 237.16 v 168.85 l -118.58,-135.18"
         style="fill:#ffffff;fill-opacity:1;fill-rule:nonzero;stroke:none"
         id="path328" /><path
         d="m 6081.89,549.051 h -178.08 c -50.42,0 -91.29,40.871 -91.29,91.277 V 818.41 c 0,50.418 40.87,91.289 91.29,91.289 h 178.08 c 50.42,0 91.28,-40.871 91.28,-91.289 V 640.328 c 0,-50.406 -40.86,-91.277 -91.28,-91.277"
         style="fill:#040606;fill-opacity:1;fill-rule:nonzero;stroke:none"
         id="path330" /><path
         d="m 5992.84,726.34 c -19.58,0 -35.45,15.871 -35.45,35.449 0,19.582 15.87,35.461 35.45,35.461 19.59,0 35.46,-15.879 35.46,-35.461 0,-19.578 -15.87,-35.449 -35.46,-35.449 z m 0,120.648 c -49.41,0 -89.48,-40.058 -89.48,-89.476 0,-49.434 89.48,-145.75 89.48,-145.75 0,0 89.49,96.316 89.49,145.75 0,49.418 -40.06,89.476 -89.49,89.476"
         style="fill:#ffffff;fill-opacity:1;fill-rule:nonzero;stroke:none"
         id="path332" /><path
         d="m 6081.89,2745.25 h -178.08 c -50.42,0 -91.29,40.87 -91.29,91.28 v 178.09 c 0,50.41 40.87,91.28 91.29,91.28 h 178.08 c 50.42,0 91.28,-40.87 91.28,-91.28 v -178.09 c 0,-50.41 -40.86,-91.28 -91.28,-91.28"
         style="fill:#040606;fill-opacity:1;fill-rule:nonzero;stroke:none"
         id="path334" /><path
         d="m 5989.08,2878.31 -43.5,43.5 c -4.69,4.68 -4.69,12.28 0,16.96 l 38.13,38.14 -63.06,63.07 c -1.94,1.93 -5.15,1.93 -7.02,-0.07 -49.97,-53.7 -48.81,-137.78 3.48,-190.07 52.29,-52.3 136.37,-53.45 190.07,-3.47 2,1.86 2,5.07 0.07,7 l -63.07,63.07 -38.13,-38.13 c -4.69,-4.69 -12.28,-4.69 -16.97,0"
         style="fill:#ffffff;fill-opacity:1;fill-rule:nonzero;stroke:none"
         id="path336" /><path
         d="m 6081.89,1098.1 h -178.08 c -50.42,0 -91.29,40.87 -91.29,91.28 v 178.09 c 0,50.41 40.87,91.29 91.29,91.29 h 178.08 c 50.42,0 91.28,-40.88 91.28,-91.29 v -178.09 c 0,-50.41 -40.86,-91.28 -91.28,-91.28"
         style="fill:#040606;fill-opacity:1;fill-rule:nonzero;stroke:none"
         id="path338" /><path
         d="m 6019,1249.81 70.97,36.32 -164.27,119.07 0.51,-202.89 71.05,36.37 5.27,-10.32 5.52,-10.99 0.09,0.04 33.65,-65.75 21.68,11.09 -39.21,76.6 -5.26,10.46"
         style="fill:#ffffff;fill-opacity:1;fill-rule:nonzero;stroke:none"
         id="path340" /><path
         d="m 6081.89,0 h -178.08 c -50.42,0 -91.29,40.8711 -91.29,91.2891 V 269.359 c 0,50.422 40.87,91.289 91.29,91.289 h 178.08 c 50.42,0 91.28,-40.867 91.28,-91.289 V 91.2891 C 6173.17,40.8711 6132.31,0 6081.89,0"
         style="fill:#040606;fill-opacity:1;fill-rule:nonzero;stroke:none"
         id="path342" /><path
         d="m 5992.85,286.73 c -10.3,0 -29.76,-33.14 -32.08,-94.218 h 64.15 c -2.31,61.078 -21.77,94.218 -32.07,94.218"
         style="fill:#ffffff;fill-opacity:1;fill-rule:nonzero;stroke:none"
         id="path344" /><path
         d="m 5960.77,168.148 c 2.32,-61.078 21.78,-94.2261 32.08,-94.2261 10.3,0 29.76,33.1481 32.07,94.2261 h -64.15"
         style="fill:#ffffff;fill-opacity:1;fill-rule:nonzero;stroke:none"
         id="path346" /><path
         d="m 6049.28,192.512 h 61.52 c -5.12,50.25 -41.63,91.218 -89.61,102.976 17.02,-21.25 26.54,-61.418 28.09,-102.976"
         style="fill:#ffffff;fill-opacity:1;fill-rule:nonzero;stroke:none"
         id="path348" /><path
         d="m 5936.42,192.512 c 1.55,41.558 11.06,81.726 28.08,102.976 -47.98,-11.758 -84.49,-52.726 -89.62,-102.976 h 61.54"
         style="fill:#ffffff;fill-opacity:1;fill-rule:nonzero;stroke:none"
         id="path350" /><path
         d="m 6049.28,168.148 c -1.55,-41.558 -11.07,-81.7496 -28.09,-102.9878 47.98,11.7695 84.49,52.7378 89.62,102.9878 h -61.53"
         style="fill:#ffffff;fill-opacity:1;fill-rule:nonzero;stroke:none"
         id="path352" /><path
         d="m 5936.42,168.148 h -61.54 c 5.13,-50.25 41.64,-91.23 89.62,-102.9996 -17.01,21.25 -26.53,61.4416 -28.08,102.9996"
         style="fill:#ffffff;fill-opacity:1;fill-rule:nonzero;stroke:none"
         id="path354" /><path
         d="M 7842.87,2195.9 H 7664.8 c -50.42,0 -91.29,40.87 -91.29,91.29 v 178.08 c 0,50.41 40.87,91.28 91.29,91.28 h 178.07 c 50.42,0 91.29,-40.87 91.29,-91.28 v -178.08 c 0,-50.42 -40.87,-91.29 -91.29,-91.29"
         style="fill:#040606;fill-opacity:1;fill-rule:nonzero;stroke:none"
         id="path356" /><path
         d="m 7852.26,2436.03 c -6.18,-2.79 -13,-4.48 -19.65,-5.6 3.15,0.53 7.79,6.25 9.66,8.56 2.84,3.54 5.19,7.55 6.52,11.89 0.17,0.35 0.29,0.77 -0.05,1.03 -0.42,0.17 -0.7,0.08 -1.03,-0.09 -7.44,-3.98 -15.12,-6.87 -23.31,-8.91 -0.67,-0.17 -1.18,0 -1.6,0.43 -0.68,0.76 -1.32,1.48 -2.04,2.08 -3.44,2.92 -7.12,5.22 -11.28,6.91 -5.46,2.23 -11.42,3.17 -17.3,2.79 -5.72,-0.37 -11.35,-1.99 -16.43,-4.64 -5.09,-2.66 -9.63,-6.36 -13.24,-10.82 -3.74,-4.62 -6.5,-10.06 -7.91,-15.84 -1.37,-5.58 -1.25,-11.09 -0.42,-16.73 0.13,-0.94 0.04,-1.06 -0.8,-0.94 -32,4.77 -58.52,16.21 -80.05,40.75 -0.94,1.06 -1.43,1.06 -2.21,-0.08 -9.42,-14.12 -4.85,-36.81 6.93,-47.96 1.56,-1.49 3.17,-2.98 4.91,-4.33 -0.64,-0.13 -8.47,0.72 -15.44,4.33 -0.94,0.59 -1.41,0.25 -1.49,-0.81 -0.08,-1.53 0.04,-2.93 0.25,-4.59 1.82,-14.31 11.73,-27.55 25.3,-32.72 1.61,-0.68 3.39,-1.27 5.13,-1.56 -3.09,-0.68 -6.28,-1.17 -15.15,-0.47 -1.1,0.21 -1.52,-0.35 -1.1,-1.4 6.67,-18.17 21.05,-23.58 31.83,-26.66 1.44,-0.25 2.89,-0.25 4.33,-0.59 -0.09,-0.13 -0.17,-0.13 -0.25,-0.25 -3.58,-5.45 -15.97,-9.51 -21.74,-11.52 -10.5,-3.68 -21.92,-5.33 -33.02,-4.23 -1.77,0.26 -2.15,0.24 -2.63,0 -0.48,-0.3 -0.05,-0.72 0.51,-1.18 2.26,-1.49 4.54,-2.81 6.88,-4.08 7.05,-3.74 14.39,-6.71 22.07,-8.83 39.66,-10.95 84.33,-2.9 114.11,26.68 23.38,23.23 31.58,55.28 31.58,87.36 0,1.25 1.49,1.95 2.36,2.61 6.09,4.57 10.99,10.04 15.53,16.15 1.03,1.37 1.03,2.59 1.03,3.1 0,0.08 0,0.16 0,0.16 0,0.51 0,0.36 -0.79,0"
         style="fill:#ffffff;fill-opacity:1;fill-rule:nonzero;stroke:none"
         id="path358" /><path
         d="M 7842.87,2744.88 H 7664.8 c -50.42,0 -91.29,40.87 -91.29,91.28 v 178.08 c 0,50.42 40.87,91.29 91.29,91.29 h 178.07 c 50.42,0 91.29,-40.87 91.29,-91.29 v -178.08 c 0,-50.41 -40.87,-91.28 -91.29,-91.28"
         style="fill:#040606;fill-opacity:1;fill-rule:nonzero;stroke:none"
         id="path360" /><path
         d="m 7809.13,2991.98 c -6.77,0 -12.24,-5.49 -12.24,-12.25 0,-6.76 5.47,-12.24 12.24,-12.24 6.76,0 12.24,5.48 12.24,12.24 0,6.76 -5.48,12.25 -12.24,12.25"
         style="fill:#ffffff;fill-opacity:1;fill-rule:nonzero;stroke:none"
         id="path362" /><path
         d="m 7754.69,2891.89 c -18.17,0 -32.95,14.78 -32.95,32.95 0,18.17 14.78,32.94 32.95,32.94 18.17,0 32.95,-14.77 32.95,-32.94 0,-18.17 -14.78,-32.95 -32.95,-32.95 z m 0,84.39 c -28.36,0 -51.44,-23.08 -51.44,-51.44 0,-28.36 23.08,-51.44 51.44,-51.44 28.36,0 51.43,23.08 51.43,51.44 0,28.36 -23.07,51.44 -51.43,51.44"
         style="fill:#ffffff;fill-opacity:1;fill-rule:nonzero;stroke:none"
         id="path364" /><path
         d="m 7712.14,3009.62 c -23.76,0 -43.09,-19.33 -43.09,-43.09 v -83.38 c 0,-23.76 19.33,-43.09 43.09,-43.09 h 83.39 c 23.76,0 43.08,19.33 43.08,43.09 v 83.38 c 0,23.76 -19.32,43.09 -43.08,43.09 z m 83.39,-189.21 h -83.39 c -34.59,0 -62.74,28.14 -62.74,62.74 v 83.38 c 0,34.59 28.15,62.74 62.74,62.74 h 83.39 c 34.59,0 62.73,-28.15 62.73,-62.74 v -83.38 c 0,-34.6 -28.14,-62.74 -62.73,-62.74"
         style="fill:#ffffff;fill-opacity:1;fill-rule:nonzero;stroke:none"
         id="path366" /><path
         d="m 7842.87,3293.85 h -61.14 l -27.89,9.22 -27.67,-9.22 h -61.37 c -50.42,0 -91.29,40.87 -91.29,91.29 v 178.08 c 0,50.42 40.87,91.29 91.29,91.29 h 178.07 c 50.42,0 91.29,-40.87 91.29,-91.29 v -178.08 c 0,-50.42 -40.87,-91.29 -91.29,-91.29"
         style="fill:#040606;fill-opacity:1;fill-rule:nonzero;stroke:none"
         id="path368" /><path
         d="m 7726,3513.43 v -39.25 h -45.23 v -51.49 H 7726 v -128.84 h 55.67 v 128.84 h 41.5 l 7.9,51.49 h -49.4 v 33.41 c 0,14.09 6.9,27.82 29.02,27.82 h 22.46 v 43.84 c 0,0 -20.38,3.48 -39.87,3.48 -40.68,0 -67.28,-24.66 -67.28,-69.3"
         style="fill:#ffffff;fill-opacity:1;fill-rule:nonzero;stroke:none"
         id="path370" /><path
         d="m 7842.87,1646.93 h -138.16 l -14.57,6.46 -14.45,-6.46 h -10.89 c -50.42,0 -91.29,40.87 -91.29,91.28 v 178.08 c 0,50.41 40.87,91.28 91.29,91.28 h 178.07 c 50.42,0 91.29,-40.87 91.29,-91.28 v -178.08 c 0,-50.41 -40.87,-91.28 -91.29,-91.28"
         style="fill:#040606;fill-opacity:1;fill-rule:nonzero;stroke:none"
         id="path372" /><path
         d="m 7772.63,1946.02 c -48.71,5.52 -102.06,-12.66 -130.74,-57.66 -25.89,-40.59 -20.3,-88.55 -0.71,-112.8 5.74,-7.13 12.82,-12.55 21.33,-15.97 4.33,-1.77 7.92,-0.21 9.11,4.08 1.59,5.76 2.91,11.59 4.4,17.39 0.96,3.73 -1.29,5.98 -4.22,9.66 -23.05,28.92 -11.45,92.23 39.62,115.84 44.55,20.61 114.76,6.78 118.55,-57.26 1.92,-32.11 -8.19,-77.42 -34.26,-96.32 -28.25,-20.5 -61.31,-0.54 -54.23,27.54 8.55,34.05 19.69,57.07 15.49,74.67 -6.84,28.46 -45.93,25.81 -56.81,-8.67 -5.03,-15.97 -3.89,-31.72 1.86,-47.25 0.52,-1.38 0.91,-2.67 0.56,-4.22 -24.04,-101.09 -26.35,-117.28 -26.97,-135.92 -0.13,-4.09 -0.01,-8.15 0.13,-12.2 h 28.81 c 11.01,20.77 12.7,41.12 24.15,86.02 0.21,0.79 0.46,1.58 0.73,2.5 1.87,-2.31 3.4,-4.58 5.32,-6.51 24.81,-25.25 78.59,-22.53 111.76,18.61 28.84,35.81 31.1,86.47 27.96,107.01 -6.88,45.09 -43.66,84.85 -101.84,91.46"
         style="fill:#ffffff;fill-opacity:1;fill-rule:nonzero;stroke:none"
         id="path374" /><path
         d="M 7842.87,548.969 H 7664.8 c -50.42,0 -91.29,40.871 -91.29,91.293 v 178.09 c 0,50.41 40.87,91.277 91.29,91.277 h 178.07 c 50.42,0 91.29,-40.867 91.29,-91.277 v -178.09 c 0,-50.422 -40.87,-91.293 -91.29,-91.293"
         style="fill:#040606;fill-opacity:1;fill-rule:nonzero;stroke:none"
         id="path376" /><path
         d="m 7716.07,661.109 3.5,-2.089 c 12.87,-7.68 27.52,-11.739 42.35,-11.739 45.76,0 82.98,37.231 82.98,82.981 0,45.758 -37.22,82.976 -82.98,82.976 -45.75,0 -82.96,-37.218 -82.96,-82.976 0,-15.114 4.19,-29.981 12.12,-43.024 l 2.16,-3.527 -8.29,-30.941 z m -58.48,-35.679 14.85,55.41 c -8.41,15.172 -12.83,32.16 -12.83,49.422 0,56.418 45.9,102.316 102.31,102.316 56.42,0 102.33,-45.898 102.33,-102.316 0,-56.422 -45.91,-102.313 -102.33,-102.313 -16.93,0 -33.66,4.27 -48.63,12.403 l -55.7,-14.922"
         style="fill:#ffffff;fill-opacity:1;fill-rule:nonzero;stroke:none"
         id="path378" /><path
         d="m 7799.99,716.031 c -4.21,2.52 -9.7,5.328 -14.66,3.297 -3.8,-1.547 -6.23,-7.508 -8.7,-10.547 -1.26,-1.57 -2.77,-1.812 -4.72,-1.019 -14.28,5.679 -25.23,15.218 -33.11,28.367 -1.34,2.039 -1.1,3.652 0.51,5.551 2.38,2.8 5.37,5.98 6.01,9.761 0.65,3.778 -1.12,8.188 -2.68,11.559 -2,4.301 -4.23,10.43 -8.54,12.871 -3.96,2.231 -9.18,0.981 -12.7,-1.891 -6.1,-4.96 -9.04,-12.718 -8.94,-20.429 0.02,-2.192 0.29,-4.371 0.8,-6.481 1.23,-5.082 3.58,-9.82 6.22,-14.332 2,-3.41 4.15,-6.699 6.5,-9.867 7.63,-10.383 17.15,-19.41 28.15,-26.16 5.5,-3.359 11.43,-6.313 17.56,-8.34 6.88,-2.281 13.01,-4.641 20.44,-3.23 7.78,1.48 15.45,6.289 18.53,13.781 0.92,2.226 1.38,4.699 0.86,7.039 -1.05,4.848 -7.61,7.73 -11.53,10.07"
         style="fill:#ffffff;fill-opacity:1;fill-rule:evenodd;stroke:none"
         id="path380" /><path
         d="M 7842.87,0 H 7664.8 c -50.42,0 -91.29,40.8711 -91.29,91.2891 V 269.359 c 0,50.422 40.87,91.289 91.29,91.289 h 178.07 c 50.42,0 91.29,-40.867 91.29,-91.289 V 91.2891 C 7934.16,40.8711 7893.29,0 7842.87,0"
         style="fill:#040606;fill-opacity:1;fill-rule:nonzero;stroke:none"
         id="path382" /><path
         d="m 7784.87,172.82 -49.04,-24.269 c -1.92,-1.031 -8.46,0.347 -8.46,2.539 v 49.808 c 0,2.211 6.59,3.614 8.51,2.5 l 46.95,-25.527 c 1.98,-1.133 4.04,-3.98 2.04,-5.051 z m 64.33,29.27 c 0,23.621 -19.15,42.769 -42.77,42.769 h -109.38 c -23.62,0 -42.77,-19.148 -42.77,-42.769 v -50.91 c 0,-23.629 19.15,-42.782 42.77,-42.782 h 109.38 c 23.62,0 42.77,19.153 42.77,42.782 v 50.91"
         style="fill:#ffffff;fill-opacity:1;fill-rule:nonzero;stroke:none"
         id="path384" /><path
         d="m 7210.69,3039.72 c -11.53,0 -20.88,-9.35 -20.88,-20.88 0,-11.54 9.35,-20.89 20.88,-20.89 11.54,0 20.89,9.35 20.89,20.89 0,11.53 -9.35,20.88 -20.89,20.88"
         style="fill:#040606;fill-opacity:1;fill-rule:nonzero;stroke:none"
         id="path386" /><path
         d="m 7117.84,2869 c -30.99,0 -56.2,25.21 -56.2,56.21 0,30.98 25.21,56.19 56.2,56.19 30.99,0 56.2,-25.21 56.2,-56.19 0,-31 -25.21,-56.21 -56.2,-56.21 z m 0,143.94 c -48.38,0 -87.73,-39.36 -87.73,-87.73 0,-48.38 39.35,-87.74 87.73,-87.74 48.38,0 87.74,39.36 87.74,87.74 0,48.37 -39.36,87.73 -87.74,87.73"
         style="fill:#040606;fill-opacity:1;fill-rule:nonzero;stroke:none"
         id="path388" /><path
         d="m 7045.25,3069.82 c -40.52,0 -73.48,-32.97 -73.48,-73.5 v -142.24 c 0,-40.52 32.96,-73.49 73.48,-73.49 h 142.24 c 40.53,0 73.51,32.97 73.51,73.49 v 142.24 c 0,40.53 -32.98,73.5 -73.51,73.5 z m 142.24,-322.75 h -142.24 c -59,0 -107,48.01 -107,107.01 v 142.24 c 0,59.01 48,107.02 107,107.02 h 142.24 c 59,0 107.02,-48.01 107.02,-107.02 v -142.24 c 0,-59 -48.02,-107.01 -107.02,-107.01"
         style="fill:#040606;fill-opacity:1;fill-rule:nonzero;stroke:none"
         id="path390" /><path
         d="m 7199.28,3452.65 9.89,64.48 h -61.86 v 41.84 c 0,17.64 8.64,34.83 36.35,34.83 h 28.13 v 54.89 c 0,0 -25.53,4.36 -49.93,4.36 -50.95,0 -84.25,-30.88 -84.25,-86.78 v -49.14 h -56.64 v -64.48 h 56.64 v -155.86 h 69.7 v 155.86 h 51.97"
         style="fill:#040606;fill-opacity:1;fill-rule:nonzero;stroke:none"
         id="path392" /><path
         d="m 7331.03,2510.91 c -13.74,-6.21 -28.95,-9.98 -43.78,-12.48 7.04,1.19 17.38,13.93 21.52,19.09 6.33,7.86 11.57,16.82 14.53,26.49 0.38,0.76 0.67,1.71 -0.1,2.28 -0.94,0.38 -1.56,0.18 -2.31,-0.2 -16.55,-8.87 -33.68,-15.3 -51.91,-19.85 -1.5,-0.38 -2.63,0 -3.58,0.94 -1.51,1.71 -2.93,3.31 -4.53,4.64 -7.67,6.52 -15.88,11.63 -25.15,15.41 -12.15,4.95 -25.46,7.05 -38.55,6.21 -12.76,-0.83 -25.27,-4.43 -36.58,-10.33 -11.34,-5.93 -21.46,-14.17 -29.52,-24.12 -8.33,-10.28 -14.47,-22.42 -17.62,-35.29 -3.03,-12.42 -2.79,-24.71 -0.93,-37.26 0.27,-2.09 0.09,-2.37 -1.8,-2.09 -71.28,10.61 -130.36,36.11 -178.33,90.77 -2.08,2.37 -3.21,2.37 -4.92,-0.18 -20.99,-31.46 -10.81,-82 15.42,-106.85 3.5,-3.31 7.09,-6.62 10.96,-9.64 -1.42,-0.29 -18.86,1.6 -34.42,9.64 -2.08,1.32 -3.12,0.57 -3.31,-1.8 -0.19,-3.4 0.1,-6.53 0.57,-10.21 4.02,-31.89 26.11,-61.39 56.36,-72.9 3.59,-1.51 7.57,-2.84 11.43,-3.5 -6.89,-1.51 -13.99,-2.59 -33.75,-1.04 -2.46,0.47 -3.4,-0.76 -2.46,-3.12 14.86,-40.48 46.91,-52.53 70.92,-59.38 3.21,-0.57 6.43,-0.57 9.65,-1.32 -0.2,-0.29 -0.39,-0.29 -0.58,-0.57 -7.96,-12.14 -35.56,-21.17 -48.43,-25.67 -23.37,-8.17 -48.83,-11.85 -73.54,-9.41 -3.96,0.58 -4.79,0.53 -5.86,0 -1.08,-0.67 -0.14,-1.62 1.13,-2.64 5.02,-3.32 10.12,-6.25 15.33,-9.09 15.69,-8.31 32.05,-14.94 49.16,-19.67 88.35,-24.4 187.89,-6.47 254.23,59.45 52.1,51.77 70.37,123.15 70.37,194.63 0,2.79 3.3,4.34 5.25,5.82 13.56,10.18 24.5,22.37 34.61,35.98 2.26,3.05 2.29,5.77 2.29,6.89 0,0.19 0,0.37 0,0.37 0,1.15 -0.03,0.8 -1.77,0"
         style="fill:#040606;fill-opacity:1;fill-rule:nonzero;stroke:none"
         id="path394" /><path
         d="m 7093.8,1771.51 c -0.3,-1.03 -0.59,-1.89 -0.81,-2.74 -13.08,-51.28 -14.53,-62.67 -27.98,-86.48 -6.42,-11.31 -13.64,-22.03 -21.63,-32.29 -0.9,-1.17 -1.75,-2.67 -3.55,-2.3 -1.97,0.42 -2.12,2.2 -2.34,3.77 -2.16,15.58 -3.34,31.2 -2.82,46.93 0.67,20.49 3.21,27.52 29.63,138.6 0.38,1.69 -0.05,3.09 -0.62,4.63 -6.32,17.05 -7.57,34.36 -2.05,51.9 11.95,37.88 54.9,40.79 62.41,9.53 4.63,-19.33 -7.6,-44.64 -17,-82.03 -7.78,-30.86 28.54,-52.79 59.58,-30.26 28.63,20.76 39.75,70.54 37.63,105.83 -4.16,70.34 -81.3,85.54 -130.24,62.89 -56.1,-25.94 -68.85,-95.49 -43.53,-127.27 3.21,-4.04 5.69,-6.51 4.63,-10.61 -1.63,-6.36 -3.07,-12.78 -4.83,-19.1 -1.3,-4.71 -5.25,-6.43 -10.02,-4.5 -9.33,3.78 -17.11,9.74 -23.41,17.56 -21.53,26.64 -27.68,79.33 0.77,123.94 31.51,49.42 90.12,69.4 143.64,63.34 63.92,-7.27 104.32,-50.94 111.89,-100.48 3.44,-22.58 0.96,-78.23 -30.73,-117.56 -36.44,-45.2 -95.52,-48.2 -122.78,-20.46 -2.11,2.13 -3.79,4.62 -5.84,7.16"
         style="fill:#040606;fill-opacity:1;fill-rule:evenodd;stroke:none"
         id="path396" /><path
         d="m 7039.24,609.59 6.02,-3.602 c 22.15,-13.187 47.34,-20.168 72.86,-20.168 78.68,0 142.69,64.008 142.69,142.7 0,78.679 -64.01,142.699 -142.69,142.699 -78.69,0 -142.71,-64.02 -142.71,-142.699 0,-25.981 7.22,-51.559 20.87,-73.981 l 3.7,-6.09 -14.26,-53.199 z m -100.56,-61.371 25.55,95.293 c -14.46,26.097 -22.08,55.328 -22.08,85.008 0,97.019 78.94,175.96 175.97,175.96 97.02,0 175.95,-78.941 175.95,-175.96 0,-97.032 -78.93,-175.969 -175.95,-175.969 -29.14,0 -57.9,7.359 -83.65,21.32 l -95.79,-25.652"
         style="fill:#040606;fill-opacity:1;fill-rule:nonzero;stroke:none"
         id="path398" /><path
         d="m 7183.57,704.051 c -7.24,4.328 -16.67,9.168 -25.2,5.668 -6.54,-2.668 -10.72,-12.918 -14.96,-18.149 -2.18,-2.691 -4.78,-3.109 -8.13,-1.761 -24.57,9.793 -43.39,26.191 -56.95,48.793 -2.29,3.519 -1.88,6.277 0.88,9.539 4.1,4.82 9.24,10.289 10.35,16.8 1.1,6.489 -1.94,14.098 -4.63,19.879 -3.43,7.399 -7.27,17.942 -14.68,22.129 -6.81,3.852 -15.78,1.692 -21.84,-3.25 -10.47,-8.527 -15.53,-21.89 -15.37,-35.129 0.04,-3.769 0.51,-7.519 1.37,-11.148 2.12,-8.742 6.16,-16.902 10.71,-24.652 3.42,-5.852 7.15,-11.52 11.16,-16.969 13.14,-17.86 29.49,-33.371 48.43,-44.973 9.45,-5.789 19.65,-10.867 30.19,-14.359 11.84,-3.918 22.38,-7.981 35.16,-5.559 13.38,2.539 26.56,10.82 31.87,23.719 1.58,3.812 2.36,8.062 1.48,12.09 -1.82,8.34 -13.1,13.301 -19.84,17.332"
         style="fill:#040606;fill-opacity:1;fill-rule:evenodd;stroke:none"
         id="path400" /><path
         d="m 7177.92,169.551 -91.08,-45.071 c -3.58,-1.929 -15.72,0.649 -15.72,4.719 v 92.512 c 0,4.109 12.24,6.68 15.81,4.648 l 87.2,-47.437 c 3.65,-2.082 7.49,-7.371 3.79,-9.371 z m 119.46,54.34 c 0,43.879 -35.56,79.449 -79.44,79.449 h -203.12 c -43.88,0 -79.44,-35.57 -79.44,-79.449 v -94.52 c 0,-43.8827 35.56,-79.4413 79.44,-79.4413 h 203.12 c 43.88,0 79.44,35.5586 79.44,79.4413 v 94.52"
         style="fill:#040606;fill-opacity:1;fill-rule:nonzero;stroke:none"
         id="path402" /><path
         d="m 7264.84,1312.71 c -2.94,-0.28 -5.9,-0.44 -8.87,-0.45 -32.5,-0.01 -62.81,16.38 -80.61,43.57 v -148.35 c 0,-60.55 -49.09,-109.64 -109.64,-109.64 -60.55,0 -109.64,49.09 -109.64,109.64 0,60.55 49.09,109.64 109.64,109.64 v 0 c 2.29,0 4.52,-0.21 6.78,-0.35 v -54.03 c -2.26,0.27 -4.46,0.68 -6.78,0.68 -30.9,0 -55.95,-25.05 -55.95,-55.95 0,-30.91 25.05,-55.96 55.95,-55.96 30.91,0 58.21,24.35 58.21,55.26 l 0.54,251.94 h 51.69 c 4.88,-46.35 42.25,-82.55 88.73,-85.95 v -60.05"
         style="fill:#040606;fill-opacity:1;fill-rule:nonzero;stroke:none"
         id="path404" /><path
         d="M 7842.87,1097.95 H 7664.8 c -50.42,0 -91.29,40.86 -91.29,91.28 v 178.09 c 0,50.41 40.87,91.28 91.29,91.28 h 178.07 c 50.42,0 91.29,-40.87 91.29,-91.28 v -178.09 c 0,-50.42 -40.87,-91.28 -91.29,-91.28"
         style="fill:#040606;fill-opacity:1;fill-rule:nonzero;stroke:none"
         id="path406" /><path
         d="m 7848.55,1299.4 c -1.81,-0.17 -3.63,-0.26 -5.44,-0.27 -19.95,0 -38.54,10.05 -49.47,26.73 v -91.03 c 0,-37.16 -30.11,-67.28 -67.27,-67.28 -37.16,0 -67.29,30.12 -67.29,67.28 0,37.16 30.13,67.28 67.29,67.28 v 0 c 1.39,0 2.77,-0.12 4.15,-0.21 v -33.15 c -1.38,0.16 -2.74,0.42 -4.15,0.42 -18.97,0 -34.35,-15.39 -34.35,-34.35 0,-18.96 15.38,-34.34 34.35,-34.34 18.96,0 35.71,14.96 35.71,33.92 l 0.33,154.6 h 31.72 c 2.99,-28.45 25.93,-50.66 54.45,-52.74 v -36.86"
         style="fill:#ffffff;fill-opacity:1;fill-rule:nonzero;stroke:none"
         id="path408" /><g
         id="g410"
         transform="scale(10)"><text
           transform="matrix(1,0,0,-1,126.285,403.803)"
           style="font-variant:normal;font-weight:bold;font-size:12px;font-family:Montserrat;-inkscape-font-specification:Montserrat-Bold;writing-mode:lr-tb;fill:#040606;fill-opacity:1;fill-rule:nonzero;stroke:none"
           id="text414"><tspan
             x="0 8.7358437 22.151844 37.079544 51.575642"
             y="0"
             sodipodi:role="line"
             id="tspan412">ICONS</tspan></text></g><g
         id="g416"
         transform="scale(10)"><text
           transform="matrix(1,0,0,-1,198.51181,403.803)"
           style="font-variant:normal;font-weight:bold;font-size:12px;font-family:Montserrat;-inkscape-font-specification:Montserrat-Bold;writing-mode:lr-tb;fill:#707476;fill-opacity:1;fill-rule:nonzero;stroke:none"
           id="text420"><tspan
             x="0 13.536096"
             y="0"
             sodipodi:role="line"
             id="tspan418">&amp; </tspan></text></g><g
         id="g422"
         transform="scale(10)"><text
           transform="matrix(1,0,0,-1,220.244,403.803)"
           style="font-variant:normal;font-weight:bold;font-size:12px;font-family:Montserrat;-inkscape-font-specification:Montserrat-Bold;writing-mode:lr-tb;fill:#040606;fill-opacity:1;fill-rule:nonzero;stroke:none"
           id="text426"><tspan
             x="0 12.456096 27.383783 40.979496 49.715809 63.70752 75.755829 83.951637 100.21143 113.06352 127.77493 136.51125 150.50296 158.69876 170.60358 185.53127 199.58347 214.51122"
             y="0"
             sodipodi:role="line"
             id="tspan424">SOCIAL MEDIA LOGOS</tspan></text></g><g
         id="g428"
         transform="scale(10)"><text
           transform="matrix(1,0,0,-1,455.40629,403.803)"
           style="font-variant:normal;font-weight:bold;font-size:12px;font-family:Montserrat;-inkscape-font-specification:Montserrat-Bold;writing-mode:lr-tb;fill:#707476;fill-opacity:1;fill-rule:nonzero;stroke:none"
           id="text432"><tspan
             x="0 12.383772 27.312012 40.931568"
             y="0"
             sodipodi:role="line"
             id="tspan430">FOR </tspan></text></g><g
         id="g434"
         transform="scale(10)"><text
           transform="matrix(1,0,0,-1,504.534,403.803)"
           style="font-variant:normal;font-weight:bold;font-size:12px;font-family:Montserrat;-inkscape-font-specification:Montserrat-Bold;writing-mode:lr-tb;fill:#040606;fill-opacity:1;fill-rule:nonzero;stroke:none"
           id="text438"><tspan
             x="0 13.98054 28.236397 40.692493 49.428841 63.923965 76.775566 89.231667 101.68776 109.88405 123.31174 137.30296 150.923"
             y="0"
             sodipodi:role="line"
             id="tspan436">BUSINESS CARD</tspan></text></g></g></g></svg>
