<?xml version="1.0" encoding="UTF-8" standalone="no"?>
<!-- Created with Inkscape (http://www.inkscape.org/) -->

<svg
   version="1.1"
   id="svg2"
   xml:space="preserve"
   width="3333.3333"
   height="2668"
   viewBox="0 0 3333.3333 2668"
   sodipodi:docname="vecteezy_contact-info-icon-set-address-phone-message-email-web_.eps"
   xmlns:inkscape="http://www.inkscape.org/namespaces/inkscape"
   xmlns:sodipodi="http://sodipodi.sourceforge.net/DTD/sodipodi-0.dtd"
   xmlns="http://www.w3.org/2000/svg"
   xmlns:svg="http://www.w3.org/2000/svg"><defs
     id="defs6" /><sodipodi:namedview
     id="namedview4"
     pagecolor="#ffffff"
     bordercolor="#666666"
     borderopacity="1.0"
     inkscape:pageshadow="2"
     inkscape:pageopacity="0.0"
     inkscape:pagecheckerboard="0" /><g
     id="g8"
     inkscape:groupmode="layer"
     inkscape:label="ink_ext_XXXXXX"
     transform="matrix(1.3333333,0,0,-1.3333333,0,2668)"><g
       id="g10"
       transform="scale(0.1)"><path
         d="M 0,20000 H 25000 V 0 H 0 v 20000"
         style="fill:#ffffff;fill-opacity:1;fill-rule:evenodd;stroke:none"
         id="path12" /><path
         d="m 11077.6,9614.73 c 44.6,4.97 205.8,7.07 248,-1.68 l -4.3,-59.3 c -35.2,-9.51 -201,-7.8 -243.2,-1.61 z m -201.7,1055.47 c 15.2,8.7 551.9,3.8 615.7,3.8 27.3,0 34.4,-6.6 34.4,-34.1 v -865.29 c 0,-30.52 -5.1,-29.09 -34.4,-29.09 -124.4,-0.03 -518.5,-5.59 -613.3,1.75 -10.3,70.17 -12.1,860.73 -2.4,922.93 z m 549.2,196.7 c -272.5,-28.9 -655,106.9 -654.1,-205.9 l 0.2,-872.44 c 0,-151.32 -37.2,-368.28 210.7,-371.57 115.1,-1.53 475.6,-16.94 549.3,25.07 59.5,33.93 98.2,91.77 100.6,185.76 6.6,260.97 -0.1,605.08 -0.1,872.58 0,85.5 10.2,195.9 -23.2,263.3 -29.9,60.4 -100,112.1 -183.4,103.2"
         style="fill:#000000;fill-opacity:1;fill-rule:evenodd;stroke:none"
         id="path14" /><path
         d="m 10673,14820 c 0,-263.6 156.8,-581.4 272.3,-755.5 78.6,-118.5 131.3,-186 234.7,-274.9 64.8,-55.7 252.5,-170.2 367.2,-113.7 -8.6,32.8 -183.8,346.7 -206.2,402 -70.3,-2.6 -81.1,2.7 -139.8,88.9 -82.4,120.9 -230,350.3 -230,485.7 0,28.5 23.1,45.2 32.2,69.8 l -213.7,401.5 c -87.2,-54.9 -116.7,-204.3 -116.7,-303.8"
         style="fill:#000000;fill-opacity:1;fill-rule:evenodd;stroke:none"
         id="path16" /><path
         d="m 10829.5,15148 c 7.1,-28.1 197.6,-393.6 215.4,-410.9 44.7,12.8 148.5,58.3 135.1,113.2 -4.6,18.8 -31.9,67.1 -41.3,84.4 l -88.5,169.7 c -70.4,136.4 -59.9,134.9 -220.7,43.6"
         style="fill:#000000;fill-opacity:1;fill-rule:evenodd;stroke:none"
         id="path18" /><path
         d="m 11381,14102.1 c 1.2,-35.7 185.3,-381.2 202.9,-402.8 10.2,0 145.1,43.9 142.2,100.1 -1.4,27.1 -164.3,327.1 -174.6,340.6 -24.7,32.3 -52.8,27.6 -86.2,8.8 -27.4,-15.4 -63.2,-33 -84.3,-46.7"
         style="fill:#000000;fill-opacity:1;fill-rule:evenodd;stroke:none"
         id="path20" /><path
         d="m 8222.18,10894 c 448.04,62.3 843.8,-304.5 874.97,-700.4 20.54,-260.85 -56.54,-448.85 -184.3,-598.61 -322.44,-377.97 -885.25,-378.36 -1216.87,7.97 -22,25.63 -61.21,83.05 -79.55,116.03 -177.6,319.41 -108.97,651.41 88.65,902.31 125.74,159.5 312.33,244.2 517.1,272.7 z m -797.04,-763.5 c 0,-147.95 18.21,-263.31 79.77,-390.65 52.95,-109.49 98.56,-173.39 169.92,-248.58 60.96,-64.25 146.73,-131.72 242.22,-176.77 354.3,-167.16 748.62,-101.87 1024.79,174.57 54.88,54.93 129.11,156.98 168.48,243.44 278.41,611.29 -185.71,1258.49 -782.03,1258.49 -205.25,0 -438.6,-69.6 -586.55,-204.1 -107.23,-97.5 -167.22,-165.1 -233.5,-304.1 -45.82,-96.1 -83.1,-227.9 -83.1,-352.3"
         style="fill:#000000;fill-opacity:1;fill-rule:evenodd;stroke:none"
         id="path22" /><path
         d="m 7515.71,14352.4 c 0,216.4 117.03,420 227.05,529.7 61.92,61.6 124.19,110.6 219.04,158.2 214.9,107.9 477.38,107.1 691.98,0.8 163.95,-81.2 292.77,-209.8 371.97,-374.9 66.84,-139.3 75.15,-233.4 75.15,-376.6 0,-286.3 -216.9,-585.6 -478.5,-691.6 -412.71,-167.3 -840.49,4.5 -1029.66,388.7 -62.21,126.4 -77.03,219.3 -77.03,365.7 z m 713.21,854.4 c -73.24,-11.8 -112.15,-15 -181.63,-35.9 -267.23,-80.3 -466.9,-276.1 -567.27,-535.6 -47.7,-123.4 -59.86,-246.2 -51.07,-394.5 11.15,-188.5 118.93,-400.7 243.32,-530.4 22.13,-23 38.37,-31.7 59.47,-52.1 151.67,-146.3 433.37,-239.2 658.36,-211.5 177.11,21.8 333.67,77.9 468.41,187.1 46.64,37.8 132.17,120.1 161.69,166.2 50.89,79.4 80.26,114.1 117.1,217.8 172.24,485 -75.87,968.1 -521.46,1138.4 -95.14,36.4 -270.09,69.5 -386.92,50.5"
         style="fill:#000000;fill-opacity:1;fill-rule:evenodd;stroke:none"
         id="path24" /><path
         d="m 8244.54,9696.48 157.22,-1.93 c 7.41,-27.19 13.29,-50.92 -17.75,-50.92 l -170.61,2.64 c -7.67,38.17 -10.61,50.21 31.14,50.21 z m -187.73,817.32 c 34.01,11.3 327.81,5.4 404.08,5.5 98.85,0.1 100.27,11.4 100.27,-32.9 v -655.97 c 0,-25.58 1.98,-32.08 -23.72,-32.08 h -460.4 c -20.15,0 -21.62,10.81 -21.62,32.08 -0.04,175.77 -6.71,527.97 1.39,683.37 z m -80.64,7.5 v -830.43 c 0,-185.6 219.96,-145.38 331.18,-145.38 55.98,0 188.65,-5.95 231.4,5.31 55.35,14.58 101.69,70.28 101.69,140.07 v 837.43 c 0,79.1 -63.82,141.9 -144.65,141.9 h -369.9 c -86.71,0 -149.72,-62.8 -149.72,-148.9"
         style="fill:#000000;fill-opacity:1;fill-rule:evenodd;stroke:none"
         id="path26" /><path
         d="m 7900.68,14666.5 c 0,-165 10.05,-212.5 76.23,-379.4 76.71,-193.5 309.95,-563.5 525.86,-563.5 l 68.32,1.6 c 8.71,38.1 -151.8,313.2 -151.84,313.2 -28.17,20.8 -52.71,-31.7 -164.21,157 -31.7,53.6 -120.23,215.4 -123.71,282.7 -5.1,98.6 61.8,-1.1 -28.84,171.7 -21.65,41.3 -94.2,190.1 -116.18,210.1 -47.21,-25.5 -85.63,-115.8 -85.63,-193.4"
         style="fill:#000000;fill-opacity:1;fill-rule:evenodd;stroke:none"
         id="path28" /><path
         d="m 8022.16,14875.8 161.58,-312.9 c 27.16,1.5 92.87,38.8 107.2,55.7 15.64,35.9 -138.97,307.3 -149.65,312 -19.84,8.6 -99.2,-28.8 -119.13,-54.8"
         style="fill:#000000;fill-opacity:1;fill-rule:evenodd;stroke:none"
         id="path30" /><path
         d="m 8449.6,14063.9 c 5.43,-32.3 133.77,-267.3 156.7,-312.4 17.59,1.7 116.18,31.4 109.93,82.6 l -99.87,199.3 c -42.88,81 -35.78,111.8 -166.76,30.5"
         style="fill:#000000;fill-opacity:1;fill-rule:evenodd;stroke:none"
         id="path32" /><path
         d="m 5360.79,14064.4 c 123.13,82 132.3,57.9 168.6,-15.9 12.09,-24.5 25.66,-48.4 38.55,-72.8 20.76,-39.2 69.56,-117.4 70.5,-160.6 -19.3,-30.7 -75.48,-65.6 -114.28,-69.1 -16.63,19.6 -160.72,289.8 -163.37,318.4 z m 136.38,-339.1 c -136.03,-37.4 -277.93,74.8 -338.99,133.7 -41.73,40.2 -72.22,87 -109.11,135 -92.35,120.3 -198.31,356.7 -227.3,505.6 -20.63,106 -16,335.9 83.15,366.9 14.51,-12.2 161.2,-288.9 169.41,-318.7 -1.57,-37.4 -85.02,-18.1 85.81,-324.3 119.66,-214.5 136.26,-154.9 173.5,-174.8 7.07,-3.8 163.84,-292.1 163.53,-323.4 z m -565.67,1158.8 c 148.33,93.3 134.37,54 217.64,-105.9 83.3,-159.9 97.38,-153.3 -14.35,-209.2 -23.23,-11.7 -9.83,-10.8 -33.17,-11.9 -16.65,16.6 -163.11,299.1 -170.12,327 z m 221.38,323.2 c -73.6,-10.6 -114.87,-12.7 -182.55,-34.1 -57.71,-18.4 -105.37,-36.3 -158.54,-64.9 -321.15,-173 -491.9,-487.6 -465.83,-860.8 50.4,-721.7 974.36,-1109.7 1537.27,-510.2 167.55,178.5 233.05,408 223.08,664.2 -4.84,124.4 -50.95,244.6 -100.1,340.3 -147.87,287.7 -515.44,513.8 -853.33,465.5"
         style="fill:#000000;fill-opacity:1;fill-rule:evenodd;stroke:none"
         id="path34" /><path
         d="m 5007.27,10671 c 41.34,7.8 408.53,8.2 444.3,-0.7 54.72,-13.5 101.07,-64.8 109.23,-121.3 6.84,-47.4 2.15,-601.27 2.15,-676.7 0,-143.82 28.69,-301.49 -124.53,-331.36 -41.54,-8.1 -406.76,-7.18 -441.67,3.74 -135.8,42.5 -113.15,191.71 -113.15,341.59 0,151.23 0,302.43 0,453.63 0,149.1 -20.32,303.9 123.67,331.1 z m -663.38,-505.6 c 0,-173.05 3.85,-274.17 84.2,-441.96 85.38,-178.28 235.5,-327.42 411.73,-411.56 242.31,-115.68 519.98,-119.57 762.61,-4.46 181.73,86.22 321.18,226.31 413.58,403.09 174.85,334.49 96.79,771.19 -176.61,1033.49 -254.76,244.3 -642.61,321.8 -977.56,169.6 -276.31,-125.6 -517.95,-426.4 -517.95,-748.2"
         style="fill:#000000;fill-opacity:1;fill-rule:evenodd;stroke:none"
         id="path36" /><path
         d="m 4979.31,10509.7 c -6.63,-49.3 -1.42,-511.61 -1.38,-602.5 0.05,-135.66 -45.24,-105.06 192.2,-105.06 39.21,0 285.47,-7.1 299.7,7.39 15.73,16.02 6.28,537.57 6.32,600.07 0.09,134.1 37.51,102 -194.35,102.1 -83.28,0 -226.42,8.4 -302.49,-2"
         style="fill:#000000;fill-opacity:1;fill-rule:evenodd;stroke:none"
         id="path38" /><path
         d="m 5132.48,9662.96 c 14.3,-21.21 4.37,-14.64 37.02,-16.28 l 145.63,4.5 2.31,39.93 -183.68,1.59 -1.28,-29.74"
         style="fill:#000000;fill-opacity:1;fill-rule:evenodd;stroke:none"
         id="path40" /><path
         d="m 2271.03,14081.5 c 18.84,23.8 79.45,52 114.39,48.3 16.76,-6.9 132.87,-228.9 140.45,-251.3 13.86,-41.2 -19.94,-52.3 -51.78,-68.6 -56.98,-29.2 -42.66,-52 -118.88,100.7 -23.03,46.2 -76.64,132.8 -84.18,170.9 z m -510.27,480.3 c 0,80.4 6.38,233.9 87.26,263.8 24.02,-20.2 110.94,-205.4 135.13,-247.3 63.83,-110.4 -69.58,-15.4 61.2,-273.9 29.85,-59 116.99,-212.1 162.33,-229.6 57.77,-22.3 21.29,32.6 93.21,-100.8 104.56,-194 134.48,-220.6 27.02,-210.6 -104.01,9.8 -182.68,72.4 -250.37,140.6 -92.28,93 -176.94,231.7 -229.98,356.2 -34.06,79.9 -85.8,209.7 -85.8,301.6 z m 114.16,279.1 c 23.68,24.3 73.78,51.4 119.56,46.9 14.53,-17.9 153.97,-258.6 138.6,-292.3 -13.85,-16.9 -72.72,-52.4 -103.6,-53.3 -17.34,19.3 -149.52,272.4 -154.56,298.7 z m 177.52,231.6 c -157.72,-19.9 -280.93,-76.6 -392.23,-169.6 -272.3,-227.5 -348.08,-597.4 -172.3,-945.3 43.02,-85.2 107.52,-146 171.67,-205.4 128.32,-118.7 336.78,-193.1 578.38,-171.9 389.21,34.1 701.7,411.5 654.33,840.6 -41.75,378.2 -401.76,706.7 -839.85,651.6"
         style="fill:#000000;fill-opacity:1;fill-rule:evenodd;stroke:none"
         id="path42" /><path
         d="m 1824.93,10500.4 c 0,180.3 216.25,143.4 330.18,143.4 120.39,0 311.44,37.7 311.44,-157.4 v -760.64 c 0,-56.5 -25.93,-98.15 -54.91,-124.16 -38.08,-34.19 -82.46,-29.5 -136.36,-31.1 -96.25,-2.87 -181.81,-2.39 -273.72,-2.39 -93.43,0 -176.63,43.75 -176.63,143.69 z m 205.18,351 c -204.66,-49 -341.28,-112 -474.75,-274.7 -401.41,-489.4 -26.09,-1307.22 703.71,-1212.67 401.96,52.08 702.38,463.61 630.38,858.67 -39.85,218.8 -145.51,369.4 -274.71,472.1 -143.85,114.2 -390.05,203.2 -584.63,156.6"
         style="fill:#000000;fill-opacity:1;fill-rule:evenodd;stroke:none"
         id="path44" /><path
         d="m 2088.05,10909.7 c 268.84,34.7 562.32,-130 694.84,-312 23.27,-31.9 59.74,-82.2 79.38,-122.7 256.98,-530.15 -90.48,-1133.42 -664.34,-1171.43 -454.03,-30.08 -823.09,318.5 -856.75,743.33 -17.22,217.3 65.7,455.6 207.37,599.5 168.63,171.4 290.83,231.2 539.5,263.3 z m -825.48,-737.3 c 0,-142.5 -7.28,-160.4 32.07,-309.85 62.22,-236.27 239.86,-438.5 461.7,-549.6 336.33,-168.45 759.14,-95.05 1019.86,175.69 540.39,561.16 166.82,1502.36 -655.99,1502.36 -203.42,0 -383.85,-82.4 -535.96,-199 -87.98,-67.5 -179.17,-187.2 -231.04,-292 -40.21,-81.3 -90.64,-219.9 -90.64,-327.6"
         style="fill:#000000;fill-opacity:1;fill-rule:evenodd;stroke:none"
         id="path46" /><path
         d="m 1338.06,14345.5 c 0,104.4 36.06,229.9 74.92,316.4 113.23,251.9 402.78,469.5 679.3,469.5 149.06,0 258.9,-7.9 401.01,-77.9 96.14,-47.4 161.35,-101.3 226.57,-164.2 235.41,-227.1 294.06,-596.3 153.21,-905.9 -118.48,-260.4 -409.9,-465.5 -731.96,-463.2 -236.92,1.7 -404.68,91.6 -561.47,235.8 -144.18,132.5 -241.58,347 -241.58,589.5 z m 729.84,861.9 c -135.24,-19.7 -239.74,-42.5 -340.2,-99.7 -106.64,-60.7 -164.25,-106.6 -245.56,-193.9 -158.8,-170.4 -234.69,-418.6 -219.25,-665.5 6.56,-105.1 56.6,-258.5 101.62,-337.4 29.68,-52.1 53.77,-91.9 88.13,-135.4 176.36,-223.2 478.79,-360.1 764.81,-329.8 492.32,52.3 852.54,464.1 807.28,954.7 -32.15,348.3 -243.94,629.6 -569.38,754.7 -97.92,37.7 -266.12,70 -387.45,52.3"
         style="fill:#000000;fill-opacity:1;fill-rule:evenodd;stroke:none"
         id="path48" /><path
         d="m 1908.69,9821.5 c 76.02,-1.61 417.68,-9.41 467.57,4.24 l 4.13,633.66 c -3.13,52.9 -29.8,33.4 -183.41,33.4 -92.92,0 -192.68,3.5 -284.75,-0.8 -9.84,-43.6 -6.2,-588.99 -3.54,-670.5"
         style="fill:#000000;fill-opacity:1;fill-rule:evenodd;stroke:none"
         id="path50" /><path
         d="m 22435.3,14696.4 c 8.9,18 13.6,22.1 35.6,31.8 29.4,-21.2 42.5,-35.8 70.7,-58.8 l 277.8,-238.6 c 29.7,-25.2 48.3,-40.3 72.4,-60.1 31.3,-25.8 116.9,-106.2 144.4,-118.4 24.2,10.4 108.8,90.2 140.4,115.1 68.3,53.8 395.2,349.9 433.6,363.5 l 29.4,-32.6 c -14.4,-23.2 -112.4,-110.5 -144,-133.3 l -146.6,-125.7 c -38.8,-33.5 -88.6,-63.4 -94.1,-91.9 47.8,-49.7 367.2,-306.6 386,-334.9 -10.1,-21.9 -12.6,-23.4 -32.4,-35.7 l -345.8,290.3 c -17,14.1 -34.1,29.2 -49.2,44.9 -18.1,-5.2 -152.7,-112.3 -174.5,-135.7 -36.7,19.3 -118.7,108.4 -163.3,131.9 -24.2,-7.9 -214.2,-169.1 -252.6,-203.6 -40.7,-36.6 -106.3,-102.7 -152.2,-127.8 -23.2,12.5 -20.4,12.9 -33.7,35.7 33.1,41.9 279.6,242.6 338.5,295.2 20.8,18.6 39.7,26.2 44.5,57.1 -63.6,42.5 -260,223 -362.7,304.2 -20,15.8 -12,12.9 -22.2,27.4 z m 1302.1,-739.8 v 704.9 c 0,47.7 11.5,101.9 -25.8,117 -36.4,14.7 -1068.2,3.8 -1261.7,5.5 -49.1,0.4 -98.3,8.5 -110.2,-33.5 -11.9,-42 -2.4,-575.2 -2.6,-703.1 0,-44.5 -10,-102.1 22.7,-118.1 28.5,-13.9 1076.5,-5.6 1262.6,-6.1 64.7,-0.1 83.1,-11.8 115,33.4"
         style="fill:#000000;fill-opacity:1;fill-rule:evenodd;stroke:none"
         id="path52" /><path
         d="m 19676,14558.5 c 42.4,28.2 31.2,14.6 64.8,-15 l 404.5,-340.8 c 34.1,18.2 291.8,251.5 338.5,287.5 21.4,16.6 37.4,32.5 56.8,47.9 23.2,18.4 36.1,40.2 66.3,29 15.4,-37.3 7.3,-19.9 -55.7,-81.7 -18,-17.7 -20.6,-18.6 -37.9,-31.6 l -197.3,-172.7 c 19.4,-24.9 51,-45.9 73.8,-65.8 28.3,-24.7 50.4,-44.1 78.1,-68.5 29.3,-25.8 48.3,-43.7 78.3,-68.2 20.6,-16.9 69.4,-43.2 65.5,-79 -30.2,-18.7 -33.9,-4.3 -88.4,42.2 l -203.3,173.5 c -49.1,41.7 -39,39.1 -80.1,2.4 -102.8,-91.8 -89.3,-84.5 -157.1,-23.1 -77,69.6 -61,63.7 -147.7,-14.2 -28.9,-26 -200.5,-178.7 -234.4,-192.5 -16.4,13.7 -13.3,8.8 -22.7,32.8 l 149.8,127.7 c 32.7,29.1 132.8,106.4 148.2,129.1 -7.2,16.7 -49.5,51 -69.5,68.6 l -215.5,182.2 c -22.2,25.6 -5,7 -15,30.2 z m -77.2,5.3 v -572.3 c 0,-55.8 48.6,-45.8 99.6,-45.6 h 886.4 c 46,-0.1 108.5,-11.8 108.5,38.7 v 579.2 c 0,77.9 -77.1,53.9 -241.2,53.9 l -753.8,0.1 c -57.3,0.2 -99.5,10.8 -99.5,-54"
         style="fill:#000000;fill-opacity:1;fill-rule:evenodd;stroke:none"
         id="path54" /><path
         d="m 20076.2,15116.5 c 203.8,36.5 439.7,-66.9 590.5,-191.4 115.2,-95.1 252.8,-296.1 268.6,-521.3 20.5,-293.3 -79.8,-515.6 -291.6,-694.5 -210,-177.4 -512.2,-221.3 -768.9,-127.9 -47.1,17.2 -100.4,41.6 -137.6,65.1 -67.5,42.8 -164.4,123.5 -211.1,186.7 -171,231.3 -222.8,490.9 -123.7,768.6 63.1,176.8 207.4,339.1 370.7,424.8 129.2,67.9 173.2,66.6 303.1,89.9 z m -813.3,-762.1 c 0,-269.9 89.5,-485.6 248.4,-640.7 64.6,-63.2 141.1,-133.5 239.5,-178.9 263.8,-121.8 519.8,-124.7 784.2,-3 131.9,60.6 258.4,175.8 334.7,286.5 144.3,209 203.1,488.9 129.3,741.2 -6.9,23.4 -15.6,53.7 -24.5,79.5 -40.9,117.3 -135.9,251.1 -217.2,327.7 -455.9,429.3 -1172.4,258.4 -1410.2,-261.2 -43.8,-95.7 -84.2,-228.2 -84.2,-351.1"
         style="fill:#000000;fill-opacity:1;fill-rule:evenodd;stroke:none"
         id="path56" /><path
         d="m 16510,14556.8 c 0,40.6 10,64.7 51.2,64.7 h 998 c 39.4,0 56.6,-18.5 56.6,-57.7 v -565.3 c 0,-46 -18.8,-60.1 -63.6,-60.1 l -1028.9,8.6 c -6.5,14.9 -13.3,33.5 -13.3,58.5 z m 492.5,649.9 c -78.1,-10.9 -112.4,-8.6 -187.3,-31.6 -183.1,-56.2 -282,-125.6 -407.4,-255.6 -280.7,-290.8 -306.4,-797 -45.6,-1134.1 420,-542.8 1281.1,-419.3 1526.5,225.2 106.7,280.3 63.2,622.6 -127.7,859.6 -64.9,80.5 -36.6,42.3 -79.8,87.8 -152.8,160.7 -446.6,280.9 -678.7,248.7"
         style="fill:#000000;fill-opacity:1;fill-rule:evenodd;stroke:none"
         id="path58" /><path
         d="m 17056.7,14196 c -35.2,31.9 -401.7,349.7 -440.2,372.5 l -18,-18.7 c 50.7,-60.8 277.3,-227.4 298.2,-272.1 -14.1,-20.4 -54.6,-49.8 -76.6,-70.5 -34.8,-32.8 -204.4,-167.9 -221.6,-194.6 7.1,-8.6 7,-8.7 18.5,-18.2 46.3,14.6 262.7,229.7 314.1,256.5 49.8,-19.1 88.9,-82.7 132.6,-100.6 43.5,24.1 94.2,88.7 133.7,101.3 12.4,-0.1 235,-198.5 283.9,-241.1 22.3,-19.5 20.4,-21.9 42.4,-5 -1.3,26.5 6.5,6.9 -13.4,27.6 l -131.6,113.1 c -42.2,37.5 -124.5,98 -151.5,134.3 27.3,36.2 175.7,157.9 227,199.8 21.2,17.2 59.8,43.5 70.1,69.5 -22.5,33.1 -36.2,12 -58.8,-11 l -172.7,-148.4 c -34.4,-29.3 -209.2,-186.7 -236.1,-194.4"
         style="fill:#000000;fill-opacity:1;fill-rule:evenodd;stroke:none"
         id="path60" /><path
         d="m 13473.9,14535.9 c 0,77.1 60,55.4 128.1,55.4 241.5,0.2 653.3,10.1 875.3,-4 4.9,-14.5 11.9,-29.1 11.9,-51.4 v -509.5 c 0,-24.9 -5.7,-34.2 -12.1,-50.1 -74.2,-18.3 -807.5,-7.7 -944.9,-7.7 -42.7,0 -58.3,15.5 -58.3,57.8 z m -245.3,-181.5 c 0,-192.4 40.2,-312.1 140.1,-463.5 33.3,-50.4 88.9,-104 134.2,-145 118.4,-107.3 321.4,-173.6 489.9,-173.6 287,0 561.5,191.8 666.1,422.9 99.5,219.9 103.6,431 4,652.5 -15.9,35.4 -42.2,82 -63.6,110.7 -15.5,20.7 -24.8,32.1 -39.5,51.3 l -86.5,87.9 c -400.6,324.5 -947.5,197.6 -1169.5,-244.8 -37.3,-74.4 -75.2,-204 -75.2,-298.4"
         style="fill:#000000;fill-opacity:1;fill-rule:evenodd;stroke:none"
         id="path62" /><path
         d="m 13887,15125 c 587.5,75.2 1047.1,-499 857,-1061.1 -57.8,-171.1 -138.4,-254.8 -249.7,-357.5 -192.1,-177.1 -506.4,-226.9 -768.7,-142.6 -87.6,28.1 -197.8,89.2 -260,144.8 -149,133 -239.2,268.8 -282.3,520.3 -42.1,245.5 71.2,472.2 181.3,614.2 101.7,131.1 290.3,252.2 522.4,281.9 z m 36,-1681 c 193.3,0 258.7,1.8 455.3,92.2 379.4,174.5 592,666.5 438.7,1083.8 -33.6,91.5 -63.6,144.8 -111.3,217.1 -177.8,269.1 -572.2,436 -907.4,354.3 -326.8,-79.6 -583.7,-303.6 -669.6,-635.4 -96.3,-371.7 38,-702.6 315.4,-931.6 91.2,-75.2 316.6,-180.4 478.9,-180.4"
         style="fill:#000000;fill-opacity:1;fill-rule:evenodd;stroke:none"
         id="path64" /><path
         d="m 14191.3,14379.3 c -32.9,-28.6 -67.8,-61 -100.9,-87.6 l -104.6,-84.9 c -22.8,4.4 -320.5,257.4 -357.1,293 -67.9,66.2 -89.1,43.7 -56.6,7.5 l 260.2,-220.1 c -12.2,-28.8 -108.4,-106.4 -141.6,-133.3 -27.2,-22.1 -44.5,-37.4 -71,-61.4 -13.6,-12.3 -24.4,-18.4 -38.8,-31.6 -16.3,-14.8 -23.9,-25.3 -13,-35.3 21,-19.1 119.7,83.6 149.3,108.7 28.9,24.5 129,112.6 150.1,120.7 33.5,-25.2 75.5,-73.5 111.6,-90.8 45.9,11.7 81.3,74.4 125.6,91.2 l 220,-183.6 c 19,-15.8 44.9,-51.5 77.5,-49.7 3.7,25.6 -5.1,29.5 -21.7,42.6 l -244.9,213 c 6.4,25.5 51,51.9 67.9,68.5 25.7,25.3 47,39.2 71.6,61.3 28.6,25.7 42.6,35.4 71.1,61.4 21.3,19.4 61.1,41.5 53.3,68.2 -24.8,8.9 -40.7,-13.8 -57.6,-29 l -150.4,-128.8"
         style="fill:#000000;fill-opacity:1;fill-rule:evenodd;stroke:none"
         id="path66" /><path
         d="m 17126.3,3047.86 c 55.7,6.38 87,-33.86 112,-64.88 38.9,-48.3 22.7,-74.58 8,-141.43 -17.2,-78.08 -0.5,-86.16 -52.7,-134.85 -211.5,-197.2 -272.5,-26.69 -233.4,135.8 22.1,91.73 55,192.6 166.1,205.36 z m 114.4,-419.66 c 28.3,-76.14 81.3,-112.95 184.9,-105.02 254.4,19.43 312.6,336.26 285.2,563.65 -52.7,435.28 -712.3,419.46 -948.6,183.65 -151.1,-150.86 -239.5,-436.99 -207.1,-655.9 28.4,-192.28 78.4,-281.84 224,-355.81 129.9,-65.97 347.5,-72.4 506.2,-41.45 30.3,5.89 87.9,17.68 99.8,46.64 5.7,14.05 7,49.56 -0.7,62.64 -24.3,41.61 -110.3,-38.33 -298.3,-26.01 -155.7,10.18 -309.4,31.9 -383,196.26 -86.2,192.29 -40.5,664.31 286.3,797.97 146.4,59.88 358.3,50.8 478,-26.63 137.5,-89.01 150.4,-242.62 119,-431.12 -47.5,-284.34 -269.3,-260.03 -248.1,-107.99 18.6,133.18 49.1,242.38 70.5,364.49 11.7,66.76 -73.7,52.6 -88,30.59 l -5.4,-9.13 c -11.2,-23.98 -1.1,-32.49 -21.4,-55.86 l -28.8,27.53 c -72.8,78.24 -193.3,77.79 -269.5,26.91 -47.6,-31.8 -71.1,-57.83 -100,-109.34 -63,-112.09 -122.7,-414.73 38.9,-471.41 159.4,-55.9 265,86.52 306.1,95.34"
         style="fill:#000000;fill-opacity:1;fill-rule:evenodd;stroke:none"
         id="path68" /><path
         d="m 14168.8,3719.46 c 113.6,17.14 246.4,-8.73 346.6,-45.01 415.2,-150.16 629.1,-626.94 473.3,-1018.91 -110.5,-277.93 -335.7,-478.88 -670.1,-516.85 -440.1,-49.96 -839.9,312.52 -864.1,711.59 -8.1,131.67 4,244.73 44.2,353.07 66.4,179.16 197.5,330.17 370.3,424.99 96.4,52.87 174.4,72.2 299.8,91.12 z m 66.6,-1676.28 c 119.1,0 263.6,30.74 362.1,75.33 112.3,50.76 253.7,150.86 314,230.22 161.5,212.81 215,338.04 215,627.27 0,196.83 -126.6,470.95 -270.1,592.99 -281.9,239.77 -621.2,323.64 -975.7,166.45 -615.5,-272.94 -676.5,-1095.23 -224.8,-1464.56 13.2,-10.77 13.6,-14.61 28.5,-27.22 141.6,-119.59 359.4,-200.48 551,-200.48"
         style="fill:#000000;fill-opacity:1;fill-rule:evenodd;stroke:none"
         id="path70" /><path
         d="m 14205.4,3104.77 c 49.2,21.79 82,-7.72 106.5,-31.26 35.2,-33.77 35.4,-50 23.2,-107.13 -8.3,-39.19 -9.9,-87.79 -32.2,-113.68 -9.7,-11.18 -60.8,-52.99 -78.2,-61.49 -189,-92.14 -140.5,259.95 -19.3,313.56 z m 167.9,19.66 c -32.5,1.32 -96,115.84 -234.4,38.46 -133.6,-74.72 -191.6,-404.65 -51.1,-453.12 122.8,-42.38 201.5,58.3 231.4,71.19 28.9,-23.29 36.7,-82.77 138.9,-80.84 210.1,3.97 261.8,291.1 234.7,439.59 -55.8,306.04 -414.6,304.34 -600.3,230.38 -115.2,-45.88 -180.8,-115.63 -233.1,-220.82 -92,-185.22 -130.8,-545.82 110.3,-655.18 132.2,-60 453.3,-61.82 469.4,15.45 21.2,101.6 -54.6,3.56 -266.7,17.76 -349.1,23.36 -328.9,356.89 -245,568.02 122.3,307.71 515.2,259.89 602.5,168.1 39.7,-41.79 64.8,-78.58 74.1,-149.5 12.4,-93.28 -9.5,-307.78 -116.5,-334.85 -91.4,-23.11 -90.8,66.12 -78,127.06 13,61.44 26.5,131.09 37.5,194.02 6.1,35.06 26.9,69.24 -10.2,78.34 -58.2,14.29 -51.7,-25.94 -63.5,-54.06"
         style="fill:#000000;fill-opacity:1;fill-rule:evenodd;stroke:none"
         id="path72" /><path
         d="m 10701.6,2850.39 c 0,259.43 136.9,484.57 356.9,542.48 117.9,31.02 281.4,29.6 387.1,-20.51 95,-45.07 173.2,-145.06 173.2,-270.75 0,-109.43 -0.1,-199.04 -65.4,-301.69 -74.2,-116.58 -251.1,-154.54 -316.3,-20.84 -57.7,-31.7 -73,-82.95 -180.8,-82.95 -242.3,0 -129.5,494.43 69.8,494.43 128.7,0 95.8,-30.5 161.9,-64.14 6.4,47.38 31,82.54 82.4,52.39 20.7,-30.27 -19.9,-172.31 -29,-216.41 -15.7,-76.86 -50.9,-179.48 42.9,-179.48 135.8,0 201.6,377.85 43.7,487.94 -139.3,97.18 -404.1,70.83 -521.1,-75.56 -98.3,-122.87 -103.4,-252.89 -103.4,-407.72 0,-186.51 164.8,-257.52 329.6,-257.52 152.2,0 229,69.42 229,-0.68 0,-45.2 -17.5,-54.82 -59.2,-64.69 -158.2,-37.45 -389.3,-31.94 -504.8,85.4 -81.5,82.81 -96.5,176.79 -96.5,300.3 z m -422.7,27.91 c 0,-117.62 42.7,-251.33 88.1,-340.38 275.8,-540.44 962,-657.21 1403.9,-248.42 278.1,257.25 352.7,688.48 179.5,1036.24 -90.4,181.41 -232.9,316.06 -418.2,405.38 -150.1,72.39 -268.1,82.18 -427,82.18 -193.5,0 -434.6,-122.55 -570.9,-259.49 -70.6,-70.84 -119.1,-135.99 -170.9,-241.05 -79.9,-162.22 -84.5,-260.98 -84.5,-434.46"
         style="fill:#000000;fill-opacity:1;fill-rule:evenodd;stroke:none"
         id="path74" /><path
         d="m 11133.4,3103.73 c -135,-49.38 -170.5,-398.33 5.7,-308.1 23.3,11.9 67,49.47 77.4,62.15 22.7,27.92 20.6,71.78 28.7,110.04 11.9,56.63 19.7,57.08 -15.4,97.92 -23.4,27.3 -54.6,53.29 -96.4,37.99"
         style="fill:#000000;fill-opacity:1;fill-rule:evenodd;stroke:none"
         id="path76" /><path
         d="m 8145.98,2792.44 c -47.87,-28.75 -109.33,-99.84 -209.63,-60.96 -69.68,27.01 -79.27,121.75 -64.61,212.27 21.1,130.25 86.85,227.23 218.83,216.47 67.11,-5.47 59.89,-39.46 97.29,-48.7 20.41,21.88 6.27,44.9 49.15,46.22 48.78,1.5 37.12,-27.19 30.17,-65.66 -21.82,-120.49 -90.09,-312.5 24.82,-292.58 112.13,19.45 152.03,337.84 29.9,429.32 -120.84,90.52 -430.57,93.06 -526.7,-174.51 -34.96,-97.28 -50.25,-248.49 -8.36,-347.02 39.77,-93.57 146.5,-132.87 275.43,-130.67 41.75,0.7 170.05,28.17 174.82,27.66 31.61,-3.43 24.11,-51.53 12.58,-66.92 -23.84,-31.81 -539.98,-154.56 -575.67,266.07 -20.65,243.33 98.64,461.89 279.97,525.15 228.67,79.76 496.25,18.2 529.39,-216.2 40.8,-288.54 -151.57,-454.63 -289.27,-374.56 -27.42,15.95 -27.96,31.02 -48.11,54.62 z m 685.86,99.82 c 0,232.83 -59.28,407.69 -221.25,569.33 -144.72,144.43 -309,219.61 -555.34,219.61 -232.46,0 -423.29,-120.16 -559.72,-278.08 -138.29,-160.07 -205.36,-423.49 -149.85,-640.76 22.83,-89.34 40.18,-125.16 77.53,-201.98 22.86,-47.04 54.6,-83.05 87.95,-121.4 97.92,-112.59 235.43,-208.91 387.13,-240.21 168.4,-34.74 318.96,-29.19 471.99,36.43 132.69,56.9 248.84,150.21 313.61,244.77 71.02,103.68 147.95,253.05 147.95,412.29"
         style="fill:#000000;fill-opacity:1;fill-rule:evenodd;stroke:none"
         id="path78" /><path
         d="m 8076.19,2122.46 c -168.14,0 -357.21,69.43 -460.46,148.92 -119.87,92.3 -201.63,177.5 -270.8,329.25 -154.72,339.44 -46.3,746.29 244.39,966.75 21.61,16.39 59.93,43.97 87.79,58.89 235.58,126.12 471.64,147.14 721.41,42.06 313.03,-131.7 486.16,-425.74 486.16,-769.1 0,-398.99 -363.27,-776.77 -808.49,-776.77 z m -878.58,727.93 c 0,-85.41 59.83,-258.89 94.39,-323.84 224.69,-422.33 716.1,-598.24 1154.63,-402.36 316.92,141.56 517.3,447.53 517.3,830.88 0,453.8 -405.38,857.51 -859.54,858.38 -373.02,0.72 -658.14,-190.17 -811.62,-479.69 -92.72,-174.89 -95.16,-296.29 -95.16,-483.37"
         style="fill:#000000;fill-opacity:1;fill-rule:evenodd;stroke:none"
         id="path80" /><path
         d="m 8059.12,3081.11 c -126.51,-38.7 -149.08,-356.38 4.79,-267.57 68,39.26 76.04,63.33 91.84,153.86 7.66,43.87 11.7,55.99 -16.04,85.95 -18.42,19.89 -45.62,38.46 -80.59,27.76"
         style="fill:#000000;fill-opacity:1;fill-rule:evenodd;stroke:none"
         id="path82" /><path
         d="m 11239.2,5489.86 c 0,38.73 11.2,33.38 49.4,32.83 104.8,-1.51 132.2,15.56 125.9,-22.84 -5.1,-32.06 -133,-211.02 -166.4,-206.82 -17.4,24.31 -8.9,145.45 -8.9,196.83 z m 159.1,-177.02 c 0.2,15.98 68.6,110.29 85.7,149.78 23,52.93 12.1,74.89 168.1,59.51 6.2,-11.06 4.5,0.1 3.7,-16.06 -1.8,-37.67 4.9,9.33 -2,-9.87 l -43,-48.75 c -43.9,-43.19 -157.7,-134.94 -212.5,-134.61 z m -367.3,209.33 c 119,0 128.9,14.31 128.9,-32.31 l -0.7,-197.68 c -39.7,9.31 -95.4,78.88 -120.1,115.03 -76.2,111.58 -69.8,114.96 -8.1,114.96 z m -89.4,-107.78 c 28.5,-52.3 59.7,-77.49 58.4,-102.7 -76.4,19.95 -164.1,86.44 -216.5,140.06 -11.7,11.96 -19.4,19.98 -30,32.95 -16.3,20 -16.3,9.82 -13.5,37.58 188.8,-0.15 128,27.12 201.6,-107.89 z m -19,293.86 c -16.5,119.1 -57.7,103.75 232.5,100.53 4.3,-15.25 4.8,-7.74 4.8,-25.83 0,-189.44 14.2,-181.41 -38.2,-181.51 l -172.9,2.74 c -17,23.59 -21.4,69.36 -26.2,104.07 z m 620.5,-104.12 c -2.7,13.99 22.4,184.69 28.5,204.74 l 195.7,-1.57 c 9.7,-37.89 -19.4,-157.17 -45.4,-192.48 l -7.4,-7.79 c -25.4,-11.6 -137.2,-8.41 -171.4,-2.9 z m -79.4,204.89 c 33.1,0 23.9,-19.13 19.8,-51.36 -2.6,-20.64 -4.3,-43.26 -7.2,-64.3 -9.6,-71.22 -14.2,-91.92 -47.5,-91.92 -196.6,0 -189.4,-14.28 -189.6,34.97 -0.2,56.73 -4.8,114.05 6.6,171.26 z m -607,-173.95 c 6.3,-26.06 4.7,-33.63 -28.1,-33.63 -165.6,0 -147.6,-13.7 -176.8,74.83 l -24,113.67 c 0,16.59 2.9,19.08 19.3,19.08 262.9,0 158.7,34.94 209.6,-173.95 z m 385.8,459.38 c 31.4,2.59 201.7,10.36 215.1,-10.34 8,-12.35 34.8,-163.45 28.2,-181.62 -10.7,-29.76 -229.4,-14.03 -230.8,-13.57 -21.6,7.09 -16.3,5.94 -16.6,39.7 z m -295.3,-206.19 c -35.8,0 -36.3,-0.42 -34.7,33.1 1.4,30.19 20.9,146.05 35.9,173.94 l 208.6,0.43 -0.1,-207.27 z m 595.4,193.42 c 0.1,1.37 1.1,2.78 1.2,5.71 0.1,2.95 0.8,3.88 1.5,5.69 33.8,7.38 82.4,2.58 121.1,3.08 52.9,0.68 71.8,6.24 97.5,-138.77 7.4,-41.27 26.8,-69.13 -21.1,-69.13 l -172.5,1.61 -28.4,180.36 c -2,37.85 -2,-29.72 0.7,11.45 z m -914.8,-173.11 c -4.4,37.09 38.6,163.45 55.1,186.3 194.2,7.2 184.4,8.27 172.4,-37.12 l -26.7,-163.35 c -23.5,-12.74 -171.8,-11.27 -199.3,-1.26 z m 612.7,495.68 c 37.8,-2.53 87,-66.74 107.2,-95.24 19.6,-27.65 72.5,-93.8 65.1,-134.69 l -173.1,2.17 z m -257.7,-228.92 c 1.7,59.49 114.8,203.78 172.3,233.56 10.1,-35.33 8.3,-192.78 0.8,-233.78 z m 678.2,-0.3 -148.4,0.08 c -16.4,36.52 -33.1,71.46 -52.4,106.75 -20.5,37.44 -54.9,65.99 -62.5,104.59 84.1,-20 263.1,-153.41 263.3,-211.42 z m -922.3,0.08 c 1,54.79 185,203.05 262.7,208.91 -3.3,-23.34 -45.1,-73.76 -62.2,-104.39 -68.7,-123.42 -3.1,-104.31 -200.5,-104.52 z m -190.2,-266.54 c 0,-140.49 -2.3,-213.61 64.1,-348.34 63.5,-128.85 162,-228.64 292,-294.23 259.7,-130.95 573.8,-74.95 766.8,127.95 248.6,261.39 244.3,667.32 -11.7,920.06 -287,283.37 -748.4,240.37 -984,-71.21 -22.7,-30.07 -39.1,-60.18 -57.5,-95.96 -29.8,-57.88 -69.7,-165.25 -69.7,-238.27"
         style="fill:#000000;fill-opacity:1;fill-rule:evenodd;stroke:none"
         id="path84" /><path
         d="m 8343.8,5407.24 -1.1,173.19 c 8.16,47.95 -9.72,-29.97 3.17,11.93 9.76,31.74 123.33,13.68 151.09,11.44 -11.47,-61.03 -110.04,-183.88 -153.16,-196.56 z m 138.52,18.97 c 2.61,27.34 8.98,25.64 23.84,46.27 27.59,38.32 53.22,106.07 74.92,133.32 l 120.48,-0.9 c 9.53,-53.12 -163.2,-167.52 -219.24,-178.69 z m -216.85,178.47 c 23.57,-32.89 13.53,-163.79 6.82,-197.79 -51,22.19 -86.8,77.12 -121.41,128.9 -43.87,65.67 -34.83,66.39 -11.01,70.68 19.86,3.58 109.04,1.43 125.6,-1.79 z m -228.7,-0.47 c 15.87,-15.87 13.18,-15.09 23.89,-40.09 36.02,-84.07 71.44,-100.76 73.05,-136.3 -81.89,11.62 -228.54,151.29 -218.27,170.6 7.91,14.88 105.23,11.05 121.33,5.79 z m -214.72,245.27 c 29.8,8.94 137.76,8.77 168.02,0.32 7.8,-28.2 7.3,-60.35 12.96,-91.74 5.61,-31.08 14.58,-59.69 5.22,-82.29 -25.04,-5.59 -62.54,-2.58 -92.09,-2.92 -41.38,-0.49 -51.09,-6.46 -64.99,23.89 -15.7,34.26 -40.15,112.65 -29.12,152.74 z m 456.04,-24.65 c 0.36,-64.86 6.09,-88.19 -5.96,-146.55 -25.73,-11.15 -145.28,-8.63 -178.47,-3.98 -18,32.54 -20.69,63.61 -25.24,101.17 -5.79,47.69 -27.23,78.82 29.56,78.82 110.64,0 179.87,16.8 180.11,-29.46 z m 64.18,6.97 c 0,28.29 8.16,22.49 34.87,22.49 212.06,0 183.63,13.1 171.02,-81.8 -4.92,-37.01 -11.53,-70.93 -25.74,-99.23 -216.76,-1.62 -180.15,-36.46 -180.15,158.54 z m 268.31,-150.2 c -15.16,16.84 -3.73,33.5 3.79,74.95 2.96,16.31 6.24,74.57 8.48,80.89 8.84,25.03 -1.5,15.55 32.42,17.66 l 140.45,-1.57 c 11.61,-51.67 -19.49,-140.15 -39.17,-177.98 -23.95,-3.42 -51.93,-2.32 -79.39,-2.54 -46.27,-0.37 -52.24,-5.03 -66.58,8.59 z m -265.15,412.2 c 37.93,13.45 126.68,5.9 171.29,5.73 26.76,-19.9 44.92,-145.62 36.89,-170.65 -3.88,-2.41 -5.12,-4.2 -14.23,-7.17 l -36.29,-3.63 c -46.41,-0.17 -120.24,-1.73 -160.72,6.22 z m -280.58,-169.59 c -6.32,59.66 11.93,125.04 25.15,174.45 l 28.97,0.94 c 160.56,2.6 159.12,9.88 159.12,-37.51 0,-19.04 3.15,-122.03 -4.73,-132.59 -34.87,-20.86 -164.26,-15.62 -208.51,-5.29 z m -245.36,-0.92 c -5.9,59.8 19.41,130 39.72,173.62 54.02,4.95 103.04,7.83 154.79,-3.79 l -22.73,-168.8 c -36.35,-7.48 -147.89,-8.41 -171.78,-1.03 z m 906.6,176.31 c 63.81,0 74.82,-128.14 70.99,-178.44 l -140.78,-2.7 c -49.73,0 -32.33,46.77 -40.55,94.54 -17.79,103.45 -42.76,86.6 110.34,86.6 z m -237.29,72.41 c -21.65,-7.35 -56.41,-4.44 -84.04,-4.72 -38.51,-0.37 -58.35,-8.57 -62.93,26.67 -3.31,25.47 -1.27,148.4 4.01,171.59 40.51,-4.15 126.93,-125.12 142.5,-165.57 8.64,-22.44 2.81,-23.48 0.46,-27.97 z m -368.5,2.26 c 6.62,41.07 112.03,200.65 152.3,187.89 6.2,-13.97 5.49,4.17 5.49,-20.93 0,-140.78 16.13,-173.67 -33.5,-173.67 -36.39,0 -92.82,-7.41 -124.29,6.71 z m 572.29,27.77 c 11.49,-16.2 10.35,-21.09 6.38,-30.09 -22.33,-8.01 -69.72,-7.66 -98.58,-4.49 -36.26,3.97 -32.73,20.88 -46.57,50.48 -17.94,38.37 -69.99,102.89 -70.17,128.66 54.98,-3.29 149.06,-80.85 185.33,-118.39 7.82,-8.1 15.37,-14.56 23.61,-26.17 z m -748.16,-34.48 c -78.51,0 15.36,71.08 31.65,86.28 30.56,28.51 69.46,57 110.85,77.7 90.63,45.34 30,-20.1 23.37,-30.4 -96.65,-150.12 -22.45,-133.58 -165.87,-133.58 z m -198.49,-245.04 c 0,-192.74 38.4,-297.97 160.65,-428.81 81.67,-87.4 237.3,-167.78 358.88,-167.78 h 83.75 c 186.89,0 387.09,148.81 462.86,308.32 108.61,228.65 66.63,493.68 -113.44,658.68 -45.63,41.82 -83.23,74.03 -152.97,105.36 -218.24,98.03 -466.56,56.13 -633.1,-109.05 -68.41,-67.85 -166.63,-217.31 -166.63,-366.72"
         style="fill:#000000;fill-opacity:1;fill-rule:evenodd;stroke:none"
         id="path86" /><path
         d="m 7515.71,5908.57 c 0,412.32 370.36,772.29 770.7,772.29 260.51,0 437.85,-88.45 578.05,-229.22 130.24,-130.77 236.44,-328.01 236.44,-529.12 0,-225.76 -36.82,-328.85 -152.27,-501.51 -120.63,-180.43 -392.67,-339.53 -646.01,-327.51 -211.99,10.06 -412.97,83.19 -552.02,230.45 -157.62,166.92 -234.89,340.23 -234.89,584.62 z m -90.57,6.98 c 0,-249.11 60.61,-408.45 201.71,-589.76 23.65,-30.39 26.53,-31.86 53.68,-57.92 200.42,-192.36 378.77,-262.76 668.69,-262.76 121.72,0 244.53,39.75 338.21,83.62 269.86,126.39 504.03,426.13 504.03,764.01 0,216.51 -42.52,381.66 -170.69,559.89 -382.33,531.6 -1235.77,456.56 -1511.42,-145.99 -45.85,-100.21 -84.21,-220.42 -84.21,-351.09"
         style="fill:#000000;fill-opacity:1;fill-rule:evenodd;stroke:none"
         id="path88" /><path
         d="m 5142.43,6447.92 c 172.03,35.26 339.07,-38.13 440.65,-119.37 102.47,-81.96 173.46,-192.89 204.68,-360.56 32.51,-174.56 -41.62,-338.28 -121.18,-437.11 -301.71,-374.74 -930.7,-221.99 -1003.69,268.53 -27.6,185.57 35.2,334.87 118.05,442.37 96.84,125.67 214.11,175.94 361.49,206.14 z m -798.54,-504.46 c 0,-236.83 26.25,-375.83 163.52,-571.84 32.81,-46.86 62.19,-74.05 97.85,-111.44 135.7,-142.3 369.36,-255.07 578.83,-255.07 214.02,0 368.19,34.1 540.45,153.63 125.1,86.8 223.14,194.92 290.17,331.09 126.49,256.94 125.4,542.52 -1.97,800.47 -145.49,294.62 -463.44,484.36 -793.92,481.36 -351.11,-3.2 -642.17,-207.84 -785.23,-489.55 -45.01,-88.64 -89.7,-224.44 -89.7,-338.65"
         style="fill:#000000;fill-opacity:1;fill-rule:evenodd;stroke:none"
         id="path90" /><path
         d="m 5267.84,6090.61 c -14.37,-29.52 -17.07,-155.39 9.24,-163.89 24.8,-8 160.51,-3.12 181.83,0.01 17.27,39.36 -10.99,153.55 -18.28,160.87 -16.38,16.45 -149.65,10.57 -172.79,3.01"
         style="fill:#000000;fill-opacity:1;fill-rule:evenodd;stroke:none"
         id="path92" /><path
         d="m 5266.28,5848.62 c -5.25,-22.93 -9.34,-138.43 0.18,-163.36 31.19,-15.54 134.86,-13.64 171.33,-2.46 18.02,29.92 28.94,117.69 25.51,163.29 l -197.02,2.53"
         style="fill:#000000;fill-opacity:1;fill-rule:evenodd;stroke:none"
         id="path94" /><path
         d="m 5177.98,5927.27 c 3.8,6.51 3.58,4.02 6.03,16.98 l 1.6,76.02 c 0.75,90.4 26.29,75.6 -155.07,75.6 -44.5,0 -47.19,-157.75 -47.07,-158.08 7.82,-21.21 38.02,-11.92 88.94,-11.81 33.02,0.07 78.88,-4.67 105.57,1.29"
         style="fill:#000000;fill-opacity:1;fill-rule:evenodd;stroke:none"
         id="path96" /><path
         d="m 5012.77,5681.44 167.66,1.47 c 14.28,40.61 3.07,108.28 7.09,152.41 l -14.11,13.1 c -38.82,-0.66 -141.4,5.63 -170.86,0.47 -34.53,-6.07 -17.51,-38.05 -12.2,-78.09 4.34,-32.68 6.45,-59.99 22.42,-89.36"
         style="fill:#000000;fill-opacity:1;fill-rule:evenodd;stroke:none"
         id="path98" /><path
         d="m 5547.63,5845.84 c -35.26,-194.75 -30.54,-170.61 33.93,-169.11 26.9,0.63 56.76,-1.09 82.42,3.07 23.73,27.13 56.79,117.06 46.38,161.25 -30.6,19.28 -112.98,7.16 -162.73,4.79"
         style="fill:#000000;fill-opacity:1;fill-rule:evenodd;stroke:none"
         id="path100" /><path
         d="m 4786.28,5681.25 137.51,-4.11 c 1.64,17.43 -10.55,114.72 -13.83,140.76 -5.37,42.65 -54.33,32.31 -95.33,31.71 -61.9,-0.92 -84.99,15.96 -72.15,-54.06 7.55,-41.14 19,-89.21 43.8,-114.3"
         style="fill:#000000;fill-opacity:1;fill-rule:evenodd;stroke:none"
         id="path102" /><path
         d="m 5544.22,5926.48 169.55,0.13 c -0.73,55.95 -25.1,134.54 -48.81,168.82 l -136.45,0.09 c -6.05,-31.81 15.42,-120.09 15.71,-169.04"
         style="fill:#000000;fill-opacity:1;fill-rule:evenodd;stroke:none"
         id="path104" /><path
         d="m 4742.24,5927.34 155.7,-1.66 c 20.6,35.41 6.6,54.71 23.19,127.77 3.7,16.33 7.32,21.02 -0.21,39.52 -22.98,5.24 -58.36,2.98 -86.14,3.18 -38.02,0.28 -49.99,7.22 -64.68,-24.44 -16.82,-36.27 -34.21,-100.92 -27.86,-144.37"
         style="fill:#000000;fill-opacity:1;fill-rule:evenodd;stroke:none"
         id="path106" /><path
         d="m 5267.24,6357.71 c -4.87,-39.84 -11.12,-152.36 -1.47,-180.25 64.14,-6.33 76.49,-10.03 139.09,-1.92 -1.44,45.86 -107.63,181.94 -137.62,182.17"
         style="fill:#000000;fill-opacity:1;fill-rule:evenodd;stroke:none"
         id="path108" /><path
         d="m 5262.9,5454.96 -1.88,-6.97 3.08,-31.22 c 43.14,5.61 135.01,131.71 140.3,181.72 l -139.47,3.3 -2.03,-146.83"
         style="fill:#000000;fill-opacity:1;fill-rule:evenodd;stroke:none"
         id="path110" /><path
         d="m 5187.05,5417.77 -2.6,181.41 -142.23,2.53 c 12.59,-60.24 101.3,-174.55 144.83,-183.94"
         style="fill:#000000;fill-opacity:1;fill-rule:evenodd;stroke:none"
         id="path112" /><path
         d="m 5043.93,6175.11 137.89,-1.35 -2.64,177.7 c -0.53,1.38 -1.6,3.68 -2.79,5.28 -15.84,-0.08 -123.99,-117.87 -132.46,-181.63"
         style="fill:#000000;fill-opacity:1;fill-rule:evenodd;stroke:none"
         id="path114" /><path
         d="m 5496.46,6173.69 119.18,0.03 c -12.96,56.76 -140.58,146.82 -211.14,169.49 l 91.96,-169.52"
         style="fill:#000000;fill-opacity:1;fill-rule:evenodd;stroke:none"
         id="path116" /><path
         d="m 4835.02,6175.11 119.62,-2.02 c 51.6,121.76 58.57,101.81 93.19,168.08 -58.82,-8.05 -205.68,-116.26 -212.81,-166.06"
         style="fill:#000000;fill-opacity:1;fill-rule:evenodd;stroke:none"
         id="path118" /><path
         d="m 5045.32,5435.35 c -13.57,33.63 -60.14,82.91 -90.13,166.09 h -120.5 c 12.63,-48.95 143.58,-158.3 210.63,-166.09"
         style="fill:#000000;fill-opacity:1;fill-rule:evenodd;stroke:none"
         id="path120" /><path
         d="m 5406.33,5435.35 c 66.61,11.42 197.33,115.92 209.37,165.08 l -118.5,0.72 c -11.64,-22.92 -26.22,-56.7 -41.39,-82.89 -9.16,-15.83 -15.44,-25.14 -24.2,-38.62 -6.25,-9.62 -8.97,-12.32 -14.13,-20.76 -14.18,-23.24 -4.6,4.45 -11.15,-23.53"
         style="fill:#000000;fill-opacity:1;fill-rule:evenodd;stroke:none"
         id="path122" /><path
         d="m 2081.64,6422.43 c 302.78,42.56 572.08,-202.11 596.59,-472.02 29.22,-321.63 -206.26,-580.7 -475.35,-597.72 -552.92,-34.98 -746.45,574.94 -470.37,880.74 80.99,89.7 185.45,165.99 349.13,189 z m -10.18,213.75 c -136.96,-24.53 -177.44,-32.26 -290.14,-88.89 -246.33,-123.77 -429.29,-460.53 -386.12,-728.27 33.2,-205.89 91.63,-356.25 254.87,-499.11 136.71,-119.63 319.62,-197.04 567,-182.52 196.03,11.52 402.7,142.1 495.98,255.09 231.07,279.86 252.89,689.77 14.91,970.29 -90.96,107.21 -192.59,184.58 -331.33,234.09 -90.01,32.13 -223.99,57.43 -325.17,39.32"
         style="fill:#000000;fill-opacity:1;fill-rule:evenodd;stroke:none"
         id="path124" /><path
         d="m 2041.91,6686.44 c 309.86,59.64 659.54,-139.81 803.2,-402.08 219.98,-401.59 74.51,-881.78 -298.54,-1095.04 -474.05,-271 -1104.44,-14.82 -1200.87,601.02 -36.18,231.04 50.2,438.33 178.23,609.93 121.97,163.48 315.08,247.12 517.98,286.17 z m -779.34,-722.05 c 0,-185.22 0.98,-286.6 86.82,-463.84 132.82,-274.26 436.37,-495.44 756.86,-495.44 228.63,0 367.37,36.02 552.48,162.61 30.65,20.96 96.56,73.79 118.14,98.08 148.04,166.59 252.02,348.61 252.02,642.77 0,581 -614.93,1034.67 -1213.17,799.82 -54.87,-21.55 -96.98,-42.94 -142.72,-73.4 -182.65,-121.63 -304.04,-266.79 -374.48,-490.67 -11.61,-36.88 -35.95,-144.14 -35.95,-179.93"
         style="fill:#000000;fill-opacity:1;fill-rule:evenodd;stroke:none"
         id="path126" /><path
         d="m 19437.9,5872.95 c 0,113.8 31.2,221.85 74.1,312.72 32.5,68.69 102.4,174.47 155.2,221.67 186.2,166.21 324.2,235.57 604.2,235.57 151.4,0 363.9,-88.02 474.7,-190.61 134.5,-124.54 277,-314.59 277,-558.42 v -76.76 c 0,-217.41 -120.9,-422.05 -238.8,-533.8 -238.8,-226.38 -581.9,-298.93 -886.8,-154.32 -288.8,136.95 -459.6,411.08 -459.6,743.95 z m -90.6,0 c 0,-237.81 52.5,-363.45 163.9,-536.67 72.7,-112.96 209.2,-229.15 361.8,-294.41 184.3,-78.8 347.5,-95.47 557.3,-52.85 82.6,16.78 170,51.69 235.9,91.13 214.7,128.53 357.9,306.66 423.1,554.25 54.1,205.19 19.8,435.35 -66.9,612.43 -131.5,268.56 -448.4,486.67 -751,486.67 -161.1,0 -267.1,-13.38 -419.5,-85.16 -293.5,-138.3 -504.6,-448.13 -504.6,-775.39"
         style="fill:#000000;fill-opacity:1;fill-rule:evenodd;stroke:none"
         id="path128" /><path
         d="m 17148.1,5292.32 c -45.3,20.61 -190.6,210.77 -217.7,251.34 -65.6,98.06 -122.8,169.39 -165.5,301.77 -47.4,146.58 9.2,298.68 99.1,388.36 288.3,287.32 781.3,11.63 664.9,-392.68 -30.3,-105.26 -110.4,-226.93 -165.9,-301.58 -34.7,-46.61 -174.3,-224.34 -214.9,-247.21 z m -882,615.52 V 5789.2 c 0,-233.22 156.1,-475.79 268.6,-578.4 147,-134.01 331.7,-238.33 606.4,-244.1 333.3,-6.99 655.1,195.92 794.8,481.41 121.8,248.78 130.4,555.17 0.5,800.99 -76.3,144.39 -171.9,251.34 -298.8,336.65 -45.3,30.39 -89.5,53.25 -140.7,75.75 -309.1,135.79 -718.8,70.64 -960.4,-169.88 -113.5,-112.94 -270.4,-338.47 -270.4,-583.78"
         style="fill:#000000;fill-opacity:1;fill-rule:evenodd;stroke:none"
         id="path130" /><path
         d="m 13260.2,5872.95 c 0,102.6 38.9,234.57 76.3,315.03 80.2,172.46 216.1,304.32 381.3,386.51 226.1,112.54 476.5,104.12 703.2,-1.8 421.4,-196.89 597.3,-763.03 309.5,-1178.46 -13.5,-19.52 -24.2,-36.75 -41.7,-56.03 -73.5,-80.98 -142.1,-155.93 -268.7,-212.54 -162.3,-72.54 -225.9,-79.22 -398.6,-79.22 -215.4,0 -412.6,122.2 -530.2,240.81 -137,138.23 -231.1,335.68 -231.1,585.7 z m -75.4,41.87 c 0,-185.26 4.7,-289.67 95.5,-469.04 263.9,-520.98 975.5,-653.6 1410.6,-221.39 346.6,344.22 348.1,882.68 4.7,1245.95 -329.7,348.79 -911.3,340.68 -1229.6,27.82 -71.6,-70.39 -132.7,-138.69 -186.1,-246.45 -40.5,-81.75 -95.1,-231.3 -95.1,-336.89"
         style="fill:#000000;fill-opacity:1;fill-rule:evenodd;stroke:none"
         id="path132" /><path
         d="m 23057.4,6133.38 c 271,87.49 421.1,-335.43 126.3,-427.94 -267.9,-84.06 -416.8,334.12 -126.3,427.94 z m 63.3,-1093.77 c 105.8,69.19 344.3,410.18 407.4,516.59 36.7,61.94 77,139.23 99.8,214.43 108.8,357.27 -167,680.82 -507.3,680.02 -337.1,-0.79 -608.6,-314.74 -504.1,-677.48 41,-142.14 144.3,-297.37 216.3,-397.33 43.9,-60.9 245.2,-313.23 287.9,-336.23"
         style="fill:#000000;fill-opacity:1;fill-rule:evenodd;stroke:none"
         id="path134" /><path
         d="m 20190.5,6110.76 c 96.1,30.09 182.2,-40.61 201.9,-116.78 12.9,-49.72 2.2,-101.3 -22.9,-135.18 -18.1,-24.31 -52.8,-58.73 -92.5,-68.51 -208.3,-51.4 -311,250.2 -86.5,320.47 z m 39,-811.35 c 22.5,8.61 13.3,7.13 31.1,26.13 l 80,87.15 c 18.7,18.56 34.9,37.79 50.7,61.21 18.7,27.65 34.2,41.77 51.1,67.46 69.7,106.02 121,165.7 163.8,297.27 112.8,346.85 -264.4,611.35 -551.5,467.46 -17.9,-8.95 -56.7,-33.31 -69.4,-42.66 -59.6,-43.83 -114.1,-131.05 -136.8,-211.81 -19.4,-68.87 -12.9,-139.11 4.6,-206.06 41.5,-158.76 309.3,-515.23 376.4,-546.15"
         style="fill:#000000;fill-opacity:1;fill-rule:evenodd;stroke:none"
         id="path136" /><path
         d="m 17129,6111.08 c -55.7,-11.42 -74.4,-16.99 -107.7,-55.57 -84.8,-98.24 -15.7,-280.97 146.4,-265.01 86.4,8.49 150.9,84.71 139.6,186.11 -8.9,79.94 -95.2,151.53 -178.3,134.47"
         style="fill:#000000;fill-opacity:1;fill-rule:evenodd;stroke:none"
         id="path138" /><path
         d="m 13690.5,5949.71 c 0,286.7 354.3,506.61 633.3,267.38 81.6,-69.99 117.8,-168.69 117.8,-295.3 0,-161.86 -298.4,-550.68 -371.3,-596.74 -48.7,16.87 -379.8,399.37 -379.8,624.66 z m 361.7,653.59 c -128.8,-16.11 -194.1,-20.09 -299.8,-70.3 -477.7,-226.73 -594.3,-840.79 -209.8,-1222.61 288.4,-286.41 780,-282.46 1062.7,13.78 404.2,423.59 186.3,1053.03 -242.7,1217.98 -75.7,29.1 -223.3,72.04 -310.4,61.15"
         style="fill:#000000;fill-opacity:1;fill-rule:evenodd;stroke:none"
         id="path140" /><path
         d="m 14052.5,6093.77 c -209.3,-30.49 -158.6,-315.63 22.1,-302.41 215.5,15.75 169,330.25 -22.1,302.41"
         style="fill:#000000;fill-opacity:1;fill-rule:evenodd;stroke:none"
         id="path142" /><path
         d="m 2102.11,5689.4 c 12.1,33.3 6.8,120.87 1.92,159.97 -43.27,3.49 -88.35,0.72 -130.8,1.49 -71.23,1.3 -60.71,-4.73 -50.66,-76.65 12.15,-86.89 0.98,-98.67 179.54,-84.81"
         style="fill:#000000;fill-opacity:1;fill-rule:evenodd;stroke:none"
         id="path144" /><path
         d="m 2183.46,5692.45 c 25.13,-6.11 132.35,-9.47 159.32,-0.22 17.49,23.42 37.06,120.37 24.95,156.67 -18.72,1.97 -157.52,4.28 -168.81,0.62 -32.98,-10.7 -21.64,-119.02 -15.46,-157.07"
         style="fill:#000000;fill-opacity:1;fill-rule:evenodd;stroke:none"
         id="path146" /><path
         d="m 2187.22,5926.67 181.35,-1.72 c 8.72,50.99 0.95,54.63 -7.75,111.31 -9.18,59.81 -5.73,48.27 -142.9,48.27 -51.04,0 -38.29,-14.87 -37.57,-64.13 0.48,-33.11 -3.74,-66.91 6.87,-93.73"
         style="fill:#000000;fill-opacity:1;fill-rule:evenodd;stroke:none"
         id="path148" /><path
         d="m 1921.14,5925.77 c 48,-7.39 132.97,-4.32 184.99,-2.65 l -0.74,159.28 -145.7,2.13 c -41.21,-0.08 -42.56,-133.03 -38.55,-158.76"
         style="fill:#000000;fill-opacity:1;fill-rule:evenodd;stroke:none"
         id="path150" /><path
         d="m 2428.79,5706.19 c 0,-28.87 41.42,-17.96 117.15,-17.96 29.05,0 42.77,58.77 49.31,87 13.09,56.52 29.12,75.82 -34.65,75.81 -44.47,-0.01 -107.48,11.22 -115.79,-21.12 -1.67,-6.48 -16.02,-120.21 -16.02,-123.73"
         style="fill:#000000;fill-opacity:1;fill-rule:evenodd;stroke:none"
         id="path152" /><path
         d="m 1689.71,5850.62 c -10.19,-39.89 11.15,-108.29 24.71,-138.39 12.72,-28.24 19.01,-24.44 56.45,-24.41 21.83,0.02 69.54,-6.65 82.9,5.95 7.91,7.45 -6.49,121.35 -11.27,137.95 -9.04,31.43 -81.88,19.85 -152.79,18.9"
         style="fill:#000000;fill-opacity:1;fill-rule:evenodd;stroke:none"
         id="path154" /><path
         d="m 2451.39,5925.98 c 35.64,-7.03 118.27,-8.23 152.62,1.28 5.97,40.81 -20.12,122.2 -40.05,152.85 -31.85,8.56 -101.52,8.09 -133.94,0.55 -1.07,-11.15 16.77,-143.16 21.37,-154.68"
         style="fill:#000000;fill-opacity:1;fill-rule:evenodd;stroke:none"
         id="path156" /><path
         d="m 1687.15,5923.07 151.02,-0.21 c 7.98,32.51 12.2,82.16 17.51,111.73 12,66.94 0.29,50.3 -70.59,50.23 -59.04,-0.04 -63.73,6.35 -79.95,-47.2 -11.32,-37.36 -22.26,-70.69 -17.99,-114.55"
         style="fill:#000000;fill-opacity:1;fill-rule:evenodd;stroke:none"
         id="path158" /><path
         d="m 2184.93,5613.98 c -8.39,-36.22 -5.89,-131.5 -3.46,-171.31 34.13,5.24 52.23,37.51 80.32,73.14 21.18,26.87 49.27,62.88 53.78,100.64 -16.84,3.93 -111.07,6.45 -130.64,-2.47"
         style="fill:#000000;fill-opacity:1;fill-rule:evenodd;stroke:none"
         id="path160" /><path
         d="m 2315.35,6160.07 c -5.17,30.7 -33.65,71.76 -50.27,95.72 -18.08,26.06 -53.01,67.62 -84.72,73.8 -4.98,-168.3 -22.98,-193.43 134.99,-169.52"
         style="fill:#000000;fill-opacity:1;fill-rule:evenodd;stroke:none"
         id="path162" /><path
         d="m 1972.4,6160.01 112.94,-3.8 c 35.19,0.04 25.13,79.44 22.63,150.13 l -2.01,28.25 c -42.48,-21.98 -117.55,-113.19 -133.56,-174.58"
         style="fill:#000000;fill-opacity:1;fill-rule:evenodd;stroke:none"
         id="path164" /><path
         d="m 1972.13,5618.18 c 11.06,-57.45 93.92,-161.66 134.83,-177.95 l 1.2,28.69 -0.19,118.64 -1.18,27.87 -134.66,2.75"
         style="fill:#000000;fill-opacity:1;fill-rule:evenodd;stroke:none"
         id="path166" /><path
         d="m 2319.37,5461.51 c 76.15,16.9 171.91,105.45 196.01,152.44 -14.01,7.07 -43.67,4.22 -67.99,5.06 -66.78,2.32 -37.62,-0.63 -91.59,-92.57 -14,-23.85 -29.21,-35.69 -36.43,-64.93"
         style="fill:#000000;fill-opacity:1;fill-rule:evenodd;stroke:none"
         id="path168" /><path
         d="m 2397.25,6160.01 c 37.12,-4.25 82.75,-10 118.27,1.88 -20.6,41 -132.73,146.4 -198.7,150.88 13.3,-32.86 53.26,-70.56 80.43,-152.76"
         style="fill:#000000;fill-opacity:1;fill-rule:evenodd;stroke:none"
         id="path170" /><path
         d="m 1774.52,5613.13 c 37.99,-52.08 108.71,-131.95 193.81,-151.34 -3.2,17.88 -52.87,99.94 -67.87,129.4 -17.17,33.74 -24.42,29.25 -60.72,27.08 -21.61,-1.29 -48.97,5.45 -65.22,-5.14"
         style="fill:#000000;fill-opacity:1;fill-rule:evenodd;stroke:none"
         id="path172" /><path
         d="m 1774.5,6159.03 116.03,-1.15 c 26.78,81.57 70.08,121.59 79.03,155.73 -64.47,-11.43 -178.97,-105.87 -195.06,-154.58"
         style="fill:#000000;fill-opacity:1;fill-rule:evenodd;stroke:none"
         id="path174" /><path
         d="m 2055.6,9707.87 0.11,-26.57 c 34.01,-15.62 137.9,-14.58 174.15,-2.37 l 1.85,31.03 c -3.69,0.72 -6.62,3.68 -7.85,1.76 l -33.56,4 c -27.17,0.68 -122.04,2.86 -134.7,-7.85"
         style="fill:#000000;fill-opacity:1;fill-rule:evenodd;stroke:none"
         id="path176" /><path
         d="m 23035.5,9722.57 111.9,0.5 1.9,-112.79 -113.9,-3.57 z m 416.9,-88.72 c -8.7,26.14 -8.9,38.34 -1.2,64.45 39.5,11.95 88.4,6.79 130.5,6.79 28.8,0 26.8,-9.17 26.8,-39.7 0,-46.84 -14.7,-36.81 -61.5,-36.11 -31.2,0.46 -64.9,-3.98 -94.6,4.57 z m -108,150.2 c -16.2,-9.84 -86.4,-17.26 -104.9,0.09 -14.6,13.77 -16,90.7 -0.3,104.27 15,12.95 94.1,9.79 105,-0.44 14.8,-13.77 9.5,-85.77 0.2,-103.92 z m -230.4,-7.27 -73.7,2.44 c -9.2,44.56 -8.4,67.37 -2,114.07 106.2,2.45 113.5,9.31 113.5,-32.5 0,-52.87 11.2,-84.01 -37.8,-84.01 z m -164.5,4.64 c -23.1,-7.55 -50.9,-4.64 -79.7,-4.64 -33.1,0 -38.2,3.85 -39.6,34.59 -1.1,22.9 -2,55.7 4.7,76.72 27.4,12.77 85.8,7.84 113.4,2.36 z m 189,279.18 c 11.8,-10.8 2.8,10.6 11.1,-19 6,-21.4 1,-67.15 -2.8,-88.13 l -110.6,-3.29 c -1.6,22.91 -7.6,94.72 3.6,109.22 13,17 86.6,10.9 98.7,1.2 z m 97.4,-105.9 c -10,29.12 -5.5,74.1 -2.2,105.9 28.9,9.3 118.1,21.1 118.1,-18.4 0,-106.33 7.6,-92.89 -48.8,-92.52 -23.8,0.16 -44.7,-0.97 -67.1,5.02 z m -405,17.75 c 0,100.95 -9.2,95.75 59.8,95.55 71.3,-0.2 61,0.2 61,-95.55 0,-30.79 -26.6,-22.06 -88.9,-22.06 -21.6,0 -31.9,1.67 -31.9,22.06 z m 309.6,154.85 c -15.5,-10.8 -29.3,-7.6 -54.6,-7.9 -40.8,-0.4 -66,-13.2 -48.6,118 l 108.3,-3.1 c 7,-31.7 13.7,-86.7 -5.1,-107 z m 90.5,75.4 c 0,47.6 12.9,35.2 64.7,35.2 43.2,-0.1 56.1,9.4 56.1,-35.2 0,-28.8 2.7,-56.5 -4,-79.4 -135,-10.9 -116.8,-6.4 -116.8,79.4 z m -397,-78.7 c -3.4,20.3 -4.1,47.8 -3.8,72.4 0.3,30.1 0.7,40.8 32.6,40.8 84.7,0 88.9,7.6 88.9,-34.5 0,-25.1 3,-54 -4,-77.8 -32.3,-10 -79.4,-5.3 -113.7,-0.9 z m 875.3,-586.24 c 12.2,45.42 4.9,601.64 5.6,735.54 0.3,51.1 16.5,43.2 -133.2,43.2 -136.3,0 -849,8.8 -919.7,-3 -8.9,-184.5 -0.6,-478.3 -0.9,-683 -0.2,-124.75 -28,-94.85 131.9,-95.25 67.2,-0.17 870.4,-5.77 916.3,2.51"
         style="fill:#000000;fill-opacity:1;fill-rule:evenodd;stroke:none"
         id="path178" /><path
         d="m 22759.2,10788.9 1.4,-422.6 c 259.1,-5 528,1.6 787,-2.5 47.8,-0.7 41.4,-20.7 42.2,73.7 -63.9,9.3 -220.7,3.6 -294.3,3.5 -67.2,-0.1 -53.2,-5.7 -53.2,152.5 0,50.4 6.3,172.6 -5.2,214.1 -129.9,5.3 -347.4,-3.3 -437.1,3.3 -23.7,0 -40.8,1.2 -40.8,-22"
         style="fill:#000000;fill-opacity:1;fill-rule:evenodd;stroke:none"
         id="path180" /><path
         d="m 22374.3,10230.6 v -634.99 c 0,-75.12 45.5,-60.41 146.5,-60.41 63.7,0 46,78.38 46,172.07 v 446.63 c 0,163 26.1,162.6 -136.7,162.6 -58.8,0 -55.8,-34.1 -55.8,-85.9"
         style="fill:#000000;fill-opacity:1;fill-rule:evenodd;stroke:none"
         id="path182" /><path
         d="m 23299.9,10500 272.8,-2.5 c 1.1,38.6 4.2,6.7 -7.1,24.5 l -227.9,239.4 c -16.2,18.3 -14,27.7 -42.4,34.4 13.2,-85.9 -8.4,-227.2 4.6,-295.8"
         style="fill:#000000;fill-opacity:1;fill-rule:evenodd;stroke:none"
         id="path184" /><path
         d="m 20120.7,10933 c 103.8,13.5 253,-15.8 339.4,-53.3 187.5,-81.4 323.5,-197.2 415.7,-379.9 98.5,-195.1 117.6,-450.2 31.2,-645.92 -36.2,-82.09 -56.6,-125.94 -107.9,-192.36 l -97.2,-105.4 c -64.6,-50.77 -83.3,-74.69 -172.3,-120.71 -489.6,-253.19 -1113.3,72.4 -1151.8,655.49 -21.6,325.7 163.9,629.8 434.2,759.8 133.9,64.4 172.5,64.5 308.7,82.3 z m 2.3,89.3 c -140.7,-17.1 -209.1,-16.6 -350.7,-89.7 -136.4,-70.4 -263,-179.3 -346.6,-309.4 -96.3,-149.8 -151.7,-337.4 -138.8,-532.2 17.1,-257.83 141.8,-501.24 338.8,-646.04 179.6,-131.96 351.1,-195.78 597.3,-184.89 162.2,7.18 359.3,79.5 478.9,177.38 l 89,78.71 c 155.2,155.84 279.8,383.07 259.4,677.44 -8.5,122.2 -39.5,250.2 -91.5,347 -50.7,94.2 -121.9,193.4 -188.7,251 -80.8,69.6 -150.9,119.2 -270.1,169.8 -98.1,41.7 -253.3,75.8 -377,60.9"
         style="fill:#000000;fill-opacity:1;fill-rule:evenodd;stroke:none"
         id="path186" /><path
         d="m 20213.7,9751.45 c -27.5,-7.76 -51.9,-6.99 -79.8,-0.11 -11.5,54.98 -15.7,87.24 40.2,87.28 37.3,0.02 56.2,-2.88 39.6,-87.17 z m 341.6,14.61 c -42.1,-1.14 -105.2,-9.09 -114.3,13.4 -1.2,2.97 -2.1,21.8 -1.4,24.55 7.1,25.63 0.9,11 14,16.63 11.1,4.81 87.7,1.23 104.6,0.18 5.7,-22.67 8.2,-31.64 -2.9,-54.76 z m -342,196.8 c 3.7,-16.54 9.5,-64.42 0.6,-78.47 -8.6,-13.54 -9.5,-10.11 -32.4,-10.99 -14,-0.55 -36,0.48 -43.6,7.58 -9.8,9.06 -14.3,58.98 -3.9,75.58 10.5,16.96 19.4,15.74 79.3,6.3 z m 152.2,-83.11 c -95.3,-13.82 -88,-4.2 -88,50.83 0,43.57 7.4,35.69 49.4,36.7 41.9,1 48,-3.89 38.6,-87.53 z m -298.9,-1.11 c -89.1,-9.41 -87.3,-6.24 -87.3,51.94 0,40.85 -0.4,37.7 48.3,36.58 50.4,-1.16 45.7,-11.82 39,-88.52 z m 149.9,213.76 c 2,-76.7 6.3,-113.28 -82.4,-83.5 -21.8,104 1.7,89.1 82.4,83.5 z m -236.6,-1.6 c 108.9,17.7 90,-7.9 90,-48.6 0,-41.1 -24.7,-47.88 -68.3,-38.7 -34.6,7.3 -23,45.2 -21.7,87.3 z m 303.3,-77.6 c -9.1,22.1 -6.7,50.7 -3.1,77.9 l 84.7,4.5 c 11.7,-65.7 11,-95 -43.9,-93.4 -26.5,0.7 -22.2,-0.1 -37.7,11 z m -152.9,175.6 c 0,36.1 -4.2,37.3 84,32.1 4,-35.5 12.4,-85.6 -19.3,-85.6 -72.3,0 -64.7,-7.2 -64.7,53.5 z m 147.2,0 c 0,23.9 -2,33.3 22.2,33.3 52.2,0 83.5,15.5 64.7,-83.6 -102.8,-25.7 -86.9,21.7 -86.9,50.3 z m -293.4,31.8 c 103.9,10.3 85.8,-3.2 85.8,-59.7 0,-31.8 -80.5,-47.2 -90.1,0.7 z m 651.3,-520.31 c 8.2,24.15 9.4,541.71 1.5,572.91 -13.1,18.9 -369.5,9.1 -386.1,9 -66.1,-0.4 -358.6,4.4 -396.9,-3.6 -11.3,-74 -1.7,-389.22 -3,-508.58 -1,-98.16 0.7,-76.45 99.8,-76.28 88,0.15 652.4,-10.03 684.7,6.55"
         style="fill:#000000;fill-opacity:1;fill-rule:evenodd;stroke:none"
         id="path188" /><path
         d="m 19922.7,10614.5 v -265.2 c 0,-27.5 -1.8,-32.8 28,-32.8 l 590.2,0.9 c 10.8,29.7 12.7,31.6 -1.1,56.2 -51,6 -199.9,-13.8 -247.1,5.9 -12.3,35.6 0.5,186.5 -3.3,236 -3.4,44.7 -13,33.1 -52.5,33.1 h -265.2 c -39.4,0 -49,10.6 -49,-34.1"
         style="fill:#000000;fill-opacity:1;fill-rule:evenodd;stroke:none"
         id="path190" /><path
         d="m 19635.9,10237.6 v -495.44 c 0,-53.79 29.4,-47.31 65.4,-47.82 54.9,-0.78 78,-5.52 78,54.8 0,91.49 9.4,464.96 -8.3,526.16 -29.5,9.1 -47.5,7.2 -78.5,7.2 -37.9,0 -56.6,-6.9 -56.6,-44.9"
         style="fill:#000000;fill-opacity:1;fill-rule:evenodd;stroke:none"
         id="path192" /><path
         d="m 20530.4,10418.4 c -2.7,23.1 -73.4,97.5 -93.9,116.7 -26,24.1 -34.2,33.3 -51.6,52.9 -15,17 -30.7,41.7 -53.8,50.9 -5,-21.9 -9.5,-187.7 -3.2,-205.3 9.8,-27.2 3,-15.4 90.4,-15.2 37.4,0.1 74.7,0 112.1,0"
         style="fill:#000000;fill-opacity:1;fill-rule:evenodd;stroke:none"
         id="path194" /><path
         d="m 16743.4,10258.6 c 0,29.1 7.7,32 34.7,33 204.7,7.6 571.9,2.2 775.2,2.2 38.4,0 39.2,-6.2 39.2,-42.2 0,-75.3 6,-553.49 -4.1,-586.29 -29.3,-11.15 -760,-11.65 -840.8,-1.66 -10.9,36.49 -4.2,515.85 -4.2,594.95 z m -218.6,23.5 c 36.7,11.4 139,32 152.9,-19 4.3,-15.9 6.1,-559.93 -2.2,-576.55 -27.2,-39.81 -116.9,-34.97 -150.1,-9.21 -18.4,35.06 -13.6,552.96 -0.6,604.76 z m 337.6,38.2 c -60.2,0 -39.8,50.1 -39.8,189.5 0,192.1 -15.1,172.8 53.7,172.8 h 265.2 c 123.3,0 67.3,-1.9 74.6,-250 0.2,-4.5 1.1,-15.2 2,-19.7 3.1,-16.2 -0.5,-6.9 6.5,-16.8 37,-27.8 269.8,26.8 269.8,-25.9 0,-37.4 5.2,-49.9 -35.3,-49.9 z m 573.2,176.6 c 46,-51.8 46.2,-40.2 45.5,-68.5 -40.1,-5.9 -82.6,-2.4 -123.2,-2.5 -79.3,0 -96.5,-12.1 -106.7,18.7 -7.5,22.9 -2.6,212.4 2,225 31.8,-1.4 15.6,-1.4 37.8,-24.4 l 85.5,-89.1 c 19.7,-21.7 41.3,-39 59.1,-59.2 z m -1232,-301.1 c 0,-190 2.8,-257.18 83.4,-435.71 117.2,-259.83 433,-500.37 749.9,-500.37 159.8,0 271.3,8.5 421.8,81.5 186.1,90.26 325.2,220.59 417.2,406.47 147,296.91 117.6,664.21 -83.4,924.61 -411.8,533.4 -1209.5,444.7 -1499.8,-137.4 -46.3,-93 -89.1,-217.3 -89.1,-339.1"
         style="fill:#000000;fill-opacity:1;fill-rule:evenodd;stroke:none"
         id="path196" /><path
         d="m 16900.3,9869.65 c 14.6,-10.2 46.5,-6.22 70.7,-5.81 8.9,31.89 10.7,57.23 -1.7,83.63 -14.1,3.21 -59.5,9.73 -72.6,-2.36 -16.4,-15.09 -7,-64.5 3.6,-75.46"
         style="fill:#000000;fill-opacity:1;fill-rule:evenodd;stroke:none"
         id="path198" /><path
         d="m 17050.1,10218.5 c -3.3,-61.8 -9.2,-77.8 22.4,-83.4 65.1,-11.5 59.6,4.2 59.6,46.7 0,46 21.7,42.7 -82,36.7"
         style="fill:#000000;fill-opacity:1;fill-rule:evenodd;stroke:none"
         id="path200" /><path
         d="m 16925.2,9999.46 47.1,1.94 c 7.7,25.2 9,58.3 -3.9,78.5 -56.4,12 -93,11.4 -78.2,-58.9 4.8,-22.71 5.2,-21.54 35,-21.54"
         style="fill:#000000;fill-opacity:1;fill-rule:evenodd;stroke:none"
         id="path202" /><path
         d="m 17049.1,9916.62 c 0,-60.08 0.5,-53.05 64.5,-53.05 30.3,0 32.2,86.82 0,86.82 -52.9,0 -64.5,5.8 -64.5,-33.77"
         style="fill:#000000;fill-opacity:1;fill-rule:evenodd;stroke:none"
         id="path204" /><path
         d="m 17055.8,10004.3 c 20.7,-7.15 50.4,-7.75 74.7,0 22.3,90.4 -18.3,79.2 -37.7,79.7 -19.3,0.4 -57.4,11.6 -42.9,-62.2 3.5,-17.5 2.8,-11.3 5.9,-17.5"
         style="fill:#000000;fill-opacity:1;fill-rule:evenodd;stroke:none"
         id="path206" /><path
         d="m 16891.7,10216 c -1.6,-26.5 -5.4,-55.9 5.6,-76.4 l 69.6,-4.1 c 8.1,13.6 1.2,-8.1 8.3,19 l 1,63.6 c -29.1,3 -58.2,8.2 -84.5,-2.1"
         style="fill:#000000;fill-opacity:1;fill-rule:evenodd;stroke:none"
         id="path208" /><path
         d="m 17211.3,10215.4 c -12,-36.6 -11.7,-80.1 34.9,-80.1 l 38.7,0.6 c 9.5,26.1 8,58.5 1.6,85.6 -26.6,-0.9 -55.9,4.9 -75.2,-6.1"
         style="fill:#000000;fill-opacity:1;fill-rule:evenodd;stroke:none"
         id="path210" /><path
         d="m 17056.2,9809.25 -4.4,-12.77 c -0.2,-0.78 -7.1,-10.73 -3.8,-41.21 3.7,-33.41 2.3,-27.56 65.6,-27.56 24.1,0 19.7,5.51 21.2,27.73 0.7,11.73 -1.9,41.06 -3.5,53.26 l -75.1,0.55"
         style="fill:#000000;fill-opacity:1;fill-rule:evenodd;stroke:none"
         id="path212" /><path
         d="m 17217.5,9948.78 c -13.9,-26.13 -14.8,-54.96 -1.3,-83.17 l 68.6,-2.06 c 10.1,26.13 8.5,59.07 2.2,86.16 l -69.5,-0.93"
         style="fill:#000000;fill-opacity:1;fill-rule:evenodd;stroke:none"
         id="path214" /><path
         d="m 17215.2,10080.4 c -2,-3.1 -37.1,-80.94 31,-80.94 l 42.9,0.54 2.6,77 c -22.6,8.4 -45.9,7.9 -70.9,4.6 -1.4,-0.2 -3.8,-0.6 -5.6,-1.2"
         style="fill:#000000;fill-opacity:1;fill-rule:evenodd;stroke:none"
         id="path216" /><path
         d="m 17413.7,9746.61 83.8,1.32 c 1,34 19.5,61.41 -90.9,47.97 -17.3,-2.1 -27,-5.58 -26.3,-25.7 0.7,-25.78 8.2,-23.59 33.4,-23.59"
         style="fill:#000000;fill-opacity:1;fill-rule:evenodd;stroke:none"
         id="path218" /><path
         d="m 13714.9,10244.6 c 0,32.6 3.8,34.2 35,34.2 h 690.7 c 39.4,0 25.4,-80.6 25.3,-117.9 0,-68 6.1,-411.92 -5.2,-428.75 -9.7,-14.35 -14.1,-13.61 -27.8,-14.77 l -557.6,-1.01 c -75.8,-0.35 -160.4,-14.48 -160.4,25.79 z m -56.6,-467.55 c 0,-37.96 -5.8,-54.75 -43.9,-59.26 -13.3,-1.59 -68.6,-0.74 -79.6,4.48 -41.5,19.67 -23.7,135.13 -23.7,187.37 0,69.79 0,139.56 0,209.36 0,68.9 -21.5,159.8 50.1,159.8 75.8,0 97.1,8.5 97.1,-55.1 z m 124.5,816.45 c 0,21.2 2.9,32.5 22.7,32.5 h 293.1 c 32.4,0 33.7,-4.9 35.5,-38.7 2.4,-45.7 -9.5,-200 8.8,-215.6 39.2,-26.2 174.4,4.9 233.5,-10.7 4.5,-42 11.5,-59.6 -33.5,-59.6 h -530.4 c -28.8,0 -29.7,13.5 -29.7,40.9 z m 586.3,-193.3 c -32.1,-8 -189.4,-13.1 -201.9,9.6 -10.3,18.8 -7,186.9 1.2,203.5 32.2,-3.4 11.8,2.1 32.4,-22.2 31.3,-36.7 160.8,-160 168.3,-190.9 z m -464.2,488 c -195.1,-36.8 -360,-117.5 -483.1,-266.7 -51,-61.8 -102.8,-155.4 -132.3,-244.5 -103.5,-313.3 11.7,-631.1 241.2,-818.75 131.2,-107.24 348,-198.46 571.8,-162.21 276.3,44.75 436.3,173.15 557.8,377.44 78.8,132.39 111.8,308.32 91.1,468.92 -23.9,184.3 -131.4,376 -270.6,482 -71.4,54.3 -140.3,100.9 -243.1,133.7 -94.4,30.2 -227.6,50 -332.8,30.1"
         style="fill:#000000;fill-opacity:1;fill-rule:evenodd;stroke:none"
         id="path220" /><path
         d="m 13197.8,10160.9 c 0,234.5 132.7,448.8 244.1,559 63.3,62.5 155.3,120.1 238.6,159 345.2,161.2 768.6,29.4 982.8,-272.1 278.7,-392.2 139.2,-965.21 -290.9,-1180.26 -234.3,-117.18 -492.3,-120.22 -726.8,-4.94 -93.5,45.95 -151.3,93.19 -221.9,162.1 -130.1,126.89 -225.9,341.71 -225.9,577.2 z m 766.2,861.4 c -32.9,-3.9 -62.4,0.5 -99.8,-6.5 -89.5,-16.7 -172.9,-42.9 -252.8,-81.7 -73.3,-35.5 -139.1,-80.8 -196.1,-131.9 -383.3,-343.3 -398.1,-947.15 -14.9,-1304.55 367.3,-342.52 950.5,-303.91 1250.1,41.87 155.3,179.15 256.4,392.14 236,649.58 -21.9,278.1 -134.7,462.7 -277.8,600.4 -123.9,119.1 -390.1,262.9 -644.7,232.8"
         style="fill:#000000;fill-opacity:1;fill-rule:evenodd;stroke:none"
         id="path222" /><path
         d="m 14126.3,10181.8 c 0,-50.8 -0.3,-41.6 34.9,-41.1 43.2,0.6 40.5,1.8 40.5,41.1 0,31.1 -2.4,33.3 -33.2,34.4 -39.7,1.4 -42.2,0.7 -42.2,-34.4"
         style="fill:#000000;fill-opacity:1;fill-rule:evenodd;stroke:none"
         id="path224" /><path
         d="m 14126.3,9951.51 c 0,-46.81 -3.2,-53.97 35.1,-53.97 44.2,0 40.3,2.01 40.3,53.97 0,26.62 -19.4,21.54 -54.2,21.54 -21.6,0 -21.2,-0.05 -21.2,-21.54"
         style="fill:#000000;fill-opacity:1;fill-rule:evenodd;stroke:none"
         id="path226" /><path
         d="m 14127.4,10024 c 78.4,-25.66 75.7,4 73.8,65.6 l -74.4,4.1 0.6,-69.7"
         style="fill:#000000;fill-opacity:1;fill-rule:evenodd;stroke:none"
         id="path228" /><path
         d="m 14057,9902.52 c 5.8,22.25 8.1,47.87 -2.1,67.31 l -66.6,2.94 c -6.8,-75 -7.6,-89.38 68.7,-70.25"
         style="fill:#000000;fill-opacity:1;fill-rule:evenodd;stroke:none"
         id="path230" /><path
         d="m 13851,9899.36 c 75.8,-8.83 72.5,0.37 66,72.49 l -68.3,0.6 c -5.7,-28.92 -7,-47.76 2.3,-73.09"
         style="fill:#000000;fill-opacity:1;fill-rule:evenodd;stroke:none"
         id="path232" /><path
         d="m 13845.5,10020.1 72.8,-0.8 -0.1,73.3 -71.9,-0.3 -0.8,-72.2"
         style="fill:#000000;fill-opacity:1;fill-rule:evenodd;stroke:none"
         id="path234" /><path
         d="m 13915.1,10142.9 3.1,71.7 h -69 c -20.1,-69.8 -4.9,-79.8 65.9,-71.7"
         style="fill:#000000;fill-opacity:1;fill-rule:evenodd;stroke:none"
         id="path236" /><path
         d="m 13986.7,10020.2 71.2,-1.6 1.7,71 -72.4,4 -0.5,-73.4"
         style="fill:#000000;fill-opacity:1;fill-rule:evenodd;stroke:none"
         id="path238" /><path
         d="m 13986,9782.45 73.9,-2.25 -1.6,72.15 c -31.6,4.19 -38.5,7.31 -68,-1.94 l -4.3,-67.96"
         style="fill:#000000;fill-opacity:1;fill-rule:evenodd;stroke:none"
         id="path240" /><path
         d="m 13987.2,10142.9 67.5,-1.1 c 8.4,19.1 7.6,48 1.1,72.8 l -65,0.9 -3.6,-72.6"
         style="fill:#000000;fill-opacity:1;fill-rule:evenodd;stroke:none"
         id="path242" /><path
         d="m 14281,9825.9 0.6,-26.99 c 89.4,-13.21 111.3,-8.4 94.6,38.69 -47.5,-0.52 -95.8,8.85 -95.2,-11.7"
         style="fill:#000000;fill-opacity:1;fill-rule:evenodd;stroke:none"
         id="path244" /><path
         d="M 0,20000 H 25000 V 16702.7 H 0 V 20000"
         style="fill:#000000;fill-opacity:1;fill-rule:evenodd;stroke:none"
         id="path246" /><path
         d="m 6173.13,18950.4 26.58,-398.8 h -26.58 c -35.75,119.4 -86.56,205.6 -152.74,257.9 -66.17,52.6 -145.34,78.9 -238.1,78.9 -77.41,0 -147.72,-19.8 -210.34,-59.4 -62.63,-39.6 -111.97,-102.5 -148.01,-189.3 -35.74,-86.6 -53.76,-194.4 -53.76,-323.2 0,-106.4 16.83,-198.5 50.8,-276.5 33.98,-78 85.09,-137.7 153.03,-179.4 68.25,-41.6 145.94,-62.3 233.09,-62.3 75.92,0 142.99,16.3 200.88,48.8 58.2,32.5 122.01,97.1 191.44,194 l 26.88,-17.7 c -58.78,-104.3 -127.32,-180.5 -205.61,-228.9 -78.29,-48.2 -171.35,-72.4 -278.88,-72.4 -194.09,0 -344.46,72.1 -450.81,216.5 -79.46,107.6 -119.35,234 -119.35,379.4 0,117.2 26.29,225.1 78.58,323.1 52.29,98.4 124.38,174.3 215.95,228.4 91.88,54.1 192.03,80.9 300.74,80.9 84.49,0 167.8,-20.6 250.22,-62.3 23.93,-12.7 41.36,-19.2 51.7,-19.2 15.36,0 28.95,5.6 40.48,16.6 15.06,15.6 25.7,37.2 31.9,64.9 z m 561,-384.6 c 120.23,0 216.54,-45.5 289.21,-136.8 61.75,-77.7 92.77,-167.2 92.77,-268.2 0,-70.9 -17.14,-142.7 -51.11,-215.4 -33.97,-72.6 -80.94,-127.6 -140.62,-164.5 -59.97,-37 -126.44,-55.3 -199.7,-55.3 -119.65,0 -214.78,47.6 -285.09,142.7 -59.38,80.4 -89.21,170.2 -89.21,270 0,72.7 18.02,145.1 54.06,216.9 36.04,71.8 83.6,124.9 142.69,159.2 58.78,34.3 121.12,51.4 187,51.4 z m -26.88,-56.7 c -30.43,0 -61.16,-9.2 -92.17,-27.2 -30.73,-18.3 -55.84,-49.9 -74.75,-95.4 -19.2,-45.5 -28.65,-104 -28.65,-175.5 0,-115.2 23.04,-214.5 68.83,-298.1 45.79,-83.6 106.35,-125.2 181.39,-125.2 55.83,0 101.92,23 138.26,69.1 36.34,46.1 54.64,125.3 54.64,237.5 0,140.6 -30.42,251.1 -90.98,331.8 -40.77,55.2 -93.06,83 -156.57,83 z m 754.5,-109.6 c 92.76,110.8 181.09,166.3 264.99,166.3 43.14,0 80.36,-10.9 111.38,-32.5 31.31,-21.5 55.83,-57.3 74.44,-106.9 12.71,-34.9 18.91,-88.1 18.91,-159.6 v -339.1 c 0,-49.9 4.14,-83.6 12.11,-101.6 6.21,-14.2 16.55,-25.4 30.43,-33.4 14.18,-8 40.18,-12.1 77.99,-12.1 v -31.9 h -391.73 v 31.9 h 16.55 c 36.63,0 62.33,5.6 77.1,16.8 14.48,11.2 24.81,27.8 30.43,49.4 2.36,8.5 3.54,35.7 3.54,80.9 v 326.4 c 0,72.4 -9.45,125.3 -28.06,158.1 -18.61,32.8 -49.93,49 -94.24,49 -68.24,0 -136.19,-37.5 -203.84,-112.8 v -420.7 c 0,-53.5 3.25,-86.3 9.46,-99 8.27,-16.5 19.49,-28.6 33.67,-36.6 14.18,-7.7 42.83,-11.5 86.26,-11.5 v -31.9 h -393.5 v 31.9 h 17.43 c 40.48,0 67.65,10 81.84,30.4 14.18,20.4 21.27,59.4 21.27,116.7 v 294.2 c 0,95.2 -2.07,153.1 -6.5,173.7 -4.44,21 -10.94,35.2 -19.8,42.6 -8.86,7.4 -20.97,11.2 -35.74,11.2 -16.25,0 -35.45,-4.4 -57.9,-13 l -13,31.9 239.29,97.5 h 37.22 z m 886.26,403.8 v -260.5 h 185.23 v -58.5 l -185.23,-1.8 v -514.3 c 0,-51.4 7.39,-86.3 22.16,-104 14.47,-18 33.38,-26.9 56.42,-26.9 19.21,0 37.52,5.9 55.54,18 17.73,11.8 31.61,29.6 41.36,52.9 h 33.68 c -20.09,-57 -48.74,-99.8 -85.67,-128.8 -37.23,-28.7 -75.34,-43.1 -114.62,-43.1 -26.59,0 -52.59,7.4 -78,22.1 -25.4,14.8 -44.02,36.1 -56.13,63.5 -12.11,27.5 -18.31,69.8 -18.31,127.1 v 535.3 h -125.85 v 27.5 c 31.9,12.7 64.4,33.9 97.79,63.8 33.38,30.1 62.92,65.8 89.21,107.5 13.29,21.9 31.9,62 55.84,120.2 z m 708.72,-939.4 c -81.24,-62.9 -132.35,-99.6 -153.33,-109.3 -31.02,-14.5 -64.1,-21.9 -99.26,-21.9 -54.94,0 -100.14,18.9 -135.6,56.4 -35.45,37.6 -53.17,86.9 -53.17,148.1 0,38.7 8.56,72.3 26,100.4 23.63,39.3 64.69,76.2 123.18,111.1 58.79,34.5 155.99,76.8 292.18,126.4 v 31 c 0,78.9 -12.41,133 -37.52,162.5 -25.11,29.3 -61.45,44 -109.31,44 -36.04,0 -64.99,-9.7 -86.26,-29.5 -21.86,-19.5 -32.79,-42 -32.79,-67.4 l 1.77,-50.2 c 0,-26.6 -6.8,-47.2 -20.38,-61.7 -13.6,-14.5 -31.61,-21.6 -53.47,-21.6 -21.57,0 -39.3,7.4 -52.88,22.5 -13.6,15 -20.39,35.7 -20.39,61.7 0,49.6 25.41,95.4 76.22,137.1 50.81,41.6 122.3,62.3 214.18,62.3 70.61,0 128.21,-11.8 173.41,-35.4 33.98,-17.8 59.08,-45.8 75.33,-83.9 10.34,-24.6 15.66,-75.4 15.66,-151.9 v -268.8 c 0,-75.3 1.48,-121.7 4.43,-138.6 2.96,-17.1 7.68,-28.3 14.18,-34.2 6.8,-5.7 14.48,-8.6 23.04,-8.6 9.46,0 17.43,2.1 24.52,5.9 12.12,7.7 35.46,28.7 70.32,63.2 v -48.4 c -65,-87.2 -127.04,-130.6 -186.12,-130.6 -28.36,0 -51.11,9.7 -67.95,29.2 -16.83,19.8 -25.4,53.2 -25.99,100.2 z m 0,56.4 v 301.6 c -87.74,-34.5 -144.17,-59 -169.87,-73.5 -45.79,-25.4 -78.58,-51.7 -98.38,-79.5 -19.79,-27.8 -29.54,-57.9 -29.54,-90.7 0,-41.6 12.41,-75.9 37.52,-103.4 24.82,-27.5 53.77,-41 86.26,-41 44.02,0 101.92,28.9 174.01,86.5 z m 1013.57,130 c -21.3,-104.9 -63.2,-184.9 -125.54,-240.8 -62.33,-55.8 -131.17,-83.9 -206.8,-83.9 -90.1,0 -168.68,37.8 -235.45,113.5 -67.06,75.3 -100.44,177.5 -100.44,306.3 0,124.4 36.93,225.7 111.08,303.7 74.15,77.7 163.07,116.7 266.76,116.7 78,0 141.81,-20.7 192.03,-62 50.26,-41.1 75.36,-83.9 75.36,-128.5 0,-21.9 -7.1,-39.6 -21.3,-53.2 -14.2,-13.6 -33.68,-20.4 -59.09,-20.4 -33.97,0 -59.37,10.9 -76.21,33.1 -10.34,12.1 -17.14,35.4 -20.39,69.7 -3.24,34.3 -14.77,60.6 -34.86,78.6 -20.38,17.4 -48.15,26 -83.9,26 -57.9,0 -104.28,-21.3 -139.43,-64.1 -46.68,-56.7 -70.02,-131.5 -70.02,-224.8 0,-94.9 23.34,-178.5 69.72,-251.1 46.68,-72.4 109.31,-108.8 188.48,-108.8 56.72,0 107.53,19 152.43,57.1 31.91,26.3 62.67,74.7 92.77,145 z m 343.6,753 v -260.5 h 185.2 v -58.5 l -185.2,-1.8 v -514.3 c 0,-51.4 7.4,-86.3 22.1,-104 14.5,-18 33.4,-26.9 56.5,-26.9 19.2,0 37.5,5.9 55.5,18 17.7,11.8 31.6,29.6 41.4,52.9 h 33.6 c -20,-57 -48.7,-99.8 -85.6,-128.8 -37.3,-28.7 -75.4,-43.1 -114.6,-43.1 -26.6,0 -52.6,7.4 -78,22.1 -25.4,14.8 -44.1,36.1 -56.2,63.5 -12.1,27.5 -18.3,69.8 -18.3,127.1 v 535.3 h -125.8 v 27.5 c 31.9,12.7 64.4,33.9 97.7,63.8 33.4,30.1 63,65.8 89.3,107.5 13.3,21.9 31.9,62 55.8,120.2 z m 906.9,177.3 c 24,0 44.6,-8.6 61.8,-25.4 16.8,-17.2 25.4,-37.8 25.4,-61.8 0,-24.2 -8.6,-45.2 -25.4,-62.3 -17.2,-17.4 -37.8,-26 -61.8,-26 -24.2,0 -45.2,8.6 -62.3,26 -17.4,17.1 -26,38.1 -26,62.3 0,24 8.6,44.6 25.4,61.8 17.1,16.8 38.1,25.4 62.9,25.4 z m 71.2,-414.8 v -638.1 c 0,-49.3 3.6,-82.1 11,-98.4 7,-16.5 17.7,-28.6 31.9,-36.6 14.1,-8 40.1,-12.1 77.7,-12.1 v -31.9 h -384.7 v 31.9 c 38.4,0 64.4,3.8 77.4,11.2 13.3,7.4 23.7,19.8 31.6,36.9 7.7,17.2 11.5,50.3 11.5,99 v 306.6 c 0,85.4 -2.6,140.7 -7.6,166.1 -4.2,18.3 -10.4,31 -19.2,38.1 -8.6,7.4 -20.4,10.9 -35.2,10.9 -16.2,0 -35.7,-4.4 -58.8,-13 l -12.1,31.9 238.4,97.5 z m 450,-166.3 c 92.7,110.8 181,166.3 264.9,166.3 43.2,0 80.4,-10.9 111.4,-32.5 31.3,-21.5 55.8,-57.3 74.5,-106.9 12.7,-34.9 18.9,-88.1 18.9,-159.6 v -339.1 c 0,-49.9 4.1,-83.6 12.1,-101.6 6.2,-14.2 16.5,-25.4 30.4,-33.4 14.2,-8 40.2,-12.1 78,-12.1 v -31.9 h -391.7 v 31.9 h 16.5 c 36.6,0 62.4,5.6 77.1,16.8 14.5,11.2 24.8,27.8 30.4,49.4 2.4,8.5 3.6,35.7 3.6,80.9 v 326.4 c 0,72.4 -9.5,125.3 -28.1,158.1 -18.6,32.8 -49.9,49 -94.2,49 -68.3,0 -136.2,-37.5 -203.8,-112.8 v -420.7 c 0,-53.5 3.2,-86.3 9.4,-99 8.3,-16.5 19.5,-28.6 33.7,-36.6 14.2,-7.7 42.8,-11.5 86.2,-11.5 v -31.9 h -393.5 v 31.9 h 17.5 c 40.4,0 67.6,10 81.8,30.4 14.2,20.4 21.3,59.4 21.3,116.7 v 294.2 c 0,95.2 -2.1,153.1 -6.5,173.7 -4.5,21 -11,35.2 -19.8,42.6 -8.9,7.4 -21,11.2 -35.8,11.2 -16.2,0 -35.4,-4.4 -57.9,-13 l -13,31.9 239.3,97.5 h 37.3 z m 964.2,81.2 v -522.9 c 0,-73.5 8,-119.9 24.2,-139.4 21.6,-25.1 50.2,-37.8 86.3,-37.8 h 72.1 v -31.9 h -475.1 v 31.9 h 35.5 c 23,0 44.3,5.6 63.2,17.1 19.2,11.5 32.2,27.2 39.3,46.7 7.4,19.5 10.9,57.3 10.9,113.4 v 522.9 h -154.2 v 62.1 h 154.2 v 51.7 c 0,78.6 12.7,145.3 38.1,200 25.4,54.3 64.4,98.6 116.7,132 52.6,33.7 111.4,50.5 176.7,50.5 60.8,0 116.7,-19.5 167.8,-58.5 33.4,-25.7 50.2,-54.3 50.2,-86.5 0,-17.1 -7.4,-33.4 -22.4,-48.5 -15.1,-15 -31.4,-22.7 -48.8,-22.7 -13.3,0 -27.2,4.7 -41.9,14.2 -14.8,9.4 -32.8,29.5 -54.4,60.8 -21.3,31 -41.1,52 -58.8,63 -18,10.9 -37.8,16.2 -60,16.2 -26.5,0 -49,-7.1 -67.6,-21 -18.3,-14.2 -31.6,-36 -39.9,-65.6 -8,-29.5 -12.1,-105.7 -12.1,-228.9 v -56.7 h 203.8 v -62.1 z m 670.9,85.1 c 120.2,0 216.5,-45.5 289.2,-136.8 61.8,-77.7 92.8,-167.2 92.8,-268.2 0,-70.9 -17.2,-142.7 -51.1,-215.4 -34,-72.6 -81,-127.6 -140.6,-164.5 -60,-37 -126.5,-55.3 -199.8,-55.3 -119.6,0 -214.7,47.6 -285,142.7 -59.4,80.4 -89.2,170.2 -89.2,270 0,72.7 18,145.1 54,216.9 36.1,71.8 83.6,124.9 142.7,159.2 58.8,34.3 121.1,51.4 187,51.4 z m -26.9,-56.7 c -30.4,0 -61.1,-9.2 -92.1,-27.2 -30.8,-18.3 -55.9,-49.9 -74.8,-95.4 -19.2,-45.5 -28.7,-104 -28.7,-175.5 0,-115.2 23.1,-214.5 68.9,-298.1 45.8,-83.6 106.3,-125.2 181.4,-125.2 55.8,0 101.9,23 138.2,69.1 36.4,46.1 54.7,125.3 54.7,237.5 0,140.6 -30.4,251.1 -91,331.8 -40.8,55.2 -93.1,83 -156.6,83 z m 1169,471.5 c 23.9,0 44.6,-8.6 61.7,-25.4 16.9,-17.2 25.4,-37.8 25.4,-61.8 0,-24.2 -8.5,-45.2 -25.4,-62.3 -17.1,-17.4 -37.8,-26 -61.7,-26 -24.2,0 -45.2,8.6 -62.3,26 -17.5,17.1 -26,38.1 -26,62.3 0,24 8.5,44.6 25.4,61.8 17.1,16.8 38.1,25.4 62.9,25.4 z m 71.2,-414.8 v -638.1 c 0,-49.3 3.5,-82.1 10.9,-98.4 7.1,-16.5 17.8,-28.6 31.9,-36.6 14.2,-8 40.2,-12.1 77.7,-12.1 v -31.9 h -384.6 v 31.9 c 38.4,0 64.4,3.8 77.4,11.2 13.3,7.4 23.6,19.8 31.6,36.9 7.7,17.2 11.5,50.3 11.5,99 v 306.6 c 0,85.4 -2.6,140.7 -7.7,166.1 -4.1,18.3 -10.3,31 -19.2,38.1 -8.5,7.4 -20.3,10.9 -35.1,10.9 -16.3,0 -35.8,-4.4 -58.8,-13 l -12.1,31.9 238.4,97.5 z m 893.1,-515.5 c -21.3,-104.9 -63.3,-184.9 -125.6,-240.8 -62.3,-55.8 -131.2,-83.9 -206.8,-83.9 -90.1,0 -168.7,37.8 -235.4,113.5 -67.1,75.3 -100.5,177.5 -100.5,306.3 0,124.4 36.9,225.7 111.1,303.7 74.1,77.7 163.1,116.7 266.8,116.7 77.9,0 141.8,-20.7 192,-62 50.2,-41.1 75.3,-83.9 75.3,-128.5 0,-21.9 -7.1,-39.6 -21.3,-53.2 -14.1,-13.6 -33.6,-20.4 -59,-20.4 -34,0 -59.4,10.9 -76.3,33.1 -10.3,12.1 -17.1,35.4 -20.3,69.7 -3.3,34.3 -14.8,60.6 -34.9,78.6 -20.4,17.4 -48.2,26 -83.9,26 -57.9,0 -104.3,-21.3 -139.4,-64.1 -46.7,-56.7 -70.1,-131.5 -70.1,-224.8 0,-94.9 23.4,-178.5 69.8,-251.1 46.6,-72.4 109.3,-108.8 188.4,-108.8 56.8,0 107.6,19 152.5,57.1 31.9,26.3 62.6,74.7 92.7,145 z m 502.2,515.5 c 120.2,0 216.5,-45.5 289.2,-136.8 61.7,-77.7 92.7,-167.2 92.7,-268.2 0,-70.9 -17.1,-142.7 -51.1,-215.4 -33.9,-72.6 -80.9,-127.6 -140.6,-164.5 -60,-37 -126.4,-55.3 -199.7,-55.3 -119.6,0 -214.8,47.6 -285.1,142.7 -59.3,80.4 -89.2,170.2 -89.2,270 0,72.7 18,145.1 54.1,216.9 36,71.8 83.6,124.9 142.7,159.2 58.8,34.3 121.1,51.4 187,51.4 z m -26.9,-56.7 c -30.4,0 -61.2,-9.2 -92.2,-27.2 -30.7,-18.3 -55.8,-49.9 -74.7,-95.4 -19.2,-45.5 -28.7,-104 -28.7,-175.5 0,-115.2 23.1,-214.5 68.9,-298.1 45.7,-83.6 106.3,-125.2 181.3,-125.2 55.9,0 102,23 138.3,69.1 36.3,46.1 54.6,125.3 54.6,237.5 0,140.6 -30.4,251.1 -90.9,331.8 -40.8,55.2 -93.1,83 -156.6,83 z m 754.5,-109.6 c 92.7,110.8 181.1,166.3 265,166.3 43.1,0 80.3,-10.9 111.4,-32.5 31.3,-21.5 55.8,-57.3 74.4,-106.9 12.7,-34.9 18.9,-88.1 18.9,-159.6 v -339.1 c 0,-49.9 4.1,-83.6 12.1,-101.6 6.2,-14.2 16.6,-25.4 30.4,-33.4 14.2,-8 40.2,-12.1 78,-12.1 v -31.9 h -391.7 v 31.9 h 16.6 c 36.6,0 62.3,5.6 77.1,16.8 14.4,11.2 24.8,27.8 30.4,49.4 2.4,8.5 3.5,35.7 3.5,80.9 v 326.4 c 0,72.4 -9.4,125.3 -28,158.1 -18.6,32.8 -50,49 -94.3,49 -68.2,0 -136.2,-37.5 -203.8,-112.8 v -420.7 c 0,-53.5 3.2,-86.3 9.4,-99 8.3,-16.5 19.5,-28.6 33.7,-36.6 14.2,-7.7 42.9,-11.5 86.3,-11.5 v -31.9 h -393.5 v 31.9 h 17.4 c 40.5,0 67.7,10 81.8,30.4 14.2,20.4 21.3,59.4 21.3,116.7 v 294.2 c 0,95.2 -2.1,153.1 -6.5,173.7 -4.4,21 -10.9,35.2 -19.8,42.6 -8.8,7.4 -21,11.2 -35.7,11.2 -16.3,0 -35.5,-4.4 -57.9,-13 l -13,31.9 239.3,97.5 h 37.2 z m 1609.4,166.3 v -269.4 h -28.3 c -21.9,84.5 -49.9,141.8 -84.2,172.2 -34,30.4 -77.7,45.8 -130.6,45.8 -40.2,0 -72.7,-10.6 -97.5,-31.9 -24.5,-21.3 -36.9,-44.9 -36.9,-70.9 0,-32.2 9.1,-60 27.2,-83 17.7,-23.6 54,-48.8 108.7,-75.3 l 126.4,-61.2 c 117,-57.3 175.5,-132.6 175.5,-226 0,-72.1 -27.2,-130.3 -81.8,-174.3 -54.4,-44 -115.5,-66.2 -182.9,-66.2 -48.4,0 -104,8.6 -166,25.4 -19.2,5.7 -34.9,8.3 -47,8.3 -13,0 -23.6,-7.1 -31,-21.3 h -28.4 v 283.6 h 28.4 c 16.2,-80.9 47,-142 92.8,-183.1 45.4,-41.1 96.6,-61.5 153.3,-61.5 39.6,0 72.1,11.6 97.2,34.9 25.1,23.3 37.8,51.7 37.8,84.5 0,39.6 -14.2,73 -42.3,100.1 -28,27.2 -83.9,61.2 -167.8,102.5 -83.6,41.4 -138.2,78.6 -164.2,112.3 -25.7,32.8 -38.7,74.5 -38.7,124.7 0,65.3 22.4,119.9 67,163.9 44.7,44 102.3,65.9 173.2,65.9 31.3,0 68.8,-6.8 113.4,-20.4 29.3,-8.8 48.8,-13.3 58.5,-13.3 9.4,0 16.5,2.1 21.9,6.2 5,4.2 11.2,13.3 18,27.5 z m 310.5,-322.6 c -0.6,-117.3 28.1,-209.1 85.7,-275.9 57.6,-66.5 125.6,-99.9 203.5,-99.9 51.7,0 96.9,14.2 135.3,42.6 38.5,28 70.6,77.4 96.6,147.1 l 26.6,-17.4 c -12.1,-79.8 -47.2,-152.2 -105.4,-216.9 -58.2,-64.7 -131.2,-97.2 -218.6,-97.2 -95.2,0 -176.7,37 -244.4,111.1 -67.6,74.2 -101.6,173.7 -101.6,298.7 0,135.3 34.9,241 104.3,316.7 69.4,75.9 156.6,113.7 261.5,113.7 88.6,0 161.5,-29.2 218.6,-87.7 57,-58.5 85.6,-136.8 85.6,-234.9 z m 0,49.6 h 366.9 c -2.9,50.9 -8.8,86.6 -18,107.3 -14.5,32.2 -36,57.6 -64.7,75.9 -28.3,18.6 -58.2,27.8 -89.5,27.8 -47.8,0 -90.7,-18.6 -128.5,-55.9 -37.8,-37.2 -59.7,-88.9 -66.2,-155.1 z m 886,510.5 v -260.5 h 185.2 v -58.5 l -185.2,-1.8 v -514.3 c 0,-51.4 7.4,-86.3 22.1,-104 14.5,-18 33.4,-26.9 56.5,-26.9 19.2,0 37.5,5.9 55.5,18 17.7,11.8 31.6,29.6 41.4,52.9 h 33.7 c -20.1,-57 -48.8,-99.8 -85.7,-128.8 -37.2,-28.7 -75.4,-43.1 -114.6,-43.1 -26.6,0 -52.6,7.4 -78,22.1 -25.4,14.8 -44.1,36.1 -56.2,63.5 -12.1,27.5 -18.3,69.8 -18.3,127.1 v 535.3 h -125.8 v 27.5 c 31.9,12.7 64.4,33.9 97.8,63.8 33.3,30.1 62.9,65.8 89.2,107.5 13.3,21.9 31.9,62 55.8,120.2 h 26.6"
         style="fill:#ffffff;fill-opacity:1;fill-rule:evenodd;stroke:none"
         id="path248" /></g></g></svg>
