<?xml version="1.0" encoding="UTF-8" standalone="no"?>
<!-- Created with Inkscape (http://www.inkscape.org/) -->

<svg
   version="1.1"
   id="svg2"
   xml:space="preserve"
   width="3623.9868"
   height="1530.3066"
   viewBox="0 0 3623.9868 1530.3066"
   sodipodi:docname="vecteezy_wi-fi-smart-phone-message-envelope-and-telephone-icon-set_.eps"
   xmlns:inkscape="http://www.inkscape.org/namespaces/inkscape"
   xmlns:sodipodi="http://sodipodi.sourceforge.net/DTD/sodipodi-0.dtd"
   xmlns="http://www.w3.org/2000/svg"
   xmlns:svg="http://www.w3.org/2000/svg"><defs
     id="defs6" /><sodipodi:namedview
     id="namedview4"
     pagecolor="#ffffff"
     bordercolor="#666666"
     borderopacity="1.0"
     inkscape:pageshadow="2"
     inkscape:pageopacity="0.0"
     inkscape:pagecheckerboard="0" /><g
     id="g8"
     inkscape:groupmode="layer"
     inkscape:label="ink_ext_XXXXXX"
     transform="matrix(1.3333333,0,0,-1.3333333,0,1530.3067)"><g
       id="g10"
       transform="scale(0.1)"><path
         d="m 5060.81,9011.24 c 0,-1361.97 -1104.09,-2466.06 -2466.06,-2466.06 -1361.97,0 -2466.059,1104.09 -2466.059,2466.06 0,1361.96 1104.089,2466.06 2466.059,2466.06 1361.97,0 2466.06,-1104.1 2466.06,-2466.06"
         style="fill:#100f0d;fill-opacity:1;fill-rule:nonzero;stroke:none"
         id="path12" /><path
         d="m 3660.83,9897.79 c 261.11,-146.87 477.25,-348.31 477.62,-368.82 -70.67,-72.32 -144.35,-141.61 -213.3,-215.4 -651.99,644.64 -1496.18,563.2 -1572.27,532.94 -290.95,-14.56 -778.27,-214.02 -1081.49,-532.57 -74.98,71.32 -146.29,146.38 -220.34,218.51 631.19,648.15 1719.73,860.15 2609.78,365.34"
         style="fill:#ffffff;fill-opacity:1;fill-rule:nonzero;stroke:none"
         id="path14" /><path
         d="m 2782.22,9533.46 c 9.14,-5.1 545.82,-49.7 916.19,-449.08 -72.86,-71.69 -144.65,-144.36 -216.95,-216.49 -591.87,532.02 -1297.78,445.13 -1770.85,-0.19 -70.67,71.5 -142.07,142.17 -212.93,213.38 -4.79,11.8 228.19,273.65 716.24,414.71 372.93,80.8 476.69,34.75 568.3,37.67"
         style="fill:#ffffff;fill-opacity:1;fill-rule:nonzero;stroke:none"
         id="path16" /><path
         d="m 3245.31,8643.06 c -70.31,-76.07 -147.01,-146.01 -217.96,-221.44 -241.83,241.41 -629.92,232.59 -861.34,-0.55 -72.05,74.6 -147.46,145.73 -218.59,221.06 330.82,319.3 870.42,393 1297.89,0.93"
         style="fill:#ffffff;fill-opacity:1;fill-rule:nonzero;stroke:none"
         id="path18" /><path
         d="m 2811.93,8205.85 c 5.48,-15.54 10.97,-31.46 18.74,-46.63 21.08,-170.64 -37.35,-235.88 -166.76,-296.6 -93.28,-10.23 -28.04,-21.39 -158.06,9.41 -89.66,39.61 -131.49,105.35 -148.58,199.49 -23.95,257.58 327.82,373.47 454.66,134.33"
         style="fill:#ffffff;fill-opacity:1;fill-rule:nonzero;stroke:none"
         id="path20" /><path
         d="m 12390.9,9011.24 c 0,-1361.97 -1104.1,-2466.06 -2466.03,-2466.06 -1361.96,0 -2466.06,1104.09 -2466.06,2466.06 0,1361.96 1104.1,2466.06 2466.06,2466.06 1361.93,0 2466.03,-1104.1 2466.03,-2466.06"
         style="fill:#100f0d;fill-opacity:1;fill-rule:nonzero;stroke:none"
         id="path22" /><path
         d="m 8586.3,9757.16 c -18.36,-42.6 -28.49,-89.48 -28.49,-138.73 V 8404.05 c 0,-2.06 0.22,-4.04 0.27,-6.08 l 893.82,782.09 z m 2675.1,4.11 -871.8,-581.21 901.6,-788.98 c 0.2,4.35 0.7,8.59 0.7,12.97 v 1214.38 c 0,50.87 -11,99.13 -30.5,142.84 z m -1342.73,-893.3 -300.51,201.27 -899.43,-793.62 -93.42,-77.85 c 66.13,-91.08 174.89,-150.46 298.63,-150.46 h 2001.86 c 122.5,0 230.3,58.31 296.7,147.85 l -999,874.19 z m -994.73,1107.2 c -81.9,0 -157.1,-26.22 -217.96,-70.16 l 1214.76,-809.84 1219.06,812.72 c -60.1,42.22 -133.9,67.28 -214,67.28 H 8923.94"
         style="fill:#ffffff;fill-opacity:1;fill-rule:nonzero;stroke:none"
         id="path24" /><path
         d="m 19721.1,9011.24 c 0,-1361.97 -1104.1,-2466.06 -2466.1,-2466.06 -1362,0 -2466.1,1104.09 -2466.1,2466.06 0,1361.96 1104.1,2466.06 2466.1,2466.06 1362,0 2466.1,-1104.1 2466.1,-2466.06"
         style="fill:#100f0d;fill-opacity:1;fill-rule:nonzero;stroke:none"
         id="path26" /><path
         d="m 17005.1,9596.8 c 37.2,28.32 67.5,51.99 67.4,52.61 -10.1,47 -157,621.59 -159.6,624.19 -5.1,5 -192.6,31.3 -196.4,27.5 -2.4,-2.3 49.1,-201.4 190.4,-736.26 10,-37.89 3.8,-39.92 98.2,31.96 z m 1207.3,-1576.71 c 33.6,82.44 34.5,87.26 19.8,101.18 -12.5,11.76 -405.3,353.83 -459.6,400.13 -12.6,10.82 -25.4,6.82 -104.2,-32.73 -75.6,-37.94 -87.8,-46.9 -77.6,-56.76 37.4,-36.03 581.7,-503.05 583.9,-500.94 1.4,1.4 18.4,41.5 37.7,89.11 z m -394.6,-268.87 c 111.6,34.8 233.5,82.05 274.6,106.43 27.6,16.39 31.4,21.91 21.9,31.16 -69.1,66.95 -555.4,493.01 -559.7,490.35 -3.1,-1.93 -11.1,-32.3 -17.6,-67.48 -13,-69.45 -25.2,-85.34 -65.6,-85.32 -33.2,0 -55.1,18.65 -87,73.96 -13.9,24.11 -36.4,58.05 -49.9,75.42 -13.6,17.37 -41,60.77 -60.9,96.44 -20,35.68 -55,94.46 -77.9,130.62 -52.5,82.91 -113.5,183.99 -136.6,226.17 -9.8,17.86 -33.9,54.27 -53.6,80.9 -19.7,26.64 -44.8,66.09 -55.8,87.68 -11,21.59 -42.6,72.79 -70.1,113.77 -27.6,40.99 -60.7,95.37 -73.6,120.85 -12.9,25.47 -36.6,66.9 -52.6,92.06 -37,57.84 -80,143.81 -87.4,174.65 -4.5,18.8 -0.7,28.39 18.5,46.44 25.8,24.34 27.5,24.33 109.8,-0.46 27.8,-8.38 52.4,-13.44 54.6,-11.23 4,3.96 -184.3,733.77 -191,740.47 -5,5 -225.4,-180.2 -225.4,-189.3 0,-4.1 -19.2,-26.6 -42.7,-49.9 -23.4,-23.3 -56.7,-64.8 -73.9,-92.14 -27.2,-43.09 -32.7,-61.17 -41.1,-135.9 -26.7,-237.19 35.9,-587.83 154.7,-866.51 63.9,-150.02 102.3,-225.24 147.7,-289.28 20.5,-28.96 48.1,-74.35 61.3,-100.88 71.1,-142.49 295.2,-402.28 451.5,-523.51 107.9,-83.65 336.9,-233.26 389.8,-254.69 154.8,-62.67 195.5,-65.18 338,-20.79 v 0.02"
         style="fill:#ffffff;fill-opacity:1;fill-rule:nonzero;stroke:none"
         id="path28" /><path
         d="m 27051.2,9011.24 c 0,-1361.97 -1104.1,-2466.06 -2466.1,-2466.06 -1361.9,0 -2466,1104.09 -2466,2466.06 0,1361.96 1104.1,2466.06 2466,2466.06 1362,0 2466.1,-1104.1 2466.1,-2466.06"
         style="fill:#100f0d;fill-opacity:1;fill-rule:nonzero;stroke:none"
         id="path30" /><path
         d="M 25304.5,7850.21 H 23865.7 V 10063 h 1438.8 z m -1059.1,2386.39 h 679.5 c 21.7,0 39.3,-17.5 39.3,-39.2 0,-21.7 -17.6,-39.3 -39.3,-39.3 h -679.5 c -21.7,0 -39.3,17.6 -39.3,39.3 0,21.7 17.6,39.2 39.3,39.2 z m 1012.1,117.9 h -1344.8 c -87.4,0 -157.8,-70.4 -157.8,-157.8 V 7825.75 c 0,-87.41 70.4,-157.78 157.8,-157.78 h 1344.8 c 87.4,0 157.8,70.37 157.8,157.78 v 2370.95 c 0,87.4 -70.4,157.8 -157.8,157.8"
         style="fill:#ffffff;fill-opacity:1;fill-rule:nonzero;stroke:none"
         id="path32" /><path
         d="M 2594.75,4932.07 C 1305.92,4932.07 257.379,3883.53 257.379,2594.7 257.379,1305.9 1305.92,257.301 2594.75,257.301 c 1288.83,0 2337.37,1048.599 2337.37,2337.399 0,1288.83 -1048.54,2337.37 -2337.37,2337.37 z M 2594.75,0 C 2244.52,0 1904.69,68.6016 1584.72,203.902 1275.72,334.602 998.242,521.699 759.988,759.898 521.727,998.199 334.656,1275.7 203.961,1584.67 68.625,1904.64 0,2244.47 0,2594.7 c 0,350.23 68.625,690.05 203.961,1010.03 130.695,309 317.766,586.48 556.027,824.73 238.254,238.26 515.732,425.33 824.732,556.03 319.97,135.33 659.8,203.96 1010.03,203.96 350.23,0 690.05,-68.63 1010.03,-203.96 309,-130.7 586.48,-317.77 824.73,-556.03 238.26,-238.25 425.33,-515.73 556.03,-824.73 135.33,-319.98 203.96,-659.8 203.96,-1010.03 0,-350.23 -68.63,-690.06 -203.96,-1010.03 C 4854.84,1275.7 4667.77,998.199 4429.51,759.898 4191.26,521.699 3913.78,334.602 3604.78,203.902 3284.8,68.6016 2944.98,0 2594.75,0"
         style="fill:#100f0d;fill-opacity:1;fill-rule:nonzero;stroke:none"
         id="path34" /><path
         d="m 3660.83,3481.25 c 261.11,-146.87 477.25,-348.31 477.62,-368.82 -70.68,-72.32 -144.36,-141.61 -213.3,-215.4 -651.99,644.64 -1496.18,563.2 -1572.27,532.94 -290.95,-14.56 -778.27,-214.03 -1081.49,-532.57 -74.98,71.32 -146.29,146.38 -220.34,218.51 631.19,648.18 1719.73,860.13 2609.78,365.34"
         style="fill:#100f0d;fill-opacity:1;fill-rule:nonzero;stroke:none"
         id="path36" /><path
         d="m 2782.22,3116.92 c 9.14,-5.1 545.82,-49.7 916.19,-449.08 -72.86,-71.69 -144.65,-144.36 -216.95,-216.5 -591.87,532.03 -1297.78,445.14 -1770.85,-0.18 -70.67,71.5 -142.07,142.17 -212.93,213.38 -4.8,11.8 228.19,273.64 716.24,414.71 372.93,80.8 476.69,34.75 568.3,37.67"
         style="fill:#100f0d;fill-opacity:1;fill-rule:nonzero;stroke:none"
         id="path38" /><path
         d="m 3245.31,2226.51 c -70.31,-76.06 -147.01,-146 -217.96,-221.43 -241.83,241.4 -629.92,232.59 -861.34,-0.55 -72.05,74.6 -147.46,145.73 -218.59,221.06 330.81,319.3 870.42,393 1297.89,0.92"
         style="fill:#100f0d;fill-opacity:1;fill-rule:nonzero;stroke:none"
         id="path40" /><path
         d="m 2811.93,1789.31 c 5.48,-15.54 10.97,-31.46 18.73,-46.63 21.09,-170.65 -37.34,-235.89 -166.75,-296.58 -93.28,-10.2 -28.04,-21.4 -158.07,9.4 -89.65,39.6 -131.48,105.34 -148.57,199.48 -23.95,257.58 327.82,373.47 454.66,134.33"
         style="fill:#100f0d;fill-opacity:1;fill-rule:nonzero;stroke:none"
         id="path42" /><path
         d="m 9924.87,4932.07 c -1288.83,0 -2337.37,-1048.54 -2337.37,-2337.37 0,-1288.8 1048.54,-2337.399 2337.37,-2337.399 1288.83,0 2337.33,1048.599 2337.33,2337.399 0,1288.83 -1048.5,2337.37 -2337.33,2337.37 z M 9924.87,0 c -350.23,0 -690.05,68.6016 -1010.03,203.902 -309,130.7 -586.47,317.797 -824.73,555.996 -238.26,238.301 -425.33,515.802 -556.02,824.772 -135.34,319.97 -203.96,659.8 -203.96,1010.03 0,350.23 68.62,690.05 203.96,1010.03 130.69,309 317.76,586.48 556.02,824.73 238.26,238.26 515.73,425.33 824.73,556.03 319.98,135.33 659.8,203.96 1010.03,203.96 350.23,0 690.03,-68.63 1010.03,-203.96 309,-130.7 586.5,-317.77 824.7,-556.03 238.3,-238.25 425.4,-515.73 556.1,-824.73 135.3,-319.98 203.9,-659.8 203.9,-1010.03 0,-350.23 -68.6,-690.06 -203.9,-1010.03 C 12185,1275.7 11997.9,998.199 11759.6,759.898 11521.4,521.699 11243.9,334.602 10934.9,203.902 10614.9,68.6016 10275.1,0 9924.87,0"
         style="fill:#100f0d;fill-opacity:1;fill-rule:nonzero;stroke:none"
         id="path44" /><path
         d="m 8586.3,3340.62 c -18.36,-42.6 -28.49,-89.48 -28.49,-138.73 V 1987.51 c 0,-2.06 0.22,-4.04 0.27,-6.09 l 893.82,782.1 z m 2675.1,4.1 -871.8,-581.2 901.6,-788.98 c 0.2,4.34 0.7,8.58 0.7,12.96 v 1214.39 c 0,50.87 -11,99.13 -30.5,142.83 z m -1342.73,-893.3 -300.51,201.28 -899.43,-793.62 -93.43,-77.85 c 66.14,-91.08 174.9,-150.46 298.64,-150.46 h 2001.86 c 122.5,0 230.3,58.31 296.7,147.85 l -999,874.18 z m -994.73,1107.21 c -81.9,0 -157.1,-26.23 -217.96,-70.16 l 1214.76,-809.84 1219.06,812.72 c -60.1,42.21 -133.9,67.28 -214,67.28 H 8923.94"
         style="fill:#100f0d;fill-opacity:1;fill-rule:nonzero;stroke:none"
         id="path46" /><path
         d="m 17255,4932.07 c -1288.8,0 -2337.4,-1048.54 -2337.4,-2337.37 0,-1288.8 1048.6,-2337.399 2337.4,-2337.399 1288.8,0 2337.4,1048.599 2337.4,2337.399 0,1288.83 -1048.6,2337.37 -2337.4,2337.37 z M 17255,0 c -350.2,0 -690.1,68.6016 -1010,203.902 -309,130.7 -586.5,317.797 -824.8,555.996 -238.2,238.301 -425.3,515.802 -556,824.772 -135.3,319.97 -203.9,659.8 -203.9,1010.03 0,350.23 68.6,690.05 203.9,1010.03 130.7,309 317.8,586.48 556,824.73 238.3,238.26 515.8,425.33 824.8,556.03 319.9,135.33 659.8,203.96 1010,203.96 350.2,0 690.1,-68.63 1010,-203.96 309,-130.7 586.5,-317.77 824.8,-556.03 238.2,-238.25 425.3,-515.73 556,-824.73 135.3,-319.98 203.9,-659.8 203.9,-1010.03 0,-350.23 -68.6,-690.06 -203.9,-1010.03 C 19515.1,1275.7 19328,998.199 19089.8,759.898 18851.5,521.699 18574,334.602 18265,203.902 17945.1,68.6016 17605.2,0 17255,0"
         style="fill:#100f0d;fill-opacity:1;fill-rule:nonzero;stroke:none"
         id="path48" /><path
         d="m 17005.1,3180.26 c 37.2,28.31 67.5,51.99 67.4,52.61 -10.1,47 -157,621.58 -159.6,624.19 -5.1,5.04 -192.6,31.34 -196.4,27.53 -2.4,-2.37 49.1,-201.42 190.4,-736.29 10,-37.9 3.8,-39.92 98.2,31.96 z m 1207.3,-1576.71 c 33.6,82.44 34.5,87.26 19.8,101.17 -12.5,11.76 -405.3,353.84 -459.6,400.14 -12.6,10.82 -25.4,6.82 -104.2,-32.73 -75.6,-37.94 -87.9,-46.9 -77.6,-56.77 37.4,-36.02 581.7,-503.05 583.9,-500.93 1.4,1.4 18.4,41.5 37.7,89.11 z m -394.6,-268.85 c 111.6,34.8 233.5,82 274.6,106.4 27.6,16.4 31.4,21.9 21.9,31.2 -69.1,66.92 -555.4,492.98 -559.7,490.32 -3.1,-1.93 -11.1,-32.31 -17.6,-67.49 -13,-69.44 -25.2,-85.33 -65.6,-85.31 -33.2,0 -55.2,18.65 -87,73.96 -13.9,24.11 -36.4,58.05 -49.9,75.42 -13.6,17.37 -41,60.77 -60.9,96.44 -20,35.68 -55,94.45 -77.9,130.62 -52.5,82.91 -113.5,183.98 -136.6,226.17 -9.8,17.86 -33.9,54.27 -53.6,80.9 -19.7,26.63 -44.8,66.09 -55.8,87.68 -11,21.58 -42.6,72.79 -70.1,113.77 -27.6,40.99 -60.7,95.37 -73.6,120.84 -12.9,25.48 -36.6,66.91 -52.6,92.07 -37,57.84 -80,143.81 -87.4,174.64 -4.5,18.81 -0.7,28.4 18.5,46.45 25.8,24.34 27.5,24.33 109.8,-0.46 27.8,-8.38 52.4,-13.44 54.6,-11.24 4,3.97 -184.3,733.79 -191.1,740.51 -4.9,4.93 -225.3,-180.23 -225.3,-189.31 0,-4.12 -19.2,-26.58 -42.7,-49.92 -23.4,-23.34 -56.7,-64.8 -74,-92.14 -27.1,-43.1 -32.6,-61.17 -41,-135.91 -26.7,-237.19 35.9,-587.83 154.6,-866.5 64,-150.02 102.4,-225.24 147.8,-289.28 20.5,-28.96 48.1,-74.36 61.3,-100.88 71.1,-142.49 295.2,-402.28 451.5,-523.51 107.9,-83.65 336.9,-233.24 389.8,-254.74 154.8,-62.6 195.5,-65.1 338,-20.7 v 0"
         style="fill:#100f0d;fill-opacity:1;fill-rule:nonzero;stroke:none"
         id="path50" /><path
         d="m 24585.1,4932.07 c -1288.8,0 -2337.3,-1048.54 -2337.3,-2337.37 0,-1288.8 1048.5,-2337.399 2337.3,-2337.399 1288.9,0 2337.4,1048.599 2337.4,2337.399 0,1288.83 -1048.5,2337.37 -2337.4,2337.37 z M 24585.1,0 c -350.2,0 -690,68.6016 -1010,203.902 -309,130.7 -586.5,317.797 -824.7,555.996 -238.3,238.301 -425.4,515.802 -556.1,824.772 -135.3,319.97 -203.9,659.8 -203.9,1010.03 0,350.23 68.6,690.05 203.9,1010.03 130.7,309 317.8,586.48 556.1,824.73 238.2,238.26 515.7,425.33 824.7,556.03 320,135.33 659.8,203.96 1010,203.96 350.3,0 690.1,-68.63 1010.1,-203.96 309,-130.7 586.4,-317.77 824.7,-556.03 238.2,-238.25 425.3,-515.73 556,-824.73 135.3,-319.98 204,-659.8 204,-1010.03 0,-350.23 -68.7,-690.06 -204,-1010.03 -130.7,-308.97 -317.8,-586.471 -556,-824.772 C 26181.6,521.699 25904.2,334.602 25595.2,203.902 25275.2,68.6016 24935.4,0 24585.1,0"
         style="fill:#100f0d;fill-opacity:1;fill-rule:nonzero;stroke:none"
         id="path52" /><path
         d="m 25304.5,1433.7 h -1438.8 v 2212.76 h 1438.8 z m -1059.1,2386.4 h 679.5 c 21.7,0 39.3,-17.58 39.3,-39.27 0,-21.69 -17.6,-39.27 -39.3,-39.27 h -679.5 c -21.7,0 -39.3,17.58 -39.3,39.27 0,21.69 17.6,39.27 39.3,39.27 z m 1012.1,117.87 h -1344.8 c -87.4,0 -157.8,-70.36 -157.8,-157.78 V 1409.2 c 0,-87.4 70.4,-157.8 157.8,-157.8 h 1344.8 c 87.4,0 157.8,70.4 157.8,157.8 v 2370.99 c 0,87.42 -70.4,157.78 -157.8,157.78"
         style="fill:#100f0d;fill-opacity:1;fill-rule:nonzero;stroke:none"
         id="path54" /></g></g></svg>
